STARTFONT 2.1
COMMENT
COMMENT Converted from OpenType font "ChivoMono-Bold.ttf" by "otf2bdf 3.0".
COMMENT
FONT -FreeType-chivo mono-Bold-R-Normal--28-200-100-100-P-141-ISO10646-1
SIZE 20 100 100
FONTBOUNDINGBOX 22 41 -2 -10
STARTPROPERTIES 19
FOUNDRY "FreeType"
FAMILY_NAME "chivo mono"
WEIGHT_NAME "Bold"
SLANT "R"
SETWIDTH_NAME "Normal"
ADD_STYLE_NAME ""
PIXEL_SIZE 28
POINT_SIZE 200
RESOLUTION_X 100
RESOLUTION_Y 100
SPACING "P"
AVERAGE_WIDTH 141
CHARSET_REGISTRY "ISO10646"
CHARSET_ENCODING "1"
FONT_ASCENT 26
FONT_DESCENT 7
COPYRIGHT "Copyright 2018 The Chivo Project Authors (https://github.com/Omnibus-Type/Chivo)"
_OTF_FONTFILE "ChivoMono-Bold.ttf"
_OTF_PSNAME "ChivoMono-Bold"
ENDPROPERTIES
CHARS 642
STARTCHAR 000D
ENCODING 13
SWIDTH 612 0
DWIDTH 17 0
BBX 0 0 0 0
BITMAP
ENDCHAR
STARTCHAR 0020
ENCODING 32
SWIDTH 612 0
DWIDTH 17 0
BBX 0 0 0 0
BITMAP
ENDCHAR
STARTCHAR 0021
ENCODING 33
SWIDTH 612 0
DWIDTH 17 0
BBX 5 19 6 0
BITMAP
F8
F8
F8
F8
F8
F0
F0
F0
F0
70
70
70
70
00
00
F8
F8
F8
F8
ENDCHAR
STARTCHAR 0022
ENCODING 34
SWIDTH 612 0
DWIDTH 17 0
BBX 9 8 4 11
BITMAP
E780
E780
E780
E780
E780
E300
6300
6300
ENDCHAR
STARTCHAR 0023
ENCODING 35
SWIDTH 612 0
DWIDTH 17 0
BBX 17 19 0 0
BITMAP
038E00
038E00
070E00
070C00
071C00
7FFF80
7FFF80
7FFF80
0E1800
0E3800
0E3800
0C3800
FFFF00
FFFF00
1C7000
187000
387000
386000
38E000
ENDCHAR
STARTCHAR 0024
ENCODING 36
SWIDTH 612 0
DWIDTH 17 0
BBX 15 23 1 -2
BITMAP
0380
0300
07C0
1FF0
7FF8
7EFC
783C
F83C
FC00
7F80
7FF0
3FFC
07FC
00FE
F03E
F03E
F83C
7FFC
7FF8
1FF0
0300
0300
0380
ENDCHAR
STARTCHAR 0025
ENCODING 37
SWIDTH 612 0
DWIDTH 17 0
BBX 17 19 0 0
BITMAP
3C0380
7E0700
C60E00
C60C00
C61800
C63000
C67000
EE6000
7C0000
100C00
003F00
033300
067380
0E7380
1C7380
187380
303380
703F00
E01E00
ENDCHAR
STARTCHAR 0026
ENCODING 38
SWIDTH 612 0
DWIDTH 17 0
BBX 16 19 1 0
BITMAP
1F00
3F00
7F00
F800
F81C
F83C
F83C
7C3C
3FFF
3FFF
7FFF
F87C
F07C
F07C
F07C
F87C
FFFC
7FFC
1FFC
ENDCHAR
STARTCHAR 0027
ENCODING 39
SWIDTH 612 0
DWIDTH 17 0
BBX 3 8 7 11
BITMAP
E0
E0
E0
E0
E0
E0
C0
40
ENDCHAR
STARTCHAR 0028
ENCODING 40
SWIDTH 612 0
DWIDTH 17 0
BBX 7 23 5 -4
BITMAP
0E
0C
1C
3C
38
38
78
70
70
70
70
F0
70
70
70
70
78
78
38
3C
1C
1C
0E
ENDCHAR
STARTCHAR 0029
ENCODING 41
SWIDTH 612 0
DWIDTH 17 0
BBX 7 23 4 -4
BITMAP
E0
70
38
38
3C
1C
1C
1E
1E
1E
0E
0E
0E
0E
1E
1E
1C
1C
3C
38
38
70
E0
ENDCHAR
STARTCHAR 002A
ENCODING 42
SWIDTH 612 0
DWIDTH 17 0
BBX 12 11 2 8
BITMAP
0700
0700
0700
6670
FFF0
7FF0
0F00
1F80
1DC0
39E0
18C0
ENDCHAR
STARTCHAR 002B
ENCODING 43
SWIDTH 612 0
DWIDTH 17 0
BBX 14 14 1 0
BITMAP
0380
0380
0380
0380
0380
FFFC
FFFC
FFFC
0380
0380
0380
0380
0380
0380
ENDCHAR
STARTCHAR 002C
ENCODING 44
SWIDTH 612 0
DWIDTH 17 0
BBX 5 10 6 -5
BITMAP
F8
F8
F8
F8
F8
38
30
30
70
E0
ENDCHAR
STARTCHAR 002D
ENCODING 45
SWIDTH 612 0
DWIDTH 17 0
BBX 7 3 5 6
BITMAP
FE
FE
FE
ENDCHAR
STARTCHAR 002E
ENCODING 46
SWIDTH 612 0
DWIDTH 17 0
BBX 5 4 6 0
BITMAP
F8
F8
F8
F8
ENDCHAR
STARTCHAR 002F
ENCODING 47
SWIDTH 612 0
DWIDTH 17 0
BBX 16 24 0 -5
BITMAP
0007
0007
000E
001E
001C
0038
0038
0070
0070
00E0
00E0
01C0
03C0
0380
0700
0700
0E00
0E00
1C00
1C00
3800
7800
7000
E000
ENDCHAR
STARTCHAR 0030
ENCODING 48
SWIDTH 612 0
DWIDTH 17 0
BBX 15 19 1 0
BITMAP
0FE0
3FF8
7FF8
7C7C
F83C
F83C
F83E
F83E
F83E
F83E
F83E
F83E
F83E
F83C
F83C
7C7C
7FF8
3FF0
0FE0
ENDCHAR
STARTCHAR 0031
ENCODING 49
SWIDTH 612 0
DWIDTH 17 0
BBX 13 19 2 0
BITMAP
0380
1F80
FF80
FF80
FF80
0780
0780
0780
0780
0780
0780
0780
0780
0780
0780
0780
FFF8
FFF8
FFF8
ENDCHAR
STARTCHAR 0032
ENCODING 50
SWIDTH 612 0
DWIDTH 17 0
BBX 14 19 1 0
BITMAP
0FE0
3FF8
7FFC
7C7C
783C
F03C
F03C
007C
007C
00F8
03F0
07E0
1F80
3F00
7E00
7FFC
FFFC
FFFC
FFFC
ENDCHAR
STARTCHAR 0033
ENCODING 51
SWIDTH 612 0
DWIDTH 17 0
BBX 15 19 1 0
BITMAP
1FE0
3FF8
7FFC
787C
F03C
003C
007C
0078
07F0
07F0
07F8
003C
003C
F03E
F03E
F87C
7FFC
7FF8
1FE0
ENDCHAR
STARTCHAR 0034
ENCODING 52
SWIDTH 612 0
DWIDTH 17 0
BBX 15 19 1 0
BITMAP
0F80
0F00
0F30
1E30
1E70
1C70
3CF0
38F0
78F0
70F0
E0F0
FFFE
FFFE
FFFE
FFFE
00F0
00F0
00F0
00F0
ENDCHAR
STARTCHAR 0035
ENCODING 53
SWIDTH 612 0
DWIDTH 17 0
BBX 15 19 1 0
BITMAP
3FF8
3FF8
7FF8
7FF8
7800
7800
7880
7FF0
7FF8
7FFC
787C
003C
003E
F03E
F83C
7CFC
7FF8
3FF8
0FE0
ENDCHAR
STARTCHAR 0036
ENCODING 54
SWIDTH 612 0
DWIDTH 17 0
BBX 15 19 1 0
BITMAP
0FE0
3FF8
3FF8
7C7C
783C
F83C
F800
FBF0
FFF8
FFFC
FC3C
F83E
F81E
F83E
783E
7C7C
3FFC
1FF8
0FE0
ENDCHAR
STARTCHAR 0037
ENCODING 55
SWIDTH 612 0
DWIDTH 17 0
BBX 14 19 2 0
BITMAP
FFFC
FFFC
FFF8
FFF8
00F0
01E0
01E0
03C0
0780
0780
0F00
0F00
1F00
1F00
1E00
3E00
3E00
3E00
3E00
ENDCHAR
STARTCHAR 0038
ENCODING 56
SWIDTH 612 0
DWIDTH 17 0
BBX 15 19 1 0
BITMAP
0FE0
3FF0
7FF8
787C
783C
783C
783C
7C78
3FF0
1FF0
7FF8
783C
F83C
F83E
F83E
F87C
7FFC
3FF8
1FE0
ENDCHAR
STARTCHAR 0039
ENCODING 57
SWIDTH 612 0
DWIDTH 17 0
BBX 14 19 1 0
BITMAP
1FE0
3FF0
7FF8
F87C
F03C
F03C
F03C
F03C
F87C
7FFC
3FFC
1F3C
003C
F03C
F87C
7CFC
7FF8
3FF0
1FE0
ENDCHAR
STARTCHAR 003A
ENCODING 58
SWIDTH 612 0
DWIDTH 17 0
BBX 5 14 6 0
BITMAP
F8
F8
F8
F8
00
00
00
00
00
00
F8
F8
F8
F8
ENDCHAR
STARTCHAR 003B
ENCODING 59
SWIDTH 612 0
DWIDTH 17 0
BBX 5 19 6 -5
BITMAP
F8
F8
F8
F8
00
00
00
00
00
F8
F8
F8
F8
F8
38
30
30
70
E0
ENDCHAR
STARTCHAR 003C
ENCODING 60
SWIDTH 612 0
DWIDTH 17 0
BBX 14 14 1 0
BITMAP
000C
003C
01FC
0FF8
3FC0
FE00
F800
F800
FF00
3FE0
07F8
01FC
003C
000C
ENDCHAR
STARTCHAR 003D
ENCODING 61
SWIDTH 612 0
DWIDTH 17 0
BBX 14 9 1 3
BITMAP
FFFC
FFFC
FFFC
0000
0000
0000
FFFC
FFFC
FFFC
ENDCHAR
STARTCHAR 003E
ENCODING 62
SWIDTH 612 0
DWIDTH 17 0
BBX 14 14 2 0
BITMAP
C000
F000
FE00
7F80
0FF0
03FC
007C
007C
03FC
1FF0
FF80
FC00
F000
8000
ENDCHAR
STARTCHAR 003F
ENCODING 63
SWIDTH 612 0
DWIDTH 17 0
BBX 14 19 1 0
BITMAP
0FE0
3FF8
7FF8
787C
787C
F87C
007C
00FC
00F8
01F0
03C0
03C0
03C0
0000
0000
07C0
07C0
07C0
07C0
ENDCHAR
STARTCHAR 0040
ENCODING 64
SWIDTH 612 0
DWIDTH 17 0
BBX 17 24 0 -5
BITMAP
07F000
1E1C00
380E00
300600
600300
67F300
4FFB00
CF7900
CE3980
C03980
C07980
C7F980
CFF980
CE3980
DE3980
DE3900
DFFF00
4FDF00
679E00
600000
300000
180800
0FF800
01C000
ENDCHAR
STARTCHAR 0041
ENCODING 65
SWIDTH 612 0
DWIDTH 17 0
BBX 17 19 0 0
BITMAP
07E000
07F000
07F000
0FF000
0FF000
0F7800
0E7800
1E7800
1E7C00
1E3C00
1E3C00
3C3C00
3FFE00
3FFE00
7FFE00
781F00
781F00
780F00
F80F80
ENDCHAR
STARTCHAR 0042
ENCODING 66
SWIDTH 612 0
DWIDTH 17 0
BBX 15 19 1 0
BITMAP
FFF0
FFF8
FFFC
F87C
F83C
F83C
F83C
F8FC
FFF0
FFF0
FFFC
F83C
F83E
F83E
F83E
FFFE
FFFC
FFF8
FFF0
ENDCHAR
STARTCHAR 0043
ENCODING 67
SWIDTH 612 0
DWIDTH 17 0
BBX 16 19 0 0
BITMAP
0FF0
1FFC
3FFC
7E3E
7C1E
781F
781F
F81F
F800
F800
F800
F81F
781F
781F
7C1E
7E3E
3FFC
1FF8
0FF0
ENDCHAR
STARTCHAR 0044
ENCODING 68
SWIDTH 612 0
DWIDTH 17 0
BBX 15 19 1 0
BITMAP
FFE0
FFF8
FFFC
F8FE
F83E
F81E
F81E
F81E
F81E
F81E
F81E
F81E
F81E
F81E
F83E
FFFE
FFFC
FFF8
FFE0
ENDCHAR
STARTCHAR 0045
ENCODING 69
SWIDTH 612 0
DWIDTH 17 0
BBX 13 19 2 0
BITMAP
FFF8
FFF8
FFF8
F800
F800
F800
F800
F800
FFF0
FFF0
FFF0
F800
F800
F800
F800
FFF8
FFF8
FFF8
FFF8
ENDCHAR
STARTCHAR 0046
ENCODING 70
SWIDTH 612 0
DWIDTH 17 0
BBX 13 19 2 0
BITMAP
FFF8
FFF8
FFF8
FFF0
F800
F800
F800
F800
FFF0
FFF0
FFF0
F800
F800
F800
F800
F800
F800
F800
F800
ENDCHAR
STARTCHAR 0047
ENCODING 71
SWIDTH 612 0
DWIDTH 17 0
BBX 16 19 0 0
BITMAP
0FF0
1FFC
3FFE
7E3E
7C1E
781F
781F
F800
F800
F8FF
F8FF
F8FF
781F
781F
7C1F
7E3F
3FFF
1FF7
0FE7
ENDCHAR
STARTCHAR 0048
ENCODING 72
SWIDTH 612 0
DWIDTH 17 0
BBX 14 19 1 0
BITMAP
F83C
F83C
F83C
F83C
F83C
F83C
F83C
FFFC
FFFC
FFFC
FFFC
F83C
F83C
F83C
F83C
F83C
F83C
F83C
F83C
ENDCHAR
STARTCHAR 0049
ENCODING 73
SWIDTH 612 0
DWIDTH 17 0
BBX 13 19 2 0
BITMAP
FFF8
FFF8
FFF8
0F80
0F80
0F80
0F80
0F80
0F80
0F80
0F80
0F80
0F80
0F80
0F80
0F80
FFF8
FFF8
FFF8
ENDCHAR
STARTCHAR 004A
ENCODING 74
SWIDTH 612 0
DWIDTH 17 0
BBX 13 19 2 0
BITMAP
00F8
00F8
00F8
00F8
00F8
00F8
00F8
00F8
00F8
00F8
00F8
00F8
00F8
F0F8
F0F8
F9F0
7FF0
7FE0
1FC0
ENDCHAR
STARTCHAR 004B
ENCODING 75
SWIDTH 612 0
DWIDTH 17 0
BBX 16 19 1 0
BITMAP
F83E
F83C
F87C
F8F8
F8F8
F9F0
F9F0
FBE0
FFC0
FFC0
FFE0
FFE0
FDF0
F9F0
F8F8
F8FC
F87C
F83E
F83F
ENDCHAR
STARTCHAR 004C
ENCODING 76
SWIDTH 612 0
DWIDTH 17 0
BBX 13 19 2 0
BITMAP
F800
F800
F800
F800
F800
F800
F800
F800
F800
F800
F800
F800
F800
F800
F800
FFF8
FFF8
FFF8
FFF8
ENDCHAR
STARTCHAR 004D
ENCODING 77
SWIDTH 612 0
DWIDTH 17 0
BBX 15 19 1 0
BITMAP
FC7E
FC7E
FC7E
FC7E
FCFE
FCFE
FEDE
FEDE
FEDE
FEDE
FEDE
F7DE
F7DE
F79E
F79E
F79E
F79E
F79E
F79E
ENDCHAR
STARTCHAR 004E
ENCODING 78
SWIDTH 612 0
DWIDTH 17 0
BBX 14 19 1 0
BITMAP
F83C
FC3C
FC3C
FE3C
FE3C
FE3C
FF3C
FF3C
FFBC
FFBC
FBFC
FBFC
F9FC
F9FC
F8FC
F8FC
F87C
F87C
F83C
ENDCHAR
STARTCHAR 004F
ENCODING 79
SWIDTH 612 0
DWIDTH 17 0
BBX 16 19 0 0
BITMAP
0FF0
1FFC
3FFE
7E3E
7C1F
781F
781F
F81F
F81F
F81F
F81F
F81F
781F
781F
7C1F
7E3E
3FFE
1FFC
0FF0
ENDCHAR
STARTCHAR 0050
ENCODING 80
SWIDTH 612 0
DWIDTH 17 0
BBX 15 19 1 0
BITMAP
FFF0
FFFC
FFFC
F87E
F83E
F81E
F81E
F83E
FFFE
FFFC
FFF8
FFF0
F800
F800
F800
F800
F800
F800
F800
ENDCHAR
STARTCHAR 0051
ENCODING 81
SWIDTH 612 0
DWIDTH 17 0
BBX 17 23 0 -4
BITMAP
0FF000
1FFC00
3FFE00
7E3E00
7C1F00
781F00
781F00
F81F00
F81F00
F81F00
F81F00
F81F00
781F00
781F00
7C1F00
7E3E00
3FFE00
1FFC00
0FF000
01E000
01FB80
00FF80
007F00
ENDCHAR
STARTCHAR 0052
ENCODING 82
SWIDTH 612 0
DWIDTH 17 0
BBX 16 19 1 0
BITMAP
FFF0
FFFC
FFFE
F87E
F83E
F81E
F81E
F83E
FFFC
FFF0
FFF8
FFFC
F87C
F83E
F83E
F83E
F83E
F83F
F81F
ENDCHAR
STARTCHAR 0053
ENCODING 83
SWIDTH 612 0
DWIDTH 17 0
BBX 15 19 1 0
BITMAP
1FF0
3FF8
7FFC
F87C
F83E
F83E
FC00
FFC0
7FF0
3FFC
0FFE
01FE
003E
F03E
F03E
FC7E
FFFC
7FF8
1FF0
ENDCHAR
STARTCHAR 0054
ENCODING 84
SWIDTH 612 0
DWIDTH 17 0
BBX 15 19 1 0
BITMAP
FFFE
FFFE
FFFE
FFFE
07C0
07C0
07C0
07C0
07C0
07C0
07C0
07C0
07C0
07C0
07C0
07C0
07C0
07C0
07C0
ENDCHAR
STARTCHAR 0055
ENCODING 85
SWIDTH 612 0
DWIDTH 17 0
BBX 14 19 1 0
BITMAP
F83C
F83C
F83C
F83C
F83C
F83C
F83C
F83C
F83C
F83C
F83C
F83C
F83C
F83C
F83C
7C7C
7FFC
3FF8
1FF0
ENDCHAR
STARTCHAR 0056
ENCODING 86
SWIDTH 612 0
DWIDTH 17 0
BBX 17 19 0 0
BITMAP
F80F80
780F00
780F00
7C1F00
7C1E00
3C1E00
3C1E00
3E3C00
1E3C00
1E3C00
1E3C00
1F7800
0F7800
0F7800
0F7800
0FF000
07F000
07F000
07E000
ENDCHAR
STARTCHAR 0057
ENCODING 87
SWIDTH 612 0
DWIDTH 17 0
BBX 17 19 0 0
BITMAP
F1C780
F1C780
F1C700
F1E700
73E700
7BE700
7BEF00
7BEF00
7BEF00
7B6F00
7B6E00
7B7E00
7F7E00
3F7E00
3E7E00
3E7E00
3E3E00
3E3E00
3E3E00
ENDCHAR
STARTCHAR 0058
ENCODING 88
SWIDTH 612 0
DWIDTH 17 0
BBX 17 19 0 0
BITMAP
7C1F00
3E1E00
3E3E00
1F3C00
1F7C00
0FF800
0FF800
07F000
07F000
07F000
07F000
0FF800
1FF800
1E7C00
3E7C00
3C3E00
7C3E00
7C1F00
F81F80
ENDCHAR
STARTCHAR 0059
ENCODING 89
SWIDTH 612 0
DWIDTH 17 0
BBX 16 19 0 0
BITMAP
F80F
7C1F
7C1E
3E3E
3E3C
1F7C
1F78
0FF8
0FF0
07F0
07F0
03E0
03E0
03E0
03E0
03E0
03E0
03E0
03E0
ENDCHAR
STARTCHAR 005A
ENCODING 90
SWIDTH 612 0
DWIDTH 17 0
BBX 15 19 1 0
BITMAP
FFFE
FFFE
FFFC
FFF8
00F8
01F0
03F0
03E0
07C0
07C0
0F80
1F80
1F00
3E00
3E00
7FFE
FFFE
FFFE
FFFE
ENDCHAR
STARTCHAR 005B
ENCODING 91
SWIDTH 612 0
DWIDTH 17 0
BBX 7 23 6 -4
BITMAP
FE
FE
F0
F0
F0
F0
F0
F0
F0
F0
F0
F0
F0
F0
F0
F0
F0
F0
F0
F0
F0
FE
FE
ENDCHAR
STARTCHAR 005C
ENCODING 92
SWIDTH 612 0
DWIDTH 17 0
BBX 16 24 0 -5
BITMAP
F000
7000
3800
3800
1C00
1C00
0E00
0E00
0700
0780
0380
01C0
01C0
00E0
00E0
0070
0070
0038
003C
001C
000E
000E
0007
0007
ENDCHAR
STARTCHAR 005D
ENCODING 93
SWIDTH 612 0
DWIDTH 17 0
BBX 6 23 4 -4
BITMAP
FC
FC
1C
1C
1C
1C
1C
1C
1C
1C
1C
1C
1C
1C
1C
1C
1C
1C
1C
1C
1C
FC
FC
ENDCHAR
STARTCHAR 005E
ENCODING 94
SWIDTH 612 0
DWIDTH 17 0
BBX 15 14 1 0
BITMAP
0780
07C0
07C0
0FE0
0EE0
1EE0
1C70
1C70
3870
3838
7838
703C
701C
F01E
ENDCHAR
STARTCHAR 005F
ENCODING 95
SWIDTH 612 0
DWIDTH 17 0
BBX 14 3 1 -4
BITMAP
FFFC
FFFC
FFFC
ENDCHAR
STARTCHAR 0060
ENCODING 96
SWIDTH 612 0
DWIDTH 17 0
BBX 6 5 5 16
BITMAP
F0
78
38
1C
1C
ENDCHAR
STARTCHAR 0061
ENCODING 97
SWIDTH 612 0
DWIDTH 17 0
BBX 15 14 1 0
BITMAP
1FF0
3FF8
7CF8
7878
0078
03F8
3FF8
7FF8
7878
F878
F878
7FFE
7FBE
3F3E
ENDCHAR
STARTCHAR 0062
ENCODING 98
SWIDTH 612 0
DWIDTH 17 0
BBX 14 20 2 0
BITMAP
F000
F000
F000
F000
F000
F000
F7E0
FFF0
FCF8
F878
F078
F07C
F07C
F07C
F07C
F078
F878
FFF8
FFF0
F7E0
ENDCHAR
STARTCHAR 0063
ENCODING 99
SWIDTH 612 0
DWIDTH 17 0
BBX 14 14 1 0
BITMAP
1FE0
3FF0
7CF8
7838
F83C
F800
F800
F800
F83C
F83C
7838
7FF8
3FF0
0FE0
ENDCHAR
STARTCHAR 0064
ENCODING 100
SWIDTH 612 0
DWIDTH 17 0
BBX 14 20 1 0
BITMAP
007C
007C
007C
007C
007C
007C
1FFC
3FFC
7CFC
787C
F87C
F07C
F07C
F07C
F07C
F87C
F87C
7FFC
3FFC
1FBC
ENDCHAR
STARTCHAR 0065
ENCODING 101
SWIDTH 612 0
DWIDTH 17 0
BBX 14 14 1 0
BITMAP
1FF0
3FF8
7EFC
783C
F83C
FFFC
FFFC
FFFC
F800
F83C
783C
7FFC
3FF8
1FE0
ENDCHAR
STARTCHAR 0066
ENCODING 102
SWIDTH 612 0
DWIDTH 17 0
BBX 13 20 2 0
BITMAP
03F8
07F8
0FF8
0F80
0F00
0F00
FFF8
FFF8
FFF8
0F00
0F00
0F00
0F00
0F00
0F00
0F00
0F00
FFF8
FFF8
FFF8
ENDCHAR
STARTCHAR 0067
ENCODING 103
SWIDTH 612 0
DWIDTH 17 0
BBX 15 22 1 -5
BITMAP
000E
000E
001E
1FF8
3FF8
7C7C
783C
783C
7C7C
3FF8
1FF0
7FC0
7800
7C00
7FFC
3FFE
7FFE
F01E
F01E
F03E
FFFE
7FF8
ENDCHAR
STARTCHAR 0068
ENCODING 104
SWIDTH 612 0
DWIDTH 17 0
BBX 13 20 2 0
BITMAP
F000
F000
F000
F000
F000
F000
F7E0
FFF0
FFF8
F8F8
F0F8
F078
F078
F078
F078
F078
F078
F078
F078
F078
ENDCHAR
STARTCHAR 0069
ENCODING 105
SWIDTH 612 0
DWIDTH 17 0
BBX 14 20 2 0
BITMAP
0780
0780
0780
0000
0000
0000
FF80
FF80
FF80
0780
0780
0780
0780
0780
0780
0780
0780
FFFC
FFFC
FFFC
ENDCHAR
STARTCHAR 006A
ENCODING 106
SWIDTH 612 0
DWIDTH 17 0
BBX 9 25 2 -5
BITMAP
0780
0780
0780
0000
0000
0000
FF80
FF80
FF80
0780
0780
0780
0780
0780
0780
0780
0780
0780
0780
0780
0780
0780
FF80
FF00
7E00
ENDCHAR
STARTCHAR 006B
ENCODING 107
SWIDTH 612 0
DWIDTH 17 0
BBX 14 20 2 0
BITMAP
F000
F000
F000
F000
F000
F000
F0FC
F0F8
F1F0
F3E0
F7C0
F780
FF80
FFC0
FFC0
FBE0
F3F0
F1F0
F0F8
F07C
ENDCHAR
STARTCHAR 006C
ENCODING 108
SWIDTH 612 0
DWIDTH 17 0
BBX 13 20 2 0
BITMAP
FF80
FF80
FF80
0F80
0F80
0F80
0F80
0F80
0F80
0F80
0F80
0F80
0F80
0F80
0F80
0F80
0F80
FFF8
FFF8
FFF8
ENDCHAR
STARTCHAR 006D
ENCODING 109
SWIDTH 612 0
DWIDTH 17 0
BBX 15 14 1 0
BITMAP
FF7C
FFFC
FFFE
F39E
F39E
F39E
F39E
F39E
F39E
F39E
F39E
F39E
F39E
F39E
ENDCHAR
STARTCHAR 006E
ENCODING 110
SWIDTH 612 0
DWIDTH 17 0
BBX 13 14 2 0
BITMAP
F7E0
FFF0
FFF8
F8F8
F0F8
F078
F078
F078
F078
F078
F078
F078
F078
F078
ENDCHAR
STARTCHAR 006F
ENCODING 111
SWIDTH 612 0
DWIDTH 17 0
BBX 15 14 1 0
BITMAP
1FE0
3FF8
7CF8
787C
F83C
F83C
F83E
F83E
F83C
F83C
787C
7FF8
3FF0
0FE0
ENDCHAR
STARTCHAR 0070
ENCODING 112
SWIDTH 612 0
DWIDTH 17 0
BBX 14 19 2 -5
BITMAP
F7E0
FFF0
FDF8
F878
F078
F07C
F07C
F07C
F07C
F078
F878
FFF8
FFF0
F7E0
F000
F000
F000
F000
F000
ENDCHAR
STARTCHAR 0071
ENCODING 113
SWIDTH 612 0
DWIDTH 17 0
BBX 14 19 1 -5
BITMAP
1FBC
3FFC
7CFC
F87C
F87C
F07C
F07C
F07C
F07C
F87C
F87C
7FFC
3FFC
1FFC
007C
007C
007C
007C
007C
ENDCHAR
STARTCHAR 0072
ENCODING 114
SWIDTH 612 0
DWIDTH 17 0
BBX 15 14 1 0
BITMAP
FEFC
FFFC
FFFE
1F1E
1F1E
1F00
1F00
1F00
1F00
1F00
1F00
FFF8
FFF8
FFF8
ENDCHAR
STARTCHAR 0073
ENCODING 115
SWIDTH 612 0
DWIDTH 17 0
BBX 13 14 2 0
BITMAP
3FE0
7FF0
F8F0
F078
F800
FFC0
7FF0
3FF8
03F8
E078
F078
FFF8
7FF0
3FE0
ENDCHAR
STARTCHAR 0074
ENCODING 116
SWIDTH 612 0
DWIDTH 17 0
BBX 14 19 1 0
BITMAP
0700
0700
0700
0F00
0F00
FFFC
FFFC
FFFC
0F00
0F00
0F00
0F00
0F00
0F00
0F00
0F84
0FFC
07FC
03FC
ENDCHAR
STARTCHAR 0075
ENCODING 117
SWIDTH 612 0
DWIDTH 17 0
BBX 14 14 2 0
BITMAP
F0F8
F0F8
F0F8
F0F8
F0F8
F0F8
F0F8
F0F8
F0F8
F0F8
F8F8
FFFC
FFFC
7F7C
ENDCHAR
STARTCHAR 0076
ENCODING 118
SWIDTH 612 0
DWIDTH 17 0
BBX 15 14 1 0
BITMAP
F83E
F83C
783C
7C7C
7C78
3C78
3EF0
1EF0
1EF0
1FE0
0FE0
0FE0
0FC0
07C0
ENDCHAR
STARTCHAR 0077
ENCODING 119
SWIDTH 612 0
DWIDTH 17 0
BBX 17 14 0 0
BITMAP
F3C780
F3C700
F3E700
73E700
73EF00
73EF00
7F6F00
7F6E00
3F7E00
3F7E00
3E7E00
3E7E00
3E3C00
3E3C00
ENDCHAR
STARTCHAR 0078
ENCODING 120
SWIDTH 612 0
DWIDTH 17 0
BBX 15 14 1 0
BITMAP
FC3E
7C7C
3EF8
1EF0
1FF0
0FE0
07C0
0FE0
1FE0
1FF0
3EF8
7C78
787C
F83E
ENDCHAR
STARTCHAR 0079
ENCODING 121
SWIDTH 612 0
DWIDTH 17 0
BBX 15 19 1 -5
BITMAP
F83E
783C
7C3C
7C78
3C78
3E78
1EF0
1EF0
1FE0
0FE0
0FE0
0FC0
07C0
07C0
0780
0F80
7F00
7E00
7C00
ENDCHAR
STARTCHAR 007A
ENCODING 122
SWIDTH 612 0
DWIDTH 17 0
BBX 12 14 2 0
BITMAP
7FF0
7FF0
7FE0
03E0
07C0
0780
0F80
1F00
1F00
3E00
3E00
7FF0
FFF0
FFF0
ENDCHAR
STARTCHAR 007B
ENCODING 123
SWIDTH 612 0
DWIDTH 17 0
BBX 7 24 5 -5
BITMAP
1E
3E
38
38
38
38
38
38
38
38
F0
C0
F0
78
38
38
38
38
38
38
38
3C
1E
04
ENDCHAR
STARTCHAR 007C
ENCODING 124
SWIDTH 612 0
DWIDTH 17 0
BBX 3 26 7 -6
BITMAP
E0
E0
E0
E0
E0
E0
E0
E0
E0
E0
E0
E0
E0
E0
E0
E0
E0
E0
E0
E0
E0
E0
E0
E0
E0
E0
ENDCHAR
STARTCHAR 007D
ENCODING 125
SWIDTH 612 0
DWIDTH 17 0
BBX 8 24 4 -5
BITMAP
F8
FC
1C
1C
1C
1C
1C
1C
1C
1C
1F
07
0F
1C
1C
1C
1C
1C
1C
1C
1C
3C
F8
40
ENDCHAR
STARTCHAR 007E
ENCODING 126
SWIDTH 612 0
DWIDTH 17 0
BBX 16 5 0 6
BITMAP
0C01
3F83
FFFF
F3FF
C07C
ENDCHAR
STARTCHAR 00A0
ENCODING 160
SWIDTH 612 0
DWIDTH 17 0
BBX 0 0 0 0
BITMAP
ENDCHAR
STARTCHAR 00A1
ENCODING 161
SWIDTH 612 0
DWIDTH 17 0
BBX 5 19 6 -5
BITMAP
F8
F8
F8
F8
00
00
70
70
70
70
F0
F0
F0
F8
F8
F8
F8
F8
F8
ENDCHAR
STARTCHAR 00A2
ENCODING 162
SWIDTH 612 0
DWIDTH 17 0
BBX 13 19 2 0
BITMAP
0700
0700
0F80
3FE0
7FF0
F8F8
F078
F078
F000
F000
F000
F038
F078
F878
7FF0
3FE0
0F80
0700
0700
ENDCHAR
STARTCHAR 00A3
ENCODING 163
SWIDTH 612 0
DWIDTH 17 0
BBX 16 19 0 0
BITMAP
03F8
0FFE
0FFE
1F1F
1E0F
1E0F
1E00
1E00
FFE0
FFE0
FFE0
1E00
1E00
1E00
1E00
1E00
7FFE
7FFE
7FFE
ENDCHAR
STARTCHAR 00A4
ENCODING 164
SWIDTH 612 0
DWIDTH 17 0
BBX 15 15 1 2
BITMAP
4008
6FEC
FFFE
3C78
703C
701C
E01C
E01C
E01C
701C
703C
3C78
7FFC
EFEC
4108
ENDCHAR
STARTCHAR 00A5
ENCODING 165
SWIDTH 612 0
DWIDTH 17 0
BBX 16 19 0 0
BITMAP
F80F
7C1F
7C1E
3E3E
3E3C
1F7C
7F7F
7FFF
7FFF
07F0
7FFF
7FFF
7FFF
03E0
03E0
03E0
03E0
03E0
03E0
ENDCHAR
STARTCHAR 00A6
ENCODING 166
SWIDTH 612 0
DWIDTH 17 0
BBX 3 26 7 -6
BITMAP
E0
E0
E0
E0
E0
E0
E0
E0
E0
E0
00
00
00
00
00
00
E0
E0
E0
E0
E0
E0
E0
E0
E0
E0
ENDCHAR
STARTCHAR 00A7
ENCODING 167
SWIDTH 612 0
DWIDTH 17 0
BBX 13 24 2 -5
BITMAP
3FC0
7FF0
F9F0
F070
F000
F800
7E00
3F80
7FE0
F7F0
E1F8
E078
F038
F838
7F70
3FE0
0FE0
03F0
00F0
0078
F078
7FF0
7FE0
1FC0
ENDCHAR
STARTCHAR 00A8
ENCODING 168
SWIDTH 612 0
DWIDTH 17 0
BBX 10 3 3 17
BITMAP
F1C0
F1C0
F1C0
ENDCHAR
STARTCHAR 00A9
ENCODING 169
SWIDTH 612 0
DWIDTH 17 0
BBX 17 19 0 0
BITMAP
07F000
1C3C00
300C00
700600
67E300
4FF300
CE3B00
CE3900
CE0100
CE0180
CE0100
CE3900
CE3B00
4FF300
67E300
300600
300C00
1C3C00
07F000
ENDCHAR
STARTCHAR 00AA
ENCODING 170
SWIDTH 612 0
DWIDTH 17 0
BBX 9 9 4 10
BITMAP
7E00
F700
E700
3F00
FF00
E700
E700
FB80
3100
ENDCHAR
STARTCHAR 00AB
ENCODING 171
SWIDTH 612 0
DWIDTH 17 0
BBX 12 9 2 5
BITMAP
1C70
38F0
78E0
71E0
F3C0
F1C0
79E0
38E0
1C70
ENDCHAR
STARTCHAR 00AC
ENCODING 172
SWIDTH 612 0
DWIDTH 17 0
BBX 14 8 1 5
BITMAP
FFFC
FFFC
FFFC
001C
001C
001C
001C
001C
ENDCHAR
STARTCHAR 00AD
ENCODING 173
SWIDTH 612 0
DWIDTH 17 0
BBX 7 3 5 6
BITMAP
FE
FE
FE
ENDCHAR
STARTCHAR 00AE
ENCODING 174
SWIDTH 612 0
DWIDTH 17 0
BBX 17 19 0 0
BITMAP
07F000
1C3C00
300C00
700600
6FF300
4FFB00
CE3B00
CE3900
CE7900
CFE180
CFF100
CE3900
CE3B00
4E3B00
6E3F00
300600
300C00
1C3C00
07F000
ENDCHAR
STARTCHAR 00AF
ENCODING 175
SWIDTH 612 0
DWIDTH 17 0
BBX 9 2 4 17
BITMAP
FF80
FF80
ENDCHAR
STARTCHAR 00B0
ENCODING 176
SWIDTH 612 0
DWIDTH 17 0
BBX 9 8 4 11
BITMAP
3E00
7F00
E300
C380
C380
E300
7F00
3E00
ENDCHAR
STARTCHAR 00B1
ENCODING 177
SWIDTH 612 0
DWIDTH 17 0
BBX 14 14 1 0
BITMAP
0380
0380
0380
FFFC
FFFC
FFFC
0380
0380
0380
0380
0000
FFFC
FFFC
FFFC
ENDCHAR
STARTCHAR 00B2
ENCODING 178
SWIDTH 612 0
DWIDTH 17 0
BBX 8 10 4 12
BITMAP
3E
7F
63
83
07
0E
3C
70
7F
FF
ENDCHAR
STARTCHAR 00B3
ENCODING 179
SWIDTH 612 0
DWIDTH 17 0
BBX 8 11 4 11
BITMAP
3E
7F
63
03
1E
1F
03
E3
F7
7E
18
ENDCHAR
STARTCHAR 00B4
ENCODING 180
SWIDTH 612 0
DWIDTH 17 0
BBX 6 5 5 16
BITMAP
3C
38
78
70
E0
ENDCHAR
STARTCHAR 00B5
ENCODING 181
SWIDTH 612 0
DWIDTH 17 0
BBX 14 18 2 -4
BITMAP
F0F8
F0F8
F0F8
F0F8
F0F8
F0F8
F0F8
F0F8
F0F8
F0F8
F8F8
FFFC
FFFC
FF7C
F000
F000
F000
F000
ENDCHAR
STARTCHAR 00B6
ENCODING 182
SWIDTH 612 0
DWIDTH 17 0
BBX 14 24 1 -5
BITMAP
1FFC
3FFC
7F30
FF30
FF30
FF30
FF30
FF30
7F30
7F30
3F30
0F30
0330
0330
0330
0330
0330
0330
0330
0330
0330
0330
0330
0330
ENDCHAR
STARTCHAR 00B7
ENCODING 183
SWIDTH 612 0
DWIDTH 17 0
BBX 5 5 6 8
BITMAP
F8
F8
F8
F8
F8
ENDCHAR
STARTCHAR 00B8
ENCODING 184
SWIDTH 612 0
DWIDTH 17 0
BBX 7 5 5 -6
BITMAP
1C
0C
0E
FC
78
ENDCHAR
STARTCHAR 00B9
ENCODING 185
SWIDTH 612 0
DWIDTH 17 0
BBX 7 10 5 12
BITMAP
30
F0
F0
30
30
30
30
30
FE
FE
ENDCHAR
STARTCHAR 00BA
ENCODING 186
SWIDTH 612 0
DWIDTH 17 0
BBX 9 9 4 10
BITMAP
7E00
7700
E380
E380
E380
E380
F700
7E00
0800
ENDCHAR
STARTCHAR 00BB
ENCODING 187
SWIDTH 612 0
DWIDTH 17 0
BBX 13 9 2 5
BITMAP
F3C0
71E0
38E0
3CF0
1E78
3CF0
38F0
79E0
F3C0
ENDCHAR
STARTCHAR 00BC
ENCODING 188
SWIDTH 612 0
DWIDTH 17 0
BBX 17 19 0 0
BITMAP
180380
F80700
F80E00
380C00
381800
383000
387000
386000
FE0000
FE1800
001A00
033200
063600
0E6600
1C6600
187F80
307F80
700600
E00600
ENDCHAR
STARTCHAR 00BD
ENCODING 189
SWIDTH 612 0
DWIDTH 17 0
BBX 17 19 0 0
BITMAP
180380
F80600
F80E00
380C00
381800
383000
387000
386000
FE0000
FE3F00
007F00
036380
060380
0C0300
1C0F00
181C00
303800
707F80
E07F80
ENDCHAR
STARTCHAR 00BE
ENCODING 190
SWIDTH 612 0
DWIDTH 17 0
BBX 17 19 0 0
BITMAP
7E0380
7F0700
E70E00
070C00
1E1800
1E3000
077000
C36000
EF0000
7E1800
081A00
033200
063600
0E6600
1C6600
187F80
307F80
700600
E00600
ENDCHAR
STARTCHAR 00BF
ENCODING 191
SWIDTH 612 0
DWIDTH 17 0
BBX 14 19 1 -5
BITMAP
0780
0780
0780
0780
0000
0000
0780
0780
0F80
1F00
3E00
7C00
783C
F83C
783C
7C7C
7FF8
3FF0
0FC0
ENDCHAR
STARTCHAR 00C0
ENCODING 192
SWIDTH 612 0
DWIDTH 17 0
BBX 17 25 0 0
BITMAP
0F0000
070000
038000
03C000
000000
000000
07E000
07F000
07F000
0FF000
0FF000
0F7800
0E7800
1E7800
1E7C00
1E3C00
1E3C00
3C3C00
3FFE00
3FFE00
7FFE00
781F00
781F00
780F00
F80F80
ENDCHAR
STARTCHAR 00C1
ENCODING 193
SWIDTH 612 0
DWIDTH 17 0
BBX 17 25 0 0
BITMAP
007800
00F000
00E000
01C000
000000
000000
07E000
07F000
07F000
0FF000
0FF000
0F7800
0E7800
1E7800
1E7C00
1E3C00
1E3C00
3C3C00
3FFE00
3FFE00
7FFE00
781F00
781F00
780F00
F80F80
ENDCHAR
STARTCHAR 00C2
ENCODING 194
SWIDTH 612 0
DWIDTH 17 0
BBX 17 25 0 0
BITMAP
03C000
07E000
0F7000
1E3800
000400
000000
07E000
07F000
07F000
0FF000
0FF000
0F7800
0E7800
1E7800
1E7C00
1E3C00
1E3C00
3C3C00
3FFE00
3FFE00
7FFE00
781F00
781F00
780F00
F80F80
ENDCHAR
STARTCHAR 00C3
ENCODING 195
SWIDTH 612 0
DWIDTH 17 0
BBX 17 25 0 0
BITMAP
060C00
0FFC00
1FF800
18F000
000000
000000
07E000
07F000
07F000
0FF000
0FF000
0F7800
0E7800
1E7800
1E7C00
1E3C00
1E3C00
3C3C00
3FFE00
3FFE00
7FFE00
781F00
781F00
780F00
F80F80
ENDCHAR
STARTCHAR 00C4
ENCODING 196
SWIDTH 612 0
DWIDTH 17 0
BBX 17 24 0 0
BITMAP
1E3800
1E3800
1E3800
000000
000000
07E000
07F000
07F000
0FF000
0FF000
0F7800
0E7800
1E7800
1E7C00
1E3C00
1E3C00
3C3C00
3FFE00
3FFE00
7FFE00
781F00
781F00
780F00
F80F80
ENDCHAR
STARTCHAR 00C5
ENCODING 197
SWIDTH 612 0
DWIDTH 17 0
BBX 17 26 0 0
BITMAP
03E000
076000
062000
076000
03E000
000000
000000
07E000
07F000
07F000
0FF000
0FF000
0F7800
0E7800
1E7800
1E7C00
1E3C00
1E3C00
3C3C00
3FFE00
3FFE00
7FFE00
781F00
781F00
780F00
F80F80
ENDCHAR
STARTCHAR 00C6
ENCODING 198
SWIDTH 612 0
DWIDTH 17 0
BBX 17 19 0 0
BITMAP
0FFF00
0FFF00
0FFF00
0FF000
0EF000
1EF000
1EF000
1EF000
1EFE00
3CFE00
3CFE00
3CF000
3FF000
7FF000
7FF000
78FF00
78FF00
F8FF00
F8FF80
ENDCHAR
STARTCHAR 00C7
ENCODING 199
SWIDTH 612 0
DWIDTH 17 0
BBX 16 25 0 -6
BITMAP
0FF0
1FFC
3FFC
7E3E
7C1E
781F
781F
F81F
F800
F800
F800
F81F
781F
781F
7C1E
7E3E
3FFC
1FF8
0FF0
0000
00E0
0060
0070
07E0
03C0
ENDCHAR
STARTCHAR 00C8
ENCODING 200
SWIDTH 612 0
DWIDTH 17 0
BBX 13 25 2 0
BITMAP
3C00
1E00
0E00
0700
0000
0000
FFF8
FFF8
FFF8
F800
F800
F800
F800
F800
FFF0
FFF0
FFF0
F800
F800
F800
F800
FFF8
FFF8
FFF8
FFF8
ENDCHAR
STARTCHAR 00C9
ENCODING 201
SWIDTH 612 0
DWIDTH 17 0
BBX 13 25 2 0
BITMAP
01E0
01C0
03C0
0780
0000
0000
FFF8
FFF8
FFF8
F800
F800
F800
F800
F800
FFF0
FFF0
FFF0
F800
F800
F800
F800
FFF8
FFF8
FFF8
FFF8
ENDCHAR
STARTCHAR 00CA
ENCODING 202
SWIDTH 612 0
DWIDTH 17 0
BBX 13 25 2 0
BITMAP
0F80
0FC0
1DC0
78F0
0000
0000
FFF8
FFF8
FFF8
F800
F800
F800
F800
F800
FFF0
FFF0
FFF0
F800
F800
F800
F800
FFF8
FFF8
FFF8
FFF8
ENDCHAR
STARTCHAR 00CB
ENCODING 203
SWIDTH 612 0
DWIDTH 17 0
BBX 13 24 2 0
BITMAP
78F0
78F0
78F0
0000
0000
FFF8
FFF8
FFF8
F800
F800
F800
F800
F800
FFF0
FFF0
FFF0
F800
F800
F800
F800
FFF8
FFF8
FFF8
FFF8
ENDCHAR
STARTCHAR 00CC
ENCODING 204
SWIDTH 612 0
DWIDTH 17 0
BBX 13 25 2 0
BITMAP
3C00
1C00
0E00
0F00
0000
0000
FFF8
FFF8
FFF8
0F80
0F80
0F80
0F80
0F80
0F80
0F80
0F80
0F80
0F80
0F80
0F80
0F80
FFF8
FFF8
FFF8
ENDCHAR
STARTCHAR 00CD
ENCODING 205
SWIDTH 612 0
DWIDTH 17 0
BBX 13 25 2 0
BITMAP
01E0
03C0
0380
0700
0000
0000
FFF8
FFF8
FFF8
0F80
0F80
0F80
0F80
0F80
0F80
0F80
0F80
0F80
0F80
0F80
0F80
0F80
FFF8
FFF8
FFF8
ENDCHAR
STARTCHAR 00CE
ENCODING 206
SWIDTH 612 0
DWIDTH 17 0
BBX 13 25 2 0
BITMAP
0F00
1F80
3DC0
78E0
0010
0000
FFF8
FFF8
FFF8
0F80
0F80
0F80
0F80
0F80
0F80
0F80
0F80
0F80
0F80
0F80
0F80
0F80
FFF8
FFF8
FFF8
ENDCHAR
STARTCHAR 00CF
ENCODING 207
SWIDTH 612 0
DWIDTH 17 0
BBX 13 24 2 0
BITMAP
78E0
78E0
78E0
0000
0000
FFF8
FFF8
FFF8
0F80
0F80
0F80
0F80
0F80
0F80
0F80
0F80
0F80
0F80
0F80
0F80
0F80
FFF8
FFF8
FFF8
ENDCHAR
STARTCHAR 00D0
ENCODING 208
SWIDTH 612 0
DWIDTH 17 0
BBX 16 19 0 0
BITMAP
7FF0
7FFC
7FFE
7C7F
7C1F
7C0F
7C0F
7C0F
FFCF
FFCF
FFCF
7C0F
7C0F
7C0F
7C1F
7FFF
7FFE
7FFC
7FF0
ENDCHAR
STARTCHAR 00D1
ENCODING 209
SWIDTH 612 0
DWIDTH 17 0
BBX 14 25 1 0
BITMAP
0C18
1FF8
3FF0
31E0
0000
0000
F83C
FC3C
FC3C
FE3C
FE3C
FE3C
FF3C
FF3C
FFBC
FFBC
FBFC
FBFC
F9FC
F9FC
F8FC
F8FC
F87C
F87C
F83C
ENDCHAR
STARTCHAR 00D2
ENCODING 210
SWIDTH 612 0
DWIDTH 17 0
BBX 16 25 0 0
BITMAP
0F00
0700
0380
03C0
0000
0000
0FF0
1FFC
3FFE
7E3E
7C1F
781F
781F
F81F
F81F
F81F
F81F
F81F
781F
781F
7C1F
7E3E
3FFE
1FFC
0FF0
ENDCHAR
STARTCHAR 00D3
ENCODING 211
SWIDTH 612 0
DWIDTH 17 0
BBX 16 25 0 0
BITMAP
0078
00F0
00E0
01C0
0000
0000
0FF0
1FFC
3FFE
7E3E
7C1F
781F
781F
F81F
F81F
F81F
F81F
F81F
781F
781F
7C1F
7E3E
3FFE
1FFC
0FF0
ENDCHAR
STARTCHAR 00D4
ENCODING 212
SWIDTH 612 0
DWIDTH 17 0
BBX 16 25 0 0
BITMAP
03C0
07E0
0F70
1E38
0004
0000
0FF0
1FFC
3FFE
7E3E
7C1F
781F
781F
F81F
F81F
F81F
F81F
F81F
781F
781F
7C1F
7E3E
3FFE
1FFC
0FF0
ENDCHAR
STARTCHAR 00D5
ENCODING 213
SWIDTH 612 0
DWIDTH 17 0
BBX 16 25 0 0
BITMAP
060C
0FFC
1FF8
18F0
0000
0000
0FF0
1FFC
3FFE
7E3E
7C1F
781F
781F
F81F
F81F
F81F
F81F
F81F
781F
781F
7C1F
7E3E
3FFE
1FFC
0FF0
ENDCHAR
STARTCHAR 00D6
ENCODING 214
SWIDTH 612 0
DWIDTH 17 0
BBX 16 24 0 0
BITMAP
1E38
1E38
1E38
0000
0000
0FF0
1FFC
3FFE
7E3E
7C1F
781F
781F
F81F
F81F
F81F
F81F
F81F
781F
781F
7C1F
7E3E
3FFE
1FFC
0FF0
ENDCHAR
STARTCHAR 00D7
ENCODING 215
SWIDTH 612 0
DWIDTH 17 0
BBX 12 12 2 1
BITMAP
2020
F070
78F0
3DE0
1FC0
0F80
0F80
1FC0
3DE0
F8F0
7070
2020
ENDCHAR
STARTCHAR 00D8
ENCODING 216
SWIDTH 612 0
DWIDTH 17 0
BBX 16 23 0 -2
BITMAP
0003
0007
0FFE
1FFC
3FFE
7E3E
7C3F
787F
787F
F8FF
F8DF
F9DF
FB9F
FB1F
7F1F
7E1F
7E1F
7E3E
3FFE
3FFC
3FF0
7000
E000
ENDCHAR
STARTCHAR 00D9
ENCODING 217
SWIDTH 612 0
DWIDTH 17 0
BBX 14 25 1 0
BITMAP
1E00
0E00
0700
0780
0000
0000
F83C
F83C
F83C
F83C
F83C
F83C
F83C
F83C
F83C
F83C
F83C
F83C
F83C
F83C
F83C
7C7C
7FFC
3FF8
1FF0
ENDCHAR
STARTCHAR 00DA
ENCODING 218
SWIDTH 612 0
DWIDTH 17 0
BBX 14 25 1 0
BITMAP
00F0
01E0
01C0
0380
0000
0000
F83C
F83C
F83C
F83C
F83C
F83C
F83C
F83C
F83C
F83C
F83C
F83C
F83C
F83C
F83C
7C7C
7FFC
3FF8
1FF0
ENDCHAR
STARTCHAR 00DB
ENCODING 219
SWIDTH 612 0
DWIDTH 17 0
BBX 14 25 1 0
BITMAP
0780
0FC0
1EE0
3C70
0008
0000
F83C
F83C
F83C
F83C
F83C
F83C
F83C
F83C
F83C
F83C
F83C
F83C
F83C
F83C
F83C
7C7C
7FFC
3FF8
1FF0
ENDCHAR
STARTCHAR 00DC
ENCODING 220
SWIDTH 612 0
DWIDTH 17 0
BBX 14 24 1 0
BITMAP
3C70
3C70
3C70
0000
0000
F83C
F83C
F83C
F83C
F83C
F83C
F83C
F83C
F83C
F83C
F83C
F83C
F83C
F83C
F83C
7C7C
7FFC
3FF8
1FF0
ENDCHAR
STARTCHAR 00DD
ENCODING 221
SWIDTH 612 0
DWIDTH 17 0
BBX 16 25 0 0
BITMAP
0078
00F0
00E0
01C0
0000
0000
F80F
7C1F
7C1E
3E3E
3E3C
1F7C
1F78
0FF8
0FF0
07F0
07F0
03E0
03E0
03E0
03E0
03E0
03E0
03E0
03E0
ENDCHAR
STARTCHAR 00DE
ENCODING 222
SWIDTH 612 0
DWIDTH 17 0
BBX 14 19 2 0
BITMAP
F000
F000
F000
FFE0
FFF0
FFF8
FFFC
F07C
F03C
F03C
F07C
FFFC
FFF8
FFF0
FFC0
F000
F000
F000
F000
ENDCHAR
STARTCHAR 00DF
ENCODING 223
SWIDTH 612 0
DWIDTH 17 0
BBX 16 22 0 -2
BITMAP
07F0
0FFC
1FFE
3E3E
3E1E
3C1E
FC1E
FC3E
FCFC
3CF8
3CFE
3C1E
3C0F
3C0F
3C0F
3C1F
3C3F
3CFE
3CFC
3CF8
3C00
3C00
ENDCHAR
STARTCHAR 00E0
ENCODING 224
SWIDTH 612 0
DWIDTH 17 0
BBX 15 21 1 0
BITMAP
1E00
0F00
0700
0780
0380
0000
0000
1FF0
3FF8
7CF8
7878
0078
03F8
3FF8
7FF8
7878
F878
F878
7FFE
7FBE
3F3E
ENDCHAR
STARTCHAR 00E1
ENCODING 225
SWIDTH 612 0
DWIDTH 17 0
BBX 15 21 1 0
BITMAP
01E0
03C0
0380
0380
0700
0000
0000
1FF0
3FF8
7CF8
7878
0078
03F8
3FF8
7FF8
7878
F878
F878
7FFE
7FBE
3F3E
ENDCHAR
STARTCHAR 00E2
ENCODING 226
SWIDTH 612 0
DWIDTH 17 0
BBX 15 21 1 0
BITMAP
0780
0FC0
1FE0
1CE0
3870
0000
0000
1FF0
3FF8
7CF8
7878
0078
03F8
3FF8
7FF8
7878
F878
F878
7FFE
7FBE
3F3E
ENDCHAR
STARTCHAR 00E3
ENCODING 227
SWIDTH 612 0
DWIDTH 17 0
BBX 15 21 1 0
BITMAP
0C18
3F38
3FF0
33F0
6040
0000
0000
1FF0
3FF8
7CF8
7878
0078
03F8
3FF8
7FF8
7878
F878
F878
7FFE
7FBE
3F3E
ENDCHAR
STARTCHAR 00E4
ENCODING 228
SWIDTH 612 0
DWIDTH 17 0
BBX 15 20 1 0
BITMAP
3870
3870
3870
0000
0000
0000
1FF0
3FF8
7CF8
7878
0078
03F8
3FF8
7FF8
7878
F878
F878
7FFE
7FBE
3F3E
ENDCHAR
STARTCHAR 00E5
ENCODING 229
SWIDTH 612 0
DWIDTH 17 0
BBX 15 22 1 0
BITMAP
0380
0FC0
0CC0
0CC0
07C0
0380
0000
0000
1FF0
3FF8
7CF8
7878
0078
03F8
3FF8
7FF8
7878
F878
F878
7FFE
7FBE
3F3E
ENDCHAR
STARTCHAR 00E6
ENCODING 230
SWIDTH 612 0
DWIDTH 17 0
BBX 16 14 0 0
BITMAP
3F7E
7FFE
73E7
73C7
01C7
07FF
3FFF
7FC0
F1C0
E3C7
E3E7
FFFF
7FFE
3E7C
ENDCHAR
STARTCHAR 00E7
ENCODING 231
SWIDTH 612 0
DWIDTH 17 0
BBX 14 20 1 -6
BITMAP
1FE0
3FF0
7CF8
7838
F83C
F800
F800
F800
F83C
F83C
7838
7FF8
3FF0
0FE0
0000
01C0
00C0
00E0
0FC0
0780
ENDCHAR
STARTCHAR 00E8
ENCODING 232
SWIDTH 612 0
DWIDTH 17 0
BBX 14 21 1 0
BITMAP
1F00
0700
0780
0380
01C0
0000
0000
1FF0
3FF8
7EFC
783C
F83C
FFFC
FFFC
FFFC
F800
F83C
783C
7FFC
3FF8
1FE0
ENDCHAR
STARTCHAR 00E9
ENCODING 233
SWIDTH 612 0
DWIDTH 17 0
BBX 14 21 1 0
BITMAP
01F0
01E0
03C0
0380
0780
0000
0000
1FF0
3FF8
7EFC
783C
F83C
FFFC
FFFC
FFFC
F800
F83C
783C
7FFC
3FF8
1FE0
ENDCHAR
STARTCHAR 00EA
ENCODING 234
SWIDTH 612 0
DWIDTH 17 0
BBX 14 21 1 0
BITMAP
07C0
07C0
0EE0
1C70
3C78
0000
0000
1FF0
3FF8
7EFC
783C
F83C
FFFC
FFFC
FFFC
F800
F83C
783C
7FFC
3FF8
1FE0
ENDCHAR
STARTCHAR 00EB
ENCODING 235
SWIDTH 612 0
DWIDTH 17 0
BBX 14 20 1 0
BITMAP
3C78
3C78
3C78
0000
0000
0000
1FF0
3FF8
7EFC
783C
F83C
FFFC
FFFC
FFFC
F800
F83C
783C
7FFC
3FF8
1FE0
ENDCHAR
STARTCHAR 00EC
ENCODING 236
SWIDTH 612 0
DWIDTH 17 0
BBX 14 21 2 0
BITMAP
1E00
0E00
0700
0700
0380
0000
0000
FF80
FF80
FF80
0780
0780
0780
0780
0780
0780
0780
0780
FFFC
FFFC
FFFC
ENDCHAR
STARTCHAR 00ED
ENCODING 237
SWIDTH 612 0
DWIDTH 17 0
BBX 14 21 2 0
BITMAP
01E0
03C0
0380
0780
0700
0000
0000
FF80
FF80
FF80
0780
0780
0780
0780
0780
0780
0780
0780
FFFC
FFFC
FFFC
ENDCHAR
STARTCHAR 00EE
ENCODING 238
SWIDTH 612 0
DWIDTH 17 0
BBX 14 21 2 0
BITMAP
0780
0FC0
1FE0
1CE0
3870
0000
0000
FF80
FF80
FF80
0780
0780
0780
0780
0780
0780
0780
0780
FFFC
FFFC
FFFC
ENDCHAR
STARTCHAR 00EF
ENCODING 239
SWIDTH 612 0
DWIDTH 17 0
BBX 14 20 2 0
BITMAP
3870
3870
3870
0000
0000
0000
FF80
FF80
FF80
0780
0780
0780
0780
0780
0780
0780
0780
FFFC
FFFC
FFFC
ENDCHAR
STARTCHAR 00F0
ENCODING 240
SWIDTH 612 0
DWIDTH 17 0
BBX 15 20 1 0
BITMAP
3CC0
1FE0
0F80
3FC0
11E0
01F0
1FF8
3FF8
7EFC
783C
F83C
F83E
F83E
F83E
F83E
F83C
787C
7FF8
3FF8
0FE0
ENDCHAR
STARTCHAR 00F1
ENCODING 241
SWIDTH 612 0
DWIDTH 17 0
BBX 13 21 2 0
BITMAP
1C30
3E30
7FF0
63E0
6080
0000
0000
F7E0
FFF0
FFF8
F8F8
F0F8
F078
F078
F078
F078
F078
F078
F078
F078
F078
ENDCHAR
STARTCHAR 00F2
ENCODING 242
SWIDTH 612 0
DWIDTH 17 0
BBX 15 21 1 0
BITMAP
1E00
0F00
0700
0380
0380
0000
0000
1FE0
3FF8
7CF8
787C
F83C
F83C
F83E
F83E
F83C
F83C
787C
7FF8
3FF0
0FE0
ENDCHAR
STARTCHAR 00F3
ENCODING 243
SWIDTH 612 0
DWIDTH 17 0
BBX 15 21 1 0
BITMAP
01E0
01C0
03C0
0380
0700
0000
0000
1FE0
3FF8
7CF8
787C
F83C
F83C
F83E
F83E
F83C
F83C
787C
7FF8
3FF0
0FE0
ENDCHAR
STARTCHAR 00F4
ENCODING 244
SWIDTH 612 0
DWIDTH 17 0
BBX 15 21 1 0
BITMAP
07C0
0FC0
0EE0
1CF0
3878
0000
0000
1FE0
3FF8
7CF8
787C
F83C
F83C
F83E
F83E
F83C
F83C
787C
7FF8
3FF0
0FE0
ENDCHAR
STARTCHAR 00F5
ENCODING 245
SWIDTH 612 0
DWIDTH 17 0
BBX 15 21 1 0
BITMAP
0C18
1F38
3FF0
31F0
3040
0000
0000
1FE0
3FF8
7CF8
787C
F83C
F83C
F83E
F83E
F83C
F83C
787C
7FF8
3FF0
0FE0
ENDCHAR
STARTCHAR 00F6
ENCODING 246
SWIDTH 612 0
DWIDTH 17 0
BBX 15 20 1 0
BITMAP
3C70
3C70
3C70
0000
0000
0000
1FE0
3FF8
7CF8
787C
F83C
F83C
F83E
F83E
F83C
F83C
787C
7FF8
3FF0
0FE0
ENDCHAR
STARTCHAR 00F7
ENCODING 247
SWIDTH 612 0
DWIDTH 17 0
BBX 14 12 1 1
BITMAP
0380
0380
0380
0000
FFFC
FFFC
FFFC
0000
0000
0380
0380
0380
ENDCHAR
STARTCHAR 00F8
ENCODING 248
SWIDTH 612 0
DWIDTH 17 0
BBX 15 17 1 -1
BITMAP
001C
0018
1FF0
3FF8
7CF8
78FC
F8FC
F9BC
FBBE
FB3E
FE3C
FE3C
7C7C
7FF8
3FF0
3FE0
7000
ENDCHAR
STARTCHAR 00F9
ENCODING 249
SWIDTH 612 0
DWIDTH 17 0
BBX 14 21 2 0
BITMAP
3C00
1E00
0E00
0F00
0700
0000
0000
F0F8
F0F8
F0F8
F0F8
F0F8
F0F8
F0F8
F0F8
F0F8
F0F8
F8F8
FFFC
FFFC
7F7C
ENDCHAR
STARTCHAR 00FA
ENCODING 250
SWIDTH 612 0
DWIDTH 17 0
BBX 14 21 2 0
BITMAP
03C0
0380
0700
0700
0E00
0000
0000
F0F8
F0F8
F0F8
F0F8
F0F8
F0F8
F0F8
F0F8
F0F8
F0F8
F8F8
FFFC
FFFC
7F7C
ENDCHAR
STARTCHAR 00FB
ENCODING 251
SWIDTH 612 0
DWIDTH 17 0
BBX 14 21 2 0
BITMAP
0F00
1F80
3DC0
39E0
70F0
0000
0000
F0F8
F0F8
F0F8
F0F8
F0F8
F0F8
F0F8
F0F8
F0F8
F0F8
F8F8
FFFC
FFFC
7F7C
ENDCHAR
STARTCHAR 00FC
ENCODING 252
SWIDTH 612 0
DWIDTH 17 0
BBX 14 20 2 0
BITMAP
78E0
78E0
78E0
0000
0000
0000
F0F8
F0F8
F0F8
F0F8
F0F8
F0F8
F0F8
F0F8
F0F8
F0F8
F8F8
FFFC
FFFC
7F7C
ENDCHAR
STARTCHAR 00FD
ENCODING 253
SWIDTH 612 0
DWIDTH 17 0
BBX 15 26 1 -5
BITMAP
00F0
01E0
01C0
0380
0780
0000
0000
F83E
783C
7C3C
7C78
3C78
3E78
1EF0
1EF0
1FE0
0FE0
0FE0
0FC0
07C0
07C0
0780
0F80
7F00
7E00
7C00
ENDCHAR
STARTCHAR 00FE
ENCODING 254
SWIDTH 612 0
DWIDTH 17 0
BBX 14 25 2 -5
BITMAP
F000
F000
F000
F000
F000
F000
F7E0
FFF0
FDF8
F878
F078
F07C
F07C
F07C
F07C
F078
F878
FFF8
FFF0
F7E0
F000
F000
F000
F000
F000
ENDCHAR
STARTCHAR 00FF
ENCODING 255
SWIDTH 612 0
DWIDTH 17 0
BBX 15 25 1 -5
BITMAP
1C78
1C78
1C78
0000
0000
0000
F83E
783C
7C3C
7C78
3C78
3E78
1EF0
1EF0
1FE0
0FE0
0FE0
0FC0
07C0
07C0
0780
0F80
7F00
7E00
7C00
ENDCHAR
STARTCHAR 0100
ENCODING 256
SWIDTH 612 0
DWIDTH 17 0
BBX 17 24 0 0
BITMAP
0FF800
0FF800
000000
000000
000000
07E000
07F000
07F000
0FF000
0FF000
0F7800
0E7800
1E7800
1E7C00
1E3C00
1E3C00
3C3C00
3FFE00
3FFE00
7FFE00
781F00
781F00
780F00
F80F80
ENDCHAR
STARTCHAR 0101
ENCODING 257
SWIDTH 612 0
DWIDTH 17 0
BBX 15 19 1 0
BITMAP
3FF0
3FF0
0000
0000
0000
1FF0
3FF8
7CF8
7878
0078
03F8
3FF8
7FF8
7878
F878
F878
7FFE
7FBE
3F3E
ENDCHAR
STARTCHAR 0102
ENCODING 258
SWIDTH 612 0
DWIDTH 17 0
BBX 17 25 0 0
BITMAP
0C1800
0E3800
0FF000
07E000
000000
000000
07E000
07F000
07F000
0FF000
0FF000
0F7800
0E7800
1E7800
1E7C00
1E3C00
1E3C00
3C3C00
3FFE00
3FFE00
7FFE00
781F00
781F00
780F00
F80F80
ENDCHAR
STARTCHAR 0103
ENCODING 259
SWIDTH 612 0
DWIDTH 17 0
BBX 15 21 1 0
BITMAP
3030
3870
1FF0
1FE0
0780
0000
0000
1FF0
3FF8
7CF8
7878
0078
03F8
3FF8
7FF8
7878
F878
F878
7FFE
7FBE
3F3E
ENDCHAR
STARTCHAR 0104
ENCODING 260
SWIDTH 612 0
DWIDTH 17 0
BBX 17 23 0 -4
BITMAP
07E000
07F000
07F000
0FF000
0FF000
0F7800
0E7800
1E7800
1E7C00
1E3C00
1E3C00
3C3C00
3FFE00
3FFE00
7FFE00
781F00
781F00
780F00
F80F80
000E00
001C00
001F80
000F80
ENDCHAR
STARTCHAR 0105
ENCODING 261
SWIDTH 612 0
DWIDTH 17 0
BBX 16 18 1 -4
BITMAP
1FF0
3FF8
7CF8
7878
0078
03F8
3FF8
7FF8
7878
F878
F878
7FFE
7FBE
3F3E
001C
0038
003F
001F
ENDCHAR
STARTCHAR 0106
ENCODING 262
SWIDTH 612 0
DWIDTH 17 0
BBX 16 25 0 0
BITMAP
0078
00F0
00E0
01C0
0000
0000
0FF0
1FFC
3FFC
7E3E
7C1E
781F
781F
F81F
F800
F800
F800
F81F
781F
781F
7C1E
7E3E
3FFC
1FF8
0FF0
ENDCHAR
STARTCHAR 0107
ENCODING 263
SWIDTH 612 0
DWIDTH 17 0
BBX 14 21 1 0
BITMAP
01E0
01C0
03C0
0380
0700
0000
0000
1FE0
3FF0
7CF8
7838
F83C
F800
F800
F800
F83C
F83C
7838
7FF8
3FF0
0FE0
ENDCHAR
STARTCHAR 0108
ENCODING 264
SWIDTH 612 0
DWIDTH 17 0
BBX 16 25 0 0
BITMAP
03C0
07E0
0F70
1E38
0004
0000
0FF0
1FFC
3FFC
7E3E
7C1E
781F
781F
F81F
F800
F800
F800
F81F
781F
781F
7C1E
7E3E
3FFC
1FF8
0FF0
ENDCHAR
STARTCHAR 0109
ENCODING 265
SWIDTH 612 0
DWIDTH 17 0
BBX 14 21 1 0
BITMAP
0780
0FC0
0EE0
1CF0
3878
0000
0000
1FE0
3FF0
7CF8
7838
F83C
F800
F800
F800
F83C
F83C
7838
7FF8
3FF0
0FE0
ENDCHAR
STARTCHAR 010A
ENCODING 266
SWIDTH 612 0
DWIDTH 17 0
BBX 16 24 0 0
BITMAP
01C0
01C0
01C0
0000
0000
0FF0
1FFC
3FFC
7E3E
7C1E
781F
781F
F81F
F800
F800
F800
F81F
781F
781F
7C1E
7E3E
3FFC
1FF8
0FF0
ENDCHAR
STARTCHAR 010B
ENCODING 267
SWIDTH 612 0
DWIDTH 17 0
BBX 14 20 1 0
BITMAP
0380
0380
0380
0000
0000
0000
1FE0
3FF0
7CF8
7838
F83C
F800
F800
F800
F83C
F83C
7838
7FF8
3FF0
0FE0
ENDCHAR
STARTCHAR 010C
ENCODING 268
SWIDTH 612 0
DWIDTH 17 0
BBX 16 25 0 0
BITMAP
1C3C
0E78
0770
03E0
0000
0000
0FF0
1FFC
3FFC
7E3E
7C1E
781F
781F
F81F
F800
F800
F800
F81F
781F
781F
7C1E
7E3E
3FFC
1FF8
0FF0
ENDCHAR
STARTCHAR 010D
ENCODING 269
SWIDTH 612 0
DWIDTH 17 0
BBX 14 21 1 0
BITMAP
3C78
1CE0
0FE0
07C0
0780
0000
0000
1FE0
3FF0
7CF8
7838
F83C
F800
F800
F800
F83C
F83C
7838
7FF8
3FF0
0FE0
ENDCHAR
STARTCHAR 010E
ENCODING 270
SWIDTH 612 0
DWIDTH 17 0
BBX 15 25 1 0
BITMAP
3878
1CF0
0EE0
07C0
0000
0000
FFE0
FFF8
FFFC
F8FE
F83E
F81E
F81E
F81E
F81E
F81E
F81E
F81E
F81E
F81E
F83E
FFFE
FFFC
FFF8
FFE0
ENDCHAR
STARTCHAR 010F
ENCODING 271
SWIDTH 612 0
DWIDTH 17 0
BBX 19 20 1 0
BITMAP
007C00
007DE0
007DE0
007DE0
007DE0
007C60
1FFC60
3FFCC0
7CFDC0
787C00
F87C00
F07C00
F07C00
F07C00
F07C00
F87C00
F87C00
7FFC00
3FFC00
1FBC00
ENDCHAR
STARTCHAR 0110
ENCODING 272
SWIDTH 612 0
DWIDTH 17 0
BBX 16 19 0 0
BITMAP
7FF0
7FFC
7FFE
7C7F
7C1F
7C0F
7C0F
7C0F
FFCF
FFCF
FFCF
7C0F
7C0F
7C0F
7C1F
7FFF
7FFE
7FFC
7FF0
ENDCHAR
STARTCHAR 0111
ENCODING 273
SWIDTH 612 0
DWIDTH 17 0
BBX 16 20 1 0
BITMAP
007C
007C
07FF
07FF
007C
007C
1FFC
3FFC
7CFC
787C
F87C
F07C
F07C
F07C
F07C
F87C
F87C
7FFC
3FFC
1FBC
ENDCHAR
STARTCHAR 0112
ENCODING 274
SWIDTH 612 0
DWIDTH 17 0
BBX 13 24 2 0
BITMAP
3FE0
3FE0
0000
0000
0000
FFF8
FFF8
FFF8
F800
F800
F800
F800
F800
FFF0
FFF0
FFF0
F800
F800
F800
F800
FFF8
FFF8
FFF8
FFF8
ENDCHAR
STARTCHAR 0113
ENCODING 275
SWIDTH 612 0
DWIDTH 17 0
BBX 14 19 1 0
BITMAP
1FF0
1FF0
0000
0000
0000
1FF0
3FF8
7EFC
783C
F83C
FFFC
FFFC
FFFC
F800
F83C
783C
7FFC
3FF8
1FE0
ENDCHAR
STARTCHAR 0114
ENCODING 276
SWIDTH 612 0
DWIDTH 17 0
BBX 13 25 2 0
BITMAP
3060
38E0
3FE0
1FC0
0000
0000
FFF8
FFF8
FFF8
F800
F800
F800
F800
F800
FFF0
FFF0
FFF0
F800
F800
F800
F800
FFF8
FFF8
FFF8
FFF8
ENDCHAR
STARTCHAR 0115
ENCODING 277
SWIDTH 612 0
DWIDTH 17 0
BBX 14 21 1 0
BITMAP
3838
1830
1FF0
0FE0
0380
0000
0000
1FF0
3FF8
7EFC
783C
F83C
FFFC
FFFC
FFFC
F800
F83C
783C
7FFC
3FF8
1FE0
ENDCHAR
STARTCHAR 0116
ENCODING 278
SWIDTH 612 0
DWIDTH 17 0
BBX 13 24 2 0
BITMAP
0700
0700
0700
0000
0000
FFF8
FFF8
FFF8
F800
F800
F800
F800
F800
FFF0
FFF0
FFF0
F800
F800
F800
F800
FFF8
FFF8
FFF8
FFF8
ENDCHAR
STARTCHAR 0117
ENCODING 279
SWIDTH 612 0
DWIDTH 17 0
BBX 14 20 1 0
BITMAP
0380
0380
0380
0000
0000
0000
1FF0
3FF8
7EFC
783C
F83C
FFFC
FFFC
FFFC
F800
F83C
783C
7FFC
3FF8
1FE0
ENDCHAR
STARTCHAR 0118
ENCODING 280
SWIDTH 612 0
DWIDTH 17 0
BBX 14 23 2 -4
BITMAP
FFF8
FFF8
FFF8
F800
F800
F800
F800
F800
FFF0
FFF0
FFF0
F800
F800
F800
F800
FFF8
FFF8
FFF8
FFF8
00E0
00E0
00FC
00FC
ENDCHAR
STARTCHAR 0119
ENCODING 281
SWIDTH 612 0
DWIDTH 17 0
BBX 14 18 1 -4
BITMAP
1FF0
3FF8
7EFC
783C
F83C
FFFC
FFFC
FFFC
F800
F83C
783C
7FFC
3FF8
1FE0
0380
0380
03F0
03F0
ENDCHAR
STARTCHAR 011A
ENCODING 282
SWIDTH 612 0
DWIDTH 17 0
BBX 13 25 2 0
BITMAP
7870
3CE0
1DC0
0F80
0000
0000
FFF8
FFF8
FFF8
F800
F800
F800
F800
F800
FFF0
FFF0
FFF0
F800
F800
F800
F800
FFF8
FFF8
FFF8
FFF8
ENDCHAR
STARTCHAR 011B
ENCODING 283
SWIDTH 612 0
DWIDTH 17 0
BBX 14 21 1 0
BITMAP
3C78
1EF0
0EE0
07C0
0380
0000
0000
1FF0
3FF8
7EFC
783C
F83C
FFFC
FFFC
FFFC
F800
F83C
783C
7FFC
3FF8
1FE0
ENDCHAR
STARTCHAR 011C
ENCODING 284
SWIDTH 612 0
DWIDTH 17 0
BBX 16 25 0 0
BITMAP
03C0
07E0
0F70
1E38
0000
0000
0FF0
1FFC
3FFE
7E3E
7C1E
781F
781F
F800
F800
F8FF
F8FF
F8FF
781F
781F
7C1F
7E3F
3FFF
1FF7
0FE7
ENDCHAR
STARTCHAR 011D
ENCODING 285
SWIDTH 612 0
DWIDTH 17 0
BBX 16 26 1 -5
BITMAP
0780
0FC0
1EE0
3C70
0000
0007
000F
1FFE
3FF8
7C7C
783C
783C
7C7C
3FF8
1FF0
7FC0
7800
7C00
7FFC
3FFE
7FFE
F01E
F01E
F03E
FFFE
7FF8
ENDCHAR
STARTCHAR 011E
ENCODING 286
SWIDTH 612 0
DWIDTH 17 0
BBX 16 25 0 0
BITMAP
1C18
0E38
0FF0
07E0
0000
0000
0FF0
1FFC
3FFE
7E3E
7C1E
781F
781F
F800
F800
F8FF
F8FF
F8FF
781F
781F
7C1F
7E3F
3FFF
1FF7
0FE7
ENDCHAR
STARTCHAR 011F
ENCODING 287
SWIDTH 612 0
DWIDTH 17 0
BBX 15 26 1 -5
BITMAP
3830
3870
1FF0
0FE0
078E
000E
001E
1FF8
3FF8
7C7C
783C
783C
7C7C
3FF8
1FF0
7FC0
7800
7C00
7FFC
3FFE
7FFE
F01E
F01E
F03E
FFFE
7FF8
ENDCHAR
STARTCHAR 0120
ENCODING 288
SWIDTH 612 0
DWIDTH 17 0
BBX 16 24 0 0
BITMAP
03C0
03C0
03C0
0000
0000
0FF0
1FFC
3FFE
7E3E
7C1E
781F
781F
F800
F800
F8FF
F8FF
F8FF
781F
781F
7C1F
7E3F
3FFF
1FF7
0FE7
ENDCHAR
STARTCHAR 0121
ENCODING 289
SWIDTH 612 0
DWIDTH 17 0
BBX 15 25 1 -5
BITMAP
0380
0380
0380
000E
000E
001E
1FF8
3FF8
7C7C
783C
783C
7C7C
3FF8
1FF0
7FC0
7800
7C00
7FFC
3FFE
7FFE
F01E
F01E
F03E
FFFE
7FF8
ENDCHAR
STARTCHAR 0122
ENCODING 290
SWIDTH 612 0
DWIDTH 17 0
BBX 16 29 0 -10
BITMAP
0FF0
1FFC
3FFE
7E3E
7C1E
781F
781F
F800
F800
F8FF
F8FF
F8FF
781F
781F
7C1F
7E3F
3FFF
1FF7
0FE7
0000
0000
03C0
03C0
03C0
03C0
00C0
00C0
01C0
0380
ENDCHAR
STARTCHAR 0123
ENCODING 291
SWIDTH 612 0
DWIDTH 17 0
BBX 15 30 1 -5
BITMAP
0180
0300
0300
0300
0780
0780
0780
0780
000E
000E
001E
1FF8
3FF8
7C7C
783C
783C
7C7C
3FF8
1FF0
7FC0
7800
7C00
7FFC
3FFE
7FFE
F01E
F01E
F03E
FFFE
7FF8
ENDCHAR
STARTCHAR 0124
ENCODING 292
SWIDTH 612 0
DWIDTH 17 0
BBX 14 25 1 0
BITMAP
0780
0FC0
1EE0
3C70
0008
0000
F83C
F83C
F83C
F83C
F83C
F83C
F83C
FFFC
FFFC
FFFC
FFFC
F83C
F83C
F83C
F83C
F83C
F83C
F83C
F83C
ENDCHAR
STARTCHAR 0125
ENCODING 293
SWIDTH 612 0
DWIDTH 17 0
BBX 16 25 -1 0
BITMAP
1E00
3F00
7380
F1C0
0000
1E00
1E00
1E00
1E00
1E00
1E00
1EFC
1FFE
1FFF
1F1F
1E1F
1E0F
1E0F
1E0F
1E0F
1E0F
1E0F
1E0F
1E0F
1E0F
ENDCHAR
STARTCHAR 0126
ENCODING 294
SWIDTH 612 0
DWIDTH 17 0
BBX 17 19 0 0
BITMAP
7C1E00
7C1E00
FFFF80
FFFF80
FFFF80
7C1E00
7C1E00
7FFE00
7FFE00
7FFE00
7FFE00
7C1E00
7C1E00
7C1E00
7C1E00
7C1E00
7C1E00
7C1E00
7C1E00
ENDCHAR
STARTCHAR 0127
ENCODING 295
SWIDTH 612 0
DWIDTH 17 0
BBX 15 20 0 0
BITMAP
3C00
3C00
FFE0
FFE0
3C00
3C00
3DF8
3FFC
3FFE
3E3E
3C3E
3C1E
3C1E
3C1E
3C1E
3C1E
3C1E
3C1E
3C1E
3C1E
ENDCHAR
STARTCHAR 0128
ENCODING 296
SWIDTH 612 0
DWIDTH 17 0
BBX 13 25 2 0
BITMAP
1830
3FF0
7FE0
63C0
0000
0000
FFF8
FFF8
FFF8
0F80
0F80
0F80
0F80
0F80
0F80
0F80
0F80
0F80
0F80
0F80
0F80
0F80
FFF8
FFF8
FFF8
ENDCHAR
STARTCHAR 0129
ENCODING 297
SWIDTH 612 0
DWIDTH 17 0
BBX 14 21 2 0
BITMAP
0C18
3F30
3FF0
33F0
6040
0000
0000
FF80
FF80
FF80
0780
0780
0780
0780
0780
0780
0780
0780
FFFC
FFFC
FFFC
ENDCHAR
STARTCHAR 012A
ENCODING 298
SWIDTH 612 0
DWIDTH 17 0
BBX 13 24 2 0
BITMAP
3FE0
3FE0
0000
0000
0000
FFF8
FFF8
FFF8
0F80
0F80
0F80
0F80
0F80
0F80
0F80
0F80
0F80
0F80
0F80
0F80
0F80
FFF8
FFF8
FFF8
ENDCHAR
STARTCHAR 012B
ENCODING 299
SWIDTH 612 0
DWIDTH 17 0
BBX 14 19 2 0
BITMAP
3FF0
3FF0
0000
0000
0000
FF80
FF80
FF80
0780
0780
0780
0780
0780
0780
0780
0780
FFFC
FFFC
FFFC
ENDCHAR
STARTCHAR 012C
ENCODING 300
SWIDTH 612 0
DWIDTH 17 0
BBX 13 25 2 0
BITMAP
3060
38E0
3FC0
1F80
0000
0000
FFF8
FFF8
FFF8
0F80
0F80
0F80
0F80
0F80
0F80
0F80
0F80
0F80
0F80
0F80
0F80
0F80
FFF8
FFF8
FFF8
ENDCHAR
STARTCHAR 012D
ENCODING 301
SWIDTH 612 0
DWIDTH 17 0
BBX 14 21 2 0
BITMAP
3030
3870
3FE0
1FE0
0780
0000
0000
FF80
FF80
FF80
0780
0780
0780
0780
0780
0780
0780
0780
FFFC
FFFC
FFFC
ENDCHAR
STARTCHAR 012E
ENCODING 302
SWIDTH 612 0
DWIDTH 17 0
BBX 13 23 2 -4
BITMAP
FFF8
FFF8
FFF8
0F80
0F80
0F80
0F80
0F80
0F80
0F80
0F80
0F80
0F80
0F80
0F80
0F80
FFF8
FFF8
FFF8
01C0
0380
03D8
01F0
ENDCHAR
STARTCHAR 012F
ENCODING 303
SWIDTH 612 0
DWIDTH 17 0
BBX 14 24 2 -4
BITMAP
0780
0780
0780
0000
0000
0000
FF80
FF80
FF80
0780
0780
0780
0780
0780
0780
0780
0780
FFFC
FFFC
FFFC
0380
0700
07E0
03E0
ENDCHAR
STARTCHAR 0130
ENCODING 304
SWIDTH 612 0
DWIDTH 17 0
BBX 13 24 2 0
BITMAP
0700
0700
0700
0000
0000
FFF8
FFF8
FFF8
0F80
0F80
0F80
0F80
0F80
0F80
0F80
0F80
0F80
0F80
0F80
0F80
0F80
FFF8
FFF8
FFF8
ENDCHAR
STARTCHAR 0131
ENCODING 305
SWIDTH 612 0
DWIDTH 17 0
BBX 14 14 2 0
BITMAP
FF80
FF80
FF80
0780
0780
0780
0780
0780
0780
0780
0780
FFFC
FFFC
FFFC
ENDCHAR
STARTCHAR 0132
ENCODING 306
SWIDTH 612 0
DWIDTH 17 0
BBX 14 19 1 0
BITMAP
F83C
F83C
F83C
F83C
F83C
F83C
F83C
F83C
F83C
F83C
F83C
F83C
003C
F83C
783C
7C7C
7FFC
3FF8
1FF0
ENDCHAR
STARTCHAR 0133
ENCODING 307
SWIDTH 612 0
DWIDTH 17 0
BBX 13 25 2 -5
BITMAP
F0F8
F0F8
F0F8
F0F8
0000
0000
F3F8
F3F8
F3F8
F0F8
F0F8
F0F8
F0F8
F0F8
F0F8
F0F8
F0F8
F0F8
F0F8
F0F8
00F8
00F8
0FF0
0FF0
0FE0
ENDCHAR
STARTCHAR 0134
ENCODING 308
SWIDTH 612 0
DWIDTH 17 0
BBX 16 25 2 0
BITMAP
00F8
01F8
01DC
078E
0001
0000
00F8
00F8
00F8
00F8
00F8
00F8
00F8
00F8
00F8
00F8
00F8
00F8
00F8
F0F8
F0F8
F9F0
7FF0
7FE0
1FC0
ENDCHAR
STARTCHAR 0135
ENCODING 309
SWIDTH 612 0
DWIDTH 17 0
BBX 13 26 2 -5
BITMAP
0780
0FC0
1EE0
1CF0
3878
0000
0000
FF80
FF80
FF80
0780
0780
0780
0780
0780
0780
0780
0780
0780
0780
0780
0780
0780
FF80
FF00
7E00
ENDCHAR
STARTCHAR 0136
ENCODING 310
SWIDTH 612 0
DWIDTH 17 0
BBX 16 29 1 -10
BITMAP
F83E
F83C
F87C
F8F8
F8F8
F9F0
F9F0
FBE0
FFC0
FFC0
FFE0
FFE0
FDF0
F9F0
F8F8
F8FC
F87C
F83E
F83E
0001
0000
0780
0780
0780
0780
0180
0180
0380
0700
ENDCHAR
STARTCHAR 0137
ENCODING 311
SWIDTH 612 0
DWIDTH 17 0
BBX 14 30 2 -10
BITMAP
F000
F000
F000
F000
F000
F000
F0FC
F0F8
F1F0
F3E0
F7C0
F780
FF80
FFC0
FFC0
FBE0
F3F0
F1F0
F0F8
F07C
0000
0000
0F00
0F00
0F00
0F00
0300
0300
0600
0E00
ENDCHAR
STARTCHAR 0138
ENCODING 312
SWIDTH 612 0
DWIDTH 17 0
BBX 14 14 2 0
BITMAP
F0FC
F0F8
F1F0
F3E0
F7C0
F780
FF80
FFC0
FFC0
FBE0
F3F0
F1F0
F0F8
F07C
ENDCHAR
STARTCHAR 0139
ENCODING 313
SWIDTH 612 0
DWIDTH 17 0
BBX 13 25 2 0
BITMAP
1F00
1E00
3C00
7800
0000
0000
F800
F800
F800
F800
F800
F800
F800
F800
F800
F800
F800
F800
F800
F800
F800
FFF8
FFF8
FFF8
FFF8
ENDCHAR
STARTCHAR 013A
ENCODING 314
SWIDTH 612 0
DWIDTH 17 0
BBX 13 25 2 0
BITMAP
01E0
03C0
0380
0700
0000
FF80
FF80
FF80
0F80
0F80
0F80
0F80
0F80
0F80
0F80
0F80
0F80
0F80
0F80
0F80
0F80
0F80
FFF8
FFF8
FFF8
ENDCHAR
STARTCHAR 013B
ENCODING 315
SWIDTH 612 0
DWIDTH 17 0
BBX 13 29 2 -10
BITMAP
F800
F800
F800
F800
F800
F800
F800
F800
F800
F800
F800
F800
F800
F800
F800
FFF8
FFF8
FFF8
FFF8
0000
0000
0780
0780
0780
0780
0180
0300
0300
0700
ENDCHAR
STARTCHAR 013C
ENCODING 316
SWIDTH 612 0
DWIDTH 17 0
BBX 13 30 2 -10
BITMAP
FF80
FF80
FF80
0F80
0F80
0F80
0F80
0F80
0F80
0F80
0F80
0F80
0F80
0F80
0F80
0F80
0F80
FFF8
FFF8
FFF8
0000
0000
0F00
0F00
0F00
0F00
0300
0300
0700
0E00
ENDCHAR
STARTCHAR 013D
ENCODING 317
SWIDTH 612 0
DWIDTH 17 0
BBX 13 19 2 0
BITMAP
F870
F870
F870
F870
F830
F830
F860
F860
F800
F800
F800
F800
F800
F800
F800
FFF8
FFF8
FFF8
FFF8
ENDCHAR
STARTCHAR 013E
ENCODING 318
SWIDTH 612 0
DWIDTH 17 0
BBX 14 20 2 0
BITMAP
FF80
FFBC
FFBC
0FBC
0FBC
0F8C
0F8C
0F98
0FB8
0F80
0F80
0F80
0F80
0F80
0F80
0F80
0F80
FFF8
FFF8
FFF8
ENDCHAR
STARTCHAR 013F
ENCODING 319
SWIDTH 612 0
DWIDTH 17 0
BBX 13 19 2 0
BITMAP
F800
F800
F800
F800
F800
F800
F8F0
F8F0
F8F0
F8F0
F800
F800
F800
F800
F800
FFF8
FFF8
FFF8
FFF8
ENDCHAR
STARTCHAR 0140
ENCODING 320
SWIDTH 612 0
DWIDTH 17 0
BBX 17 20 2 0
BITMAP
FF8000
FF8000
FF8000
0F8000
0F8000
0F8000
0F8000
0F8780
0F8780
0F8780
0F8780
0F8780
0F8000
0F8000
0F8000
0F8000
0F8000
FFF800
FFF800
FFF800
ENDCHAR
STARTCHAR 0141
ENCODING 321
SWIDTH 612 0
DWIDTH 17 0
BBX 14 19 1 0
BITMAP
7C00
7C00
7C00
7C00
7C00
7C40
7D80
7F80
7F00
7C00
FC00
FC00
FC00
7C00
7C00
7FFC
7FFC
7FFC
7FFC
ENDCHAR
STARTCHAR 0142
ENCODING 322
SWIDTH 612 0
DWIDTH 17 0
BBX 13 20 2 0
BITMAP
FF80
FF80
FF80
0F80
0F80
0F80
0F90
0FF0
0FE0
0F80
1F80
7F80
6F80
4F80
0F80
0F80
0F80
FFF8
FFF8
FFF8
ENDCHAR
STARTCHAR 0143
ENCODING 323
SWIDTH 612 0
DWIDTH 17 0
BBX 14 25 1 0
BITMAP
00F0
01E0
01C0
0380
0000
0000
F83C
FC3C
FC3C
FE3C
FE3C
FE3C
FF3C
FF3C
FFBC
FFBC
FBFC
FBFC
F9FC
F9FC
F8FC
F8FC
F87C
F87C
F83C
ENDCHAR
STARTCHAR 0144
ENCODING 324
SWIDTH 612 0
DWIDTH 17 0
BBX 13 21 2 0
BITMAP
03C0
0380
0780
0700
0E00
0000
0000
F7E0
FFF0
FFF8
F8F8
F0F8
F078
F078
F078
F078
F078
F078
F078
F078
F078
ENDCHAR
STARTCHAR 0145
ENCODING 325
SWIDTH 612 0
DWIDTH 17 0
BBX 14 29 1 -10
BITMAP
F83C
FC3C
FC3C
FE3C
FE3C
FE3C
FF3C
FF3C
FFBC
FFBC
FBFC
FBFC
F9FC
F9FC
F8FC
F8FC
F87C
F87C
F83C
0000
0000
0780
0780
0780
0780
0180
0180
0380
0700
ENDCHAR
STARTCHAR 0146
ENCODING 326
SWIDTH 612 0
DWIDTH 17 0
BBX 13 24 2 -10
BITMAP
F7E0
FFF0
FFF8
F8F8
F0F8
F078
F078
F078
F078
F078
F078
F078
F078
F078
0000
0000
0F00
0F00
0F00
0F00
0300
0300
0300
0E00
ENDCHAR
STARTCHAR 0147
ENCODING 327
SWIDTH 612 0
DWIDTH 17 0
BBX 14 25 1 0
BITMAP
3878
1CF0
0EE0
07C0
0000
0000
F83C
FC3C
FC3C
FE3C
FE3C
FE3C
FF3C
FF3C
FFBC
FFBC
FBFC
FBFC
F9FC
F9FC
F8FC
F8FC
F87C
F87C
F83C
ENDCHAR
STARTCHAR 0148
ENCODING 328
SWIDTH 612 0
DWIDTH 17 0
BBX 13 21 2 0
BITMAP
78F0
39E0
1DC0
0F80
0F00
0000
0000
F7E0
FFF0
FFF8
F8F8
F0F8
F078
F078
F078
F078
F078
F078
F078
F078
F078
ENDCHAR
STARTCHAR 0149
ENCODING 329
SWIDTH 612 0
DWIDTH 17 0
BBX 14 23 1 0
BITMAP
E000
E000
E000
E000
6000
6000
C000
C000
0000
7BF0
7FF8
7FFC
7C7C
787C
783C
783C
783C
783C
783C
783C
783C
783C
783C
ENDCHAR
STARTCHAR 014A
ENCODING 330
SWIDTH 612 0
DWIDTH 17 0
BBX 14 24 1 -5
BITMAP
F83C
FC3C
FC3C
FE3C
FE3C
FE3C
FF3C
FF3C
FFBC
FFBC
FBFC
FBFC
F9FC
F9FC
F8FC
F8FC
F87C
F87C
F83C
003C
003C
03FC
03FC
03F0
ENDCHAR
STARTCHAR 014B
ENCODING 331
SWIDTH 612 0
DWIDTH 17 0
BBX 13 19 2 -5
BITMAP
F7E0
FFF0
FFF8
F8F8
F0F8
F078
F078
F078
F078
F078
F078
F078
F078
F078
0078
00F8
07F8
07F0
07E0
ENDCHAR
STARTCHAR 014C
ENCODING 332
SWIDTH 612 0
DWIDTH 17 0
BBX 16 24 0 0
BITMAP
0FF8
0FF8
0000
0000
0000
0FF0
1FFC
3FFE
7E3E
7C1F
781F
781F
F81F
F81F
F81F
F81F
F81F
781F
781F
7C1F
7E3E
3FFE
1FFC
0FF0
ENDCHAR
STARTCHAR 014D
ENCODING 333
SWIDTH 612 0
DWIDTH 17 0
BBX 15 19 1 0
BITMAP
1FF0
1FF0
0000
0000
0000
1FE0
3FF8
7CF8
787C
F83C
F83C
F83E
F83E
F83C
F83C
787C
7FF8
3FF0
0FE0
ENDCHAR
STARTCHAR 014E
ENCODING 334
SWIDTH 612 0
DWIDTH 17 0
BBX 16 25 0 0
BITMAP
0C18
0E38
0FF0
07E0
0000
0000
0FF0
1FFC
3FFE
7E3E
7C1F
781F
781F
F81F
F81F
F81F
F81F
F81F
781F
781F
7C1F
7E3E
3FFE
1FFC
0FF0
ENDCHAR
STARTCHAR 014F
ENCODING 335
SWIDTH 612 0
DWIDTH 17 0
BBX 15 21 1 0
BITMAP
3830
3870
1FF0
0FE0
0780
0000
0000
1FE0
3FF8
7CF8
787C
F83C
F83C
F83E
F83E
F83C
F83C
787C
7FF8
3FF0
0FE0
ENDCHAR
STARTCHAR 0150
ENCODING 336
SWIDTH 612 0
DWIDTH 17 0
BBX 16 25 0 0
BITMAP
03CF
039E
073C
0E78
0000
0000
0FF0
1FFC
3FFE
7E3E
7C1F
781F
781F
F81F
F81F
F81F
F81F
F81F
781F
781F
7C1F
7E3E
3FFE
1FFC
0FF0
ENDCHAR
STARTCHAR 0151
ENCODING 337
SWIDTH 612 0
DWIDTH 17 0
BBX 15 20 1 0
BITMAP
07BE
0F38
1E70
1CE0
0000
0000
1FE0
3FF8
7CF8
787C
F83C
F83C
F83E
F83E
F83C
F83C
787C
7FF8
3FF0
0FE0
ENDCHAR
STARTCHAR 0152
ENCODING 338
SWIDTH 612 0
DWIDTH 17 0
BBX 17 19 0 0
BITMAP
0FFF00
1FFF00
3FFF00
7EF000
78F000
78F000
F0F000
F0F000
F0FE00
F0FE00
F0FE00
F0F000
F0F000
78F000
78F000
7FFF00
3FFF00
1FFF00
0FFF80
ENDCHAR
STARTCHAR 0153
ENCODING 339
SWIDTH 612 0
DWIDTH 17 0
BBX 16 14 0 0
BITMAP
3F7E
7FFE
73E7
F3C7
E1C7
E1FF
E1FF
E1C0
E1C0
E3C7
F3E7
7FFF
7FFF
3E7E
ENDCHAR
STARTCHAR 0154
ENCODING 340
SWIDTH 612 0
DWIDTH 17 0
BBX 16 25 1 0
BITMAP
00F0
01E0
01C0
0380
0000
0000
FFF0
FFFC
FFFE
F87E
F83E
F81E
F81E
F83E
FFFC
FFF0
FFF8
FFFC
F87C
F83E
F83E
F83E
F83E
F83F
F81F
ENDCHAR
STARTCHAR 0155
ENCODING 341
SWIDTH 612 0
DWIDTH 17 0
BBX 15 21 1 0
BITMAP
00F0
01E0
01C0
0380
0380
0000
0000
FEFC
FFFC
FFFE
1F1E
1F1E
1F00
1F00
1F00
1F00
1F00
1F00
FFF8
FFF8
FFF8
ENDCHAR
STARTCHAR 0156
ENCODING 342
SWIDTH 612 0
DWIDTH 17 0
BBX 16 29 1 -10
BITMAP
FFF0
FFFC
FFFE
F87E
F83E
F81E
F81E
F83E
FFFC
FFF0
FFF8
FFFC
F87C
F83E
F83E
F83E
F83E
F83F
F81F
0000
0000
03C0
03C0
03C0
03C0
0180
0180
0180
0300
ENDCHAR
STARTCHAR 0157
ENCODING 343
SWIDTH 612 0
DWIDTH 17 0
BBX 15 24 1 -10
BITMAP
FEFC
FFFC
FFFE
1F1E
1F1E
1F00
1F00
1F00
1F00
1F00
1F00
FFF8
FFF8
FFF8
0000
0000
0780
0780
0780
0780
0380
0300
0300
0700
ENDCHAR
STARTCHAR 0158
ENCODING 344
SWIDTH 612 0
DWIDTH 17 0
BBX 16 25 1 0
BITMAP
3878
1CF0
0EE0
07C0
0000
0000
FFF0
FFFC
FFFE
F87E
F83E
F81E
F81E
F83E
FFFC
FFF0
FFF8
FFFC
F87C
F83E
F83E
F83E
F83E
F83F
F81F
ENDCHAR
STARTCHAR 0159
ENCODING 345
SWIDTH 612 0
DWIDTH 17 0
BBX 15 21 1 0
BITMAP
3C78
1E70
0EE0
07C0
03C0
0000
0000
FEFC
FFFC
FFFE
1F1E
1F1E
1F00
1F00
1F00
1F00
1F00
1F00
FFF8
FFF8
FFF8
ENDCHAR
STARTCHAR 015A
ENCODING 346
SWIDTH 612 0
DWIDTH 17 0
BBX 15 25 1 0
BITMAP
00F0
01E0
01C0
0380
0000
0000
1FF0
3FF8
7FFC
F87C
F83E
F83E
FC00
FFC0
7FF0
3FFC
0FFE
01FE
003E
F03E
F03E
FC7E
FFFC
7FF8
1FF0
ENDCHAR
STARTCHAR 015B
ENCODING 347
SWIDTH 612 0
DWIDTH 17 0
BBX 13 21 2 0
BITMAP
03C0
0380
0780
0700
0E00
0000
0000
3FE0
7FF0
F8F0
F078
F800
FFC0
7FF0
3FF8
03F8
E078
F078
FFF8
7FF0
3FE0
ENDCHAR
STARTCHAR 015C
ENCODING 348
SWIDTH 612 0
DWIDTH 17 0
BBX 15 25 1 0
BITMAP
0780
0FC0
1EE0
3C70
0008
0000
1FF0
3FF8
7FFC
F87C
F83E
F83E
FC00
FFC0
7FF0
3FFC
0FFE
01FE
003E
F03E
F03E
FC7E
FFFC
7FF8
1FF0
ENDCHAR
STARTCHAR 015D
ENCODING 349
SWIDTH 612 0
DWIDTH 17 0
BBX 13 21 2 0
BITMAP
0F80
1F80
1DC0
39E0
70F0
0000
0000
3FE0
7FF0
F8F0
F078
F800
FFC0
7FF0
3FF8
03F8
E078
F078
FFF8
7FF0
3FE0
ENDCHAR
STARTCHAR 015E
ENCODING 350
SWIDTH 612 0
DWIDTH 17 0
BBX 15 25 1 -6
BITMAP
1FF0
3FF8
7FFC
F87C
F83E
F83E
FC00
FFC0
7FF0
3FFC
0FFE
01FE
003E
F03E
F03E
FC7E
FFFC
7FF8
1FF0
0000
01C0
00C0
00E0
0FC0
0780
ENDCHAR
STARTCHAR 015F
ENCODING 351
SWIDTH 612 0
DWIDTH 17 0
BBX 13 20 2 -6
BITMAP
3FE0
7FF0
F8F0
F078
F800
FFC0
7FF0
3FF8
03F8
E078
F078
FFF8
7FF0
3FE0
0000
0380
0180
01C0
1F80
0F00
ENDCHAR
STARTCHAR 0160
ENCODING 352
SWIDTH 612 0
DWIDTH 17 0
BBX 15 25 1 0
BITMAP
3878
1CF0
0EE0
07C0
0000
0000
1FF0
3FF8
7FFC
F87C
F83E
F83E
FC00
FFC0
7FF0
3FFC
0FFE
01FE
003E
F03E
F03E
FC7E
FFFC
7FF8
1FF0
ENDCHAR
STARTCHAR 0161
ENCODING 353
SWIDTH 612 0
DWIDTH 17 0
BBX 13 21 2 0
BITMAP
78F0
39C0
1DC0
0F80
0F00
0000
0000
3FE0
7FF0
F8F0
F078
F800
FFC0
7FF0
3FF8
03F8
E078
F078
FFF8
7FF0
3FE0
ENDCHAR
STARTCHAR 0162
ENCODING 354
SWIDTH 612 0
DWIDTH 17 0
BBX 15 25 1 -6
BITMAP
FFFE
FFFE
FFFE
FFFE
07C0
07C0
07C0
07C0
07C0
07C0
07C0
07C0
07C0
07C0
07C0
07C0
07C0
07C0
07C0
0000
01C0
00C0
00E0
0FC0
0780
ENDCHAR
STARTCHAR 0163
ENCODING 355
SWIDTH 612 0
DWIDTH 17 0
BBX 14 25 1 -6
BITMAP
0700
0700
0700
0F00
0F00
FFFC
FFFC
FFFC
0F00
0F00
0F00
0F00
0F00
0F00
0F00
0F84
0FFC
07FC
03FC
0000
00E0
0070
0030
03F0
01C0
ENDCHAR
STARTCHAR 0164
ENCODING 356
SWIDTH 612 0
DWIDTH 17 0
BBX 15 25 1 0
BITMAP
3878
1CF0
0EE0
07C0
0000
0000
FFFE
FFFE
FFFE
FFFE
07C0
07C0
07C0
07C0
07C0
07C0
07C0
07C0
07C0
07C0
07C0
07C0
07C0
07C0
07C0
ENDCHAR
STARTCHAR 0165
ENCODING 357
SWIDTH 612 0
DWIDTH 17 0
BBX 14 23 1 0
BITMAP
003C
003C
003C
003C
070C
0718
0718
0F30
0F00
FFFC
FFFC
FFFC
0F00
0F00
0F00
0F00
0F00
0F00
0F00
0F84
0FFC
07FC
03FC
ENDCHAR
STARTCHAR 0166
ENCODING 358
SWIDTH 612 0
DWIDTH 17 0
BBX 15 19 1 0
BITMAP
FFFE
FFFE
FFFE
FFFE
07C0
07C0
07C0
07C0
07C0
3FF8
3FF8
3FF8
07C0
07C0
07C0
07C0
07C0
07C0
07C0
ENDCHAR
STARTCHAR 0167
ENCODING 359
SWIDTH 612 0
DWIDTH 17 0
BBX 14 19 1 0
BITMAP
0700
0700
0700
0F00
0F00
FFFC
FFFC
FFFC
0F00
0F00
0F00
7FF8
7FF8
7FF8
0F00
0F84
0FFC
07FC
03FC
ENDCHAR
STARTCHAR 0168
ENCODING 360
SWIDTH 612 0
DWIDTH 17 0
BBX 14 25 1 0
BITMAP
0C18
1FF8
3FF0
31E0
0000
0000
F83C
F83C
F83C
F83C
F83C
F83C
F83C
F83C
F83C
F83C
F83C
F83C
F83C
F83C
F83C
7C7C
7FFC
3FF8
1FF0
ENDCHAR
STARTCHAR 0169
ENCODING 361
SWIDTH 612 0
DWIDTH 17 0
BBX 14 21 2 0
BITMAP
1830
3E70
7FE0
67E0
6180
0000
0000
F0F8
F0F8
F0F8
F0F8
F0F8
F0F8
F0F8
F0F8
F0F8
F0F8
F8F8
FFFC
FFFC
7F7C
ENDCHAR
STARTCHAR 016A
ENCODING 362
SWIDTH 612 0
DWIDTH 17 0
BBX 14 24 1 0
BITMAP
1FF0
1FF0
0000
0000
0000
F83C
F83C
F83C
F83C
F83C
F83C
F83C
F83C
F83C
F83C
F83C
F83C
F83C
F83C
F83C
7C7C
7FFC
3FF8
1FF0
ENDCHAR
STARTCHAR 016B
ENCODING 363
SWIDTH 612 0
DWIDTH 17 0
BBX 14 19 2 0
BITMAP
7FE0
7FE0
0000
0000
0000
F0F8
F0F8
F0F8
F0F8
F0F8
F0F8
F0F8
F0F8
F0F8
F0F8
F8F8
FFFC
FFFC
7F7C
ENDCHAR
STARTCHAR 016C
ENCODING 364
SWIDTH 612 0
DWIDTH 17 0
BBX 14 25 1 0
BITMAP
1830
1C70
1FE0
0FC0
0000
0000
F83C
F83C
F83C
F83C
F83C
F83C
F83C
F83C
F83C
F83C
F83C
F83C
F83C
F83C
F83C
7C7C
7FFC
3FF8
1FF0
ENDCHAR
STARTCHAR 016D
ENCODING 365
SWIDTH 612 0
DWIDTH 17 0
BBX 14 21 2 0
BITMAP
7060
70E0
3FE0
3FC0
0F00
0000
0000
F0F8
F0F8
F0F8
F0F8
F0F8
F0F8
F0F8
F0F8
F0F8
F0F8
F8F8
FFFC
FFFC
7F7C
ENDCHAR
STARTCHAR 016E
ENCODING 366
SWIDTH 612 0
DWIDTH 17 0
BBX 14 26 1 0
BITMAP
07C0
0EC0
0C40
0EC0
07C0
0000
0000
F83C
F83C
F83C
F83C
F83C
F83C
F83C
F83C
F83C
F83C
F83C
F83C
F83C
F83C
F83C
7C7C
7FFC
3FF8
1FF0
ENDCHAR
STARTCHAR 016F
ENCODING 367
SWIDTH 612 0
DWIDTH 17 0
BBX 14 22 2 0
BITMAP
0700
0F80
1980
1980
0F80
0700
0000
0000
F0F8
F0F8
F0F8
F0F8
F0F8
F0F8
F0F8
F0F8
F0F8
F0F8
F8F8
FFFC
FFFC
7F7C
ENDCHAR
STARTCHAR 0170
ENCODING 368
SWIDTH 612 0
DWIDTH 17 0
BBX 15 25 1 0
BITMAP
079E
073C
0E78
1CF0
0000
0000
F83C
F83C
F83C
F83C
F83C
F83C
F83C
F83C
F83C
F83C
F83C
F83C
F83C
F83C
F83C
7C7C
7FFC
3FF8
1FF0
ENDCHAR
STARTCHAR 0171
ENCODING 369
SWIDTH 612 0
DWIDTH 17 0
BBX 14 20 2 0
BITMAP
1F7C
1CF0
38E0
39C0
0000
0000
F0F8
F0F8
F0F8
F0F8
F0F8
F0F8
F0F8
F0F8
F0F8
F0F8
F8F8
FFFC
FFFC
7F7C
ENDCHAR
STARTCHAR 0172
ENCODING 370
SWIDTH 612 0
DWIDTH 17 0
BBX 14 23 1 -4
BITMAP
F83C
F83C
F83C
F83C
F83C
F83C
F83C
F83C
F83C
F83C
F83C
F83C
F83C
F83C
F83C
7C7C
7FFC
3FF8
1FF0
0380
0380
03F0
01F0
ENDCHAR
STARTCHAR 0173
ENCODING 371
SWIDTH 612 0
DWIDTH 17 0
BBX 16 18 2 -4
BITMAP
F0F8
F0F8
F0F8
F0F8
F0F8
F0F8
F0F8
F0F8
F0F8
F0F8
F8F8
FFFC
FFFC
7F7C
0038
0070
007B
003E
ENDCHAR
STARTCHAR 0174
ENCODING 372
SWIDTH 612 0
DWIDTH 17 0
BBX 17 25 0 0
BITMAP
03C000
07E000
0F7000
1E3800
000400
000000
F1C780
F1C780
F1C700
F1E700
73E700
7BE700
7BEF00
7BEF00
7BEF00
7B6F00
7B6E00
7B7E00
7F7E00
3F7E00
3E7E00
3E7E00
3E3E00
3E3E00
3E3E00
ENDCHAR
STARTCHAR 0175
ENCODING 373
SWIDTH 612 0
DWIDTH 17 0
BBX 17 21 0 0
BITMAP
03E000
07E000
077000
0E3800
1C3C00
000000
000000
F3C780
F3C700
F3E700
73E700
73EF00
73EF00
7F6F00
7F6E00
3F7E00
3F7E00
3E7E00
3E7E00
3E3C00
3E3C00
ENDCHAR
STARTCHAR 0176
ENCODING 374
SWIDTH 612 0
DWIDTH 17 0
BBX 16 25 0 0
BITMAP
03C0
07E0
0F70
1E38
0004
0000
F80F
7C1F
7C1E
3E3E
3E3C
1F7C
1F78
0FF8
0FF0
07F0
07F0
03E0
03E0
03E0
03E0
03E0
03E0
03E0
03E0
ENDCHAR
STARTCHAR 0177
ENCODING 375
SWIDTH 612 0
DWIDTH 17 0
BBX 15 26 1 -5
BITMAP
07C0
07E0
0EE0
1C70
3C38
0000
0000
F83E
783C
7C3C
7C78
3C78
3E78
1EF0
1EF0
1FE0
0FE0
0FE0
0FC0
07C0
07C0
0780
0F80
7F00
7E00
7C00
ENDCHAR
STARTCHAR 0178
ENCODING 376
SWIDTH 612 0
DWIDTH 17 0
BBX 16 24 0 0
BITMAP
1E38
1E38
1E38
0000
0000
F80F
7C1F
7C1E
3E3E
3E3C
1F7C
1F78
0FF8
0FF0
07F0
07F0
03E0
03E0
03E0
03E0
03E0
03E0
03E0
03E0
ENDCHAR
STARTCHAR 0179
ENCODING 377
SWIDTH 612 0
DWIDTH 17 0
BBX 15 25 1 0
BITMAP
00F0
01E0
01C0
0380
0000
0000
FFFE
FFFE
FFFC
FFF8
00F8
01F0
03F0
03E0
07C0
07C0
0F80
1F80
1F00
3E00
3E00
7FFE
FFFE
FFFE
FFFE
ENDCHAR
STARTCHAR 017A
ENCODING 378
SWIDTH 612 0
DWIDTH 17 0
BBX 12 21 2 0
BITMAP
03C0
0380
0780
0700
0E00
0000
0000
7FF0
7FF0
7FE0
03E0
07C0
0780
0F80
1F00
1F00
3E00
3E00
7FF0
FFF0
FFF0
ENDCHAR
STARTCHAR 017B
ENCODING 379
SWIDTH 612 0
DWIDTH 17 0
BBX 15 24 1 0
BITMAP
0380
0380
0380
0000
0000
FFFE
FFFE
FFFC
FFF8
00F8
01F0
03F0
03E0
07C0
07C0
0F80
1F80
1F00
3E00
3E00
7FFE
FFFE
FFFE
FFFE
ENDCHAR
STARTCHAR 017C
ENCODING 380
SWIDTH 612 0
DWIDTH 17 0
BBX 12 20 2 0
BITMAP
0700
0700
0700
0000
0000
0000
7FF0
7FF0
7FE0
03E0
07C0
0780
0F80
1F00
1F00
3E00
3E00
7FF0
FFF0
FFF0
ENDCHAR
STARTCHAR 017D
ENCODING 381
SWIDTH 612 0
DWIDTH 17 0
BBX 15 25 1 0
BITMAP
3878
1CF0
0EE0
07C0
0000
0000
FFFE
FFFE
FFFC
FFF8
00F8
01F0
03F0
03E0
07C0
07C0
0F80
1F80
1F00
3E00
3E00
7FFE
FFFE
FFFE
FFFE
ENDCHAR
STARTCHAR 017E
ENCODING 382
SWIDTH 612 0
DWIDTH 17 0
BBX 12 21 2 0
BITMAP
78F0
39C0
1DC0
0F80
0F00
0000
0000
7FF0
7FF0
7FE0
03E0
07C0
0780
0F80
1F00
1F00
3E00
3E00
7FF0
FFF0
FFF0
ENDCHAR
STARTCHAR 017F
ENCODING 383
SWIDTH 612 0
DWIDTH 17 0
BBX 13 20 2 0
BITMAP
03F8
07F8
0FF8
0F80
0F00
0F00
FF00
FF00
FF00
0F00
0F00
0F00
0F00
0F00
0F00
0F00
0F00
FFF8
FFF8
FFF8
ENDCHAR
STARTCHAR 018F
ENCODING 399
SWIDTH 612 0
DWIDTH 17 0
BBX 16 19 0 0
BITMAP
0FF0
1FFC
3FFE
7E3E
7C1F
781F
F81F
001F
001F
FFFF
FFFF
FFFF
781F
781F
7C1F
7E7E
3FFE
1FFC
0FF0
ENDCHAR
STARTCHAR 0191
ENCODING 401
SWIDTH 612 0
DWIDTH 17 0
BBX 16 24 -1 -5
BITMAP
1FFF
1FFF
1FFF
1FFE
1F00
1F00
1F00
1F00
1FFE
1FFE
1FFE
1F00
1F00
1F00
1F00
1F00
1F00
1F00
1F00
1F00
1E00
FE00
FE00
FC00
ENDCHAR
STARTCHAR 0192
ENCODING 402
SWIDTH 612 0
DWIDTH 17 0
BBX 14 25 1 -5
BITMAP
00FC
01FC
03FC
03E0
03C0
03C0
0FF8
0FF8
0FF8
07C0
0780
0780
0780
0780
0F80
0F80
0F80
0F00
0F00
0F00
0F00
1F00
FF00
FE00
FC00
ENDCHAR
STARTCHAR 0197
ENCODING 407
SWIDTH 612 0
DWIDTH 17 0
BBX 13 19 2 0
BITMAP
FFF8
FFF8
FFF8
0F80
0F80
0F80
0F80
0F80
7FF0
7FF0
7FF0
0F80
0F80
0F80
0F80
0F80
FFF8
FFF8
FFF8
ENDCHAR
STARTCHAR 019D
ENCODING 413
SWIDTH 612 0
DWIDTH 17 0
BBX 17 24 -2 -5
BITMAP
1F0780
1F8780
1F8780
1FC780
1FC780
1FC780
1FE780
1FE780
1FF780
1FF780
1F7F80
1F7F80
1F3F80
1F3F80
1F1F80
1F1F80
1F0F80
1F0F80
1F0780
1F0000
1F0000
FF0000
FE0000
FC0000
ENDCHAR
STARTCHAR 01A0
ENCODING 416
SWIDTH 612 0
DWIDTH 17 0
BBX 18 22 0 0
BITMAP
0003C0
0003C0
000380
0FF780
1FFF00
3FFE00
7E3E00
7C1F00
781F00
781F00
F81F00
F81F00
F81F00
F81F00
F81F00
781F00
781F00
7C1F00
7E3E00
3FFE00
1FFC00
0FF000
ENDCHAR
STARTCHAR 01A1
ENCODING 417
SWIDTH 612 0
DWIDTH 17 0
BBX 17 17 1 0
BITMAP
000780
000780
000700
1FEF00
3FFE00
7CF800
787C00
F83C00
F83C00
F83E00
F83E00
F83C00
F83C00
787C00
7FF800
3FF000
0FE000
ENDCHAR
STARTCHAR 01AF
ENCODING 431
SWIDTH 612 0
DWIDTH 17 0
BBX 18 23 1 0
BITMAP
0003C0
000380
000380
000780
F83F00
F83C00
F83C00
F83C00
F83C00
F83C00
F83C00
F83C00
F83C00
F83C00
F83C00
F83C00
F83C00
F83C00
F83C00
7C7C00
7FFC00
3FF800
1FF000
ENDCHAR
STARTCHAR 01B0
ENCODING 432
SWIDTH 612 0
DWIDTH 17 0
BBX 16 18 2 0
BITMAP
000F
000F
000E
001E
F0FC
F0F8
F0F8
F0F8
F0F8
F0F8
F0F8
F0F8
F0F8
F0F8
F8F8
FFFC
FFFC
7F7C
ENDCHAR
STARTCHAR 01C4
ENCODING 452
SWIDTH 612 0
DWIDTH 17 0
BBX 16 25 0 0
BITMAP
0033
0037
001E
001E
0000
0000
FE3F
FF3F
FFBF
F7BF
F38F
F3CE
F3CE
F3DE
F3DE
F3DC
F3DC
F3FC
F3F8
F3F8
F3B8
FFFF
FFFF
FF7F
FE7F
ENDCHAR
STARTCHAR 01C5
ENCODING 453
SWIDTH 612 0
DWIDTH 17 0
BBX 16 20 0 0
BITMAP
0033
FE37
FF3E
FF9E
F780
F380
F3FF
F3FF
F3FF
F3CE
F3CE
F3CE
F3DC
F3DC
F3DC
F3BC
FFB8
FFBF
FF7F
FE7F
ENDCHAR
STARTCHAR 01C6
ENCODING 454
SWIDTH 612 0
DWIDTH 17 0
BBX 17 20 0 0
BITMAP
03B300
03BF00
039E00
039E00
038000
038000
7FBF00
7FBF00
F7BF00
E38700
E38E00
E38E00
E38C00
E39C00
E39C00
E3B800
E3B800
FFBF80
7DFF80
7DFF80
ENDCHAR
STARTCHAR 01C7
ENCODING 455
SWIDTH 612 0
DWIDTH 17 0
BBX 14 24 1 -5
BITMAP
F83C
F83C
F83C
F83C
F83C
F83C
F83C
F83C
F83C
F83C
F83C
F83C
F83C
F83C
F83C
FF3C
FF3C
FFBC
FFBC
003C
3C7C
3FFC
1FF8
0FF0
ENDCHAR
STARTCHAR 01C8
ENCODING 456
SWIDTH 612 0
DWIDTH 17 0
BBX 14 25 1 -5
BITMAP
007C
F87C
F87C
F87C
F800
F800
F87C
F87C
F87C
F87C
F87C
F87C
F87C
F87C
F87C
F87C
FFFC
FFFC
FFFC
FFFC
007C
007C
07F8
07F8
07F0
ENDCHAR
STARTCHAR 01C9
ENCODING 457
SWIDTH 612 0
DWIDTH 17 0
BBX 13 25 2 -5
BITMAP
F0F8
F0F8
F0F8
F0F8
F000
F000
F3F8
F3F8
F3F8
F0F8
F0F8
F0F8
F0F8
F0F8
F0F8
F0F8
F0F8
F0F8
F0F8
F0F8
00F8
00F8
0FF0
0FF0
0FE0
ENDCHAR
STARTCHAR 01CA
ENCODING 458
SWIDTH 612 0
DWIDTH 17 0
BBX 15 24 1 -5
BITMAP
E3BE
F3BE
F3BE
F3BE
F3BE
FBBE
FBBE
FBBE
FBBE
FBBE
FFBE
FFBE
FFBE
F7BE
F7BE
F7BE
F7BE
F3BE
F3BE
003E
1E3E
1FFC
1FFC
07F0
ENDCHAR
STARTCHAR 01CB
ENCODING 459
SWIDTH 612 0
DWIDTH 17 0
BBX 15 25 1 -5
BITMAP
001E
F3DE
F3DE
F3DE
FBC0
FBC0
FBDC
FBDC
FBDC
FFDC
FFDC
FFDC
F7DC
F7DC
F7DC
F7DC
F3DC
F3DC
F3DC
F3DC
001C
003C
03FC
03F8
01F0
ENDCHAR
STARTCHAR 01CC
ENCODING 460
SWIDTH 612 0
DWIDTH 17 0
BBX 15 25 1 -5
BITMAP
003E
003E
003E
003E
0000
0000
FF1E
FF9E
FF9E
F39E
F39E
F39E
F39E
F39E
F39E
F39E
F39E
F39E
F39E
F39E
001E
001E
03FC
03FC
01F8
ENDCHAR
STARTCHAR 01CD
ENCODING 461
SWIDTH 612 0
DWIDTH 17 0
BBX 17 25 0 0
BITMAP
1C3C00
0E7800
077000
03E000
000000
000000
07E000
07F000
07F000
0FF000
0FF000
0F7800
0E7800
1E7800
1E7C00
1E3C00
1E3C00
3C3C00
3FFE00
3FFE00
7FFE00
781F00
781F00
780F00
F80F80
ENDCHAR
STARTCHAR 01CE
ENCODING 462
SWIDTH 612 0
DWIDTH 17 0
BBX 15 21 1 0
BITMAP
3870
1CE0
0FC0
0FC0
0780
0000
0000
1FF0
3FF8
7CF8
7878
0078
03F8
3FF8
7FF8
7878
F878
F878
7FFE
7FBE
3F3E
ENDCHAR
STARTCHAR 01CF
ENCODING 463
SWIDTH 612 0
DWIDTH 17 0
BBX 13 25 2 0
BITMAP
70F0
39E0
1DC0
0F80
0000
0000
FFF8
FFF8
FFF8
0F80
0F80
0F80
0F80
0F80
0F80
0F80
0F80
0F80
0F80
0F80
0F80
0F80
FFF8
FFF8
FFF8
ENDCHAR
STARTCHAR 01D0
ENCODING 464
SWIDTH 612 0
DWIDTH 17 0
BBX 14 21 2 0
BITMAP
3870
1CE0
0FC0
0FC0
0780
0000
0000
FF80
FF80
FF80
0780
0780
0780
0780
0780
0780
0780
0780
FFFC
FFFC
FFFC
ENDCHAR
STARTCHAR 01D1
ENCODING 465
SWIDTH 612 0
DWIDTH 17 0
BBX 16 25 0 0
BITMAP
1C3C
0E78
0770
03E0
0000
0000
0FF0
1FFC
3FFE
7E3E
7C1F
781F
781F
F81F
F81F
F81F
F81F
F81F
781F
781F
7C1F
7E3E
3FFE
1FFC
0FF0
ENDCHAR
STARTCHAR 01D2
ENCODING 466
SWIDTH 612 0
DWIDTH 17 0
BBX 15 21 1 0
BITMAP
3C78
1CE0
0EE0
07C0
0780
0000
0000
1FE0
3FF8
7CF8
787C
F83C
F83C
F83E
F83E
F83C
F83C
787C
7FF8
3FF0
0FE0
ENDCHAR
STARTCHAR 01D3
ENCODING 467
SWIDTH 612 0
DWIDTH 17 0
BBX 14 25 1 0
BITMAP
3878
1CF0
0EE0
07C0
0000
0000
F83C
F83C
F83C
F83C
F83C
F83C
F83C
F83C
F83C
F83C
F83C
F83C
F83C
F83C
F83C
7C7C
7FFC
3FF8
1FF0
ENDCHAR
STARTCHAR 01D4
ENCODING 468
SWIDTH 612 0
DWIDTH 17 0
BBX 14 21 2 0
BITMAP
70F0
39C0
1FC0
1F80
0F00
0000
0000
F0F8
F0F8
F0F8
F0F8
F0F8
F0F8
F0F8
F0F8
F0F8
F0F8
F8F8
FFFC
FFFC
7F7C
ENDCHAR
STARTCHAR 01D5
ENCODING 469
SWIDTH 612 0
DWIDTH 17 0
BBX 14 29 1 0
BITMAP
3FF8
3FF8
3FF8
0000
3CF8
3CF8
3CF8
3CF8
0000
0000
F83C
F83C
F83C
F83C
F83C
F83C
F83C
F83C
F83C
F83C
F83C
F83C
F83C
F83C
F83C
7C7C
7FFC
3FF8
1FF0
ENDCHAR
STARTCHAR 01D6
ENCODING 470
SWIDTH 612 0
DWIDTH 17 0
BBX 14 24 2 0
BITMAP
7FE0
7FE0
0000
0000
79E0
79E0
79E0
0000
0000
0000
F0F8
F0F8
F0F8
F0F8
F0F8
F0F8
F0F8
F0F8
F0F8
F0F8
F8F8
FFFC
FFFC
7F7C
ENDCHAR
STARTCHAR 01D7
ENCODING 471
SWIDTH 612 0
DWIDTH 17 0
BBX 14 30 1 0
BITMAP
00F0
00E0
01C0
0380
0000
3C78
3C78
3C78
3C78
0000
0000
F83C
F83C
F83C
F83C
F83C
F83C
F83C
F83C
F83C
F83C
F83C
F83C
F83C
F83C
F83C
7C7C
7FFC
3FF8
1FF0
ENDCHAR
STARTCHAR 01D8
ENCODING 472
SWIDTH 612 0
DWIDTH 17 0
BBX 14 26 2 0
BITMAP
01E0
03C0
0780
0700
0000
0000
F8F0
F8F0
F8F0
0000
0000
0000
F0F8
F0F8
F0F8
F0F8
F0F8
F0F8
F0F8
F0F8
F0F8
F0F8
F8F8
FFFC
FFFC
7F7C
ENDCHAR
STARTCHAR 01D9
ENCODING 473
SWIDTH 612 0
DWIDTH 17 0
BBX 14 29 1 0
BITMAP
3CF8
0FE0
07C0
0000
3C78
3C78
3C78
3C78
0000
0000
F83C
F83C
F83C
F83C
F83C
F83C
F83C
F83C
F83C
F83C
F83C
F83C
F83C
F83C
F83C
7C7C
7FFC
3FF8
1FF0
ENDCHAR
STARTCHAR 01DA
ENCODING 474
SWIDTH 612 0
DWIDTH 17 0
BBX 14 25 2 0
BITMAP
79F0
3FC0
1F80
0000
0000
F8F0
F8F0
F8F0
0000
0000
0000
F0F8
F0F8
F0F8
F0F8
F0F8
F0F8
F0F8
F0F8
F0F8
F0F8
F8F8
FFFC
FFFC
7F7C
ENDCHAR
STARTCHAR 01DB
ENCODING 475
SWIDTH 612 0
DWIDTH 17 0
BBX 14 30 1 0
BITMAP
3E00
0E00
0700
0380
0000
3C78
3C78
3C78
3C78
0000
0000
F83C
F83C
F83C
F83C
F83C
F83C
F83C
F83C
F83C
F83C
F83C
F83C
F83C
F83C
F83C
7C7C
7FFC
3FF8
1FF0
ENDCHAR
STARTCHAR 01DC
ENCODING 476
SWIDTH 612 0
DWIDTH 17 0
BBX 14 26 2 0
BITMAP
7C00
1C00
1E00
0F00
0000
0000
F8F0
F8F0
F8F0
0000
0000
0000
F0F8
F0F8
F0F8
F0F8
F0F8
F0F8
F0F8
F0F8
F0F8
F0F8
F8F8
FFFC
FFFC
7F7C
ENDCHAR
STARTCHAR 01E4
ENCODING 484
SWIDTH 612 0
DWIDTH 17 0
BBX 17 19 0 0
BITMAP
0FF000
1FFC00
3FFE00
7E3E00
7C1E00
781F00
781F00
F80000
F80000
F8FF00
F8FF00
F81F00
78FF80
78FF80
7C1F00
7C3F00
3FFF00
1FF700
0FE700
ENDCHAR
STARTCHAR 01E5
ENCODING 485
SWIDTH 612 0
DWIDTH 17 0
BBX 18 22 0 -5
BITMAP
000700
000700
000F00
0FFC00
1FFC00
3E3E00
3C1E00
3C1E00
3E3E00
1FFC00
0FF800
3FE000
3C0000
3E0000
3FFE00
1FFF00
3FFF00
F80FC0
FFFFC0
780F00
7FFF00
3FFC00
ENDCHAR
STARTCHAR 01E6
ENCODING 486
SWIDTH 612 0
DWIDTH 17 0
BBX 16 25 0 0
BITMAP
1C38
0E78
07F0
03E0
0000
0000
0FF0
1FFC
3FFE
7E3E
7C1E
781F
781F
F800
F800
F8FF
F8FF
F8FF
781F
781F
7C1F
7E3F
3FFF
1FF7
0FE7
ENDCHAR
STARTCHAR 01E7
ENCODING 487
SWIDTH 612 0
DWIDTH 17 0
BBX 15 26 1 -5
BITMAP
3C78
1CE0
0EE0
07C0
078E
000E
001E
1FF8
3FF8
7C7C
783C
783C
7C7C
3FF8
1FF0
7FC0
7800
7C00
7FFC
3FFE
7FFE
F01E
F01E
F03E
FFFE
7FF8
ENDCHAR
STARTCHAR 01EA
ENCODING 490
SWIDTH 612 0
DWIDTH 17 0
BBX 16 23 0 -4
BITMAP
0FF0
1FFC
3FFE
7E3E
7C1F
781F
781F
F81F
F81F
F81F
F81F
F81F
781F
781F
7C1F
7E3E
3FFE
1FFC
0FF0
01C0
01C0
01F8
00F8
ENDCHAR
STARTCHAR 01EB
ENCODING 491
SWIDTH 612 0
DWIDTH 17 0
BBX 15 18 1 -4
BITMAP
1FE0
3FF8
7CF8
787C
F83C
F83C
F83E
F83E
F83C
F83C
787C
7FF8
3FF0
0FE0
0380
0700
07B0
03E0
ENDCHAR
STARTCHAR 01FA
ENCODING 506
SWIDTH 612 0
DWIDTH 17 0
BBX 17 31 0 0
BITMAP
007000
00E000
00C000
018000
000000
03C000
036000
062000
076000
03E000
000000
000000
07E000
07F000
07F000
0FF000
0FF000
0F7800
0E7800
1E7800
1E7C00
1E3C00
1E3C00
3C3C00
3FFE00
3FFE00
7FFE00
781F00
781F00
780F00
F80F80
ENDCHAR
STARTCHAR 01FB
ENCODING 507
SWIDTH 612 0
DWIDTH 17 0
BBX 15 27 1 0
BITMAP
00E0
01C0
0180
0300
0000
0380
07C0
0CC0
0CC0
07C0
0300
0000
0000
1FF0
3FF8
7CF8
7878
0078
03F8
3FF8
7FF8
7878
F878
F878
7FFE
7FBE
3F3E
ENDCHAR
STARTCHAR 01FC
ENCODING 508
SWIDTH 612 0
DWIDTH 17 0
BBX 17 25 0 0
BITMAP
003E00
003C00
007800
00F000
000000
000000
0FFF00
0FFF00
0FFF00
0FF000
0EF000
1EF000
1EF000
1EF000
1EFE00
3CFE00
3CFE00
3CF000
3FF000
7FF000
7FF000
78FF00
78FF00
F8FF00
F8FF80
ENDCHAR
STARTCHAR 01FD
ENCODING 509
SWIDTH 612 0
DWIDTH 17 0
BBX 16 21 0 0
BITMAP
00F0
00E0
01E0
01C0
0380
0000
0000
3F7E
7FFE
73E7
73C7
01C7
07FF
3FFF
7FC0
F1C0
E3C7
E3E7
FFFF
7FFE
3E7C
ENDCHAR
STARTCHAR 01FE
ENCODING 510
SWIDTH 612 0
DWIDTH 17 0
BBX 16 27 0 -2
BITMAP
0078
00F0
00E0
01C0
0003
0007
0FFE
1FFC
3FFE
7E3E
7C3F
787F
787F
F8FF
F8DF
F9DF
FB9F
FB1F
7F1F
7E1F
7E1F
7E3E
3FFE
3FFC
3FF0
7000
E000
ENDCHAR
STARTCHAR 01FF
ENCODING 511
SWIDTH 612 0
DWIDTH 17 0
BBX 15 22 1 -1
BITMAP
01E0
01C0
03C0
0380
0700
001C
0018
1FF0
3FF8
7CF8
78FC
F8FC
F9BC
FBBE
FB3E
FE3C
FE3C
7C7C
7FF8
3FF0
3FE0
7000
ENDCHAR
STARTCHAR 0200
ENCODING 512
SWIDTH 612 0
DWIDTH 17 0
BBX 17 25 0 0
BITMAP
7BC000
3CE000
1CF000
0E7000
000800
000000
07E000
07F000
07F000
0FF000
0FF000
0F7800
0E7800
1E7800
1E7C00
1E3C00
1E3C00
3C3C00
3FFE00
3FFE00
7FFE00
781F00
781F00
780F00
F80F80
ENDCHAR
STARTCHAR 0201
ENCODING 513
SWIDTH 612 0
DWIDTH 17 0
BBX 15 20 1 0
BITMAP
F7C0
79C0
38E0
1C70
0000
0000
1FF0
3FF8
7CF8
7878
0078
03F8
3FF8
7FF8
7878
F878
F878
7FFE
7FBE
3F3E
ENDCHAR
STARTCHAR 0202
ENCODING 514
SWIDTH 612 0
DWIDTH 17 0
BBX 17 25 0 0
BITMAP
03E000
0FF800
1E3800
1C1C00
000000
000000
07E000
07F000
07F000
0FF000
0FF000
0F7800
0E7800
1E7800
1E7C00
1E3C00
1E3C00
3C3C00
3FFE00
3FFE00
7FFE00
781F00
781F00
780F00
F80F80
ENDCHAR
STARTCHAR 0203
ENCODING 515
SWIDTH 612 0
DWIDTH 17 0
BBX 15 21 1 0
BITMAP
0100
1FE0
3FF0
3830
3030
0000
0000
1FF0
3FF8
7CF8
7878
0078
03F8
3FF8
7FF8
7878
F878
F878
7FFE
7FBE
3F3E
ENDCHAR
STARTCHAR 0204
ENCODING 516
SWIDTH 612 0
DWIDTH 17 0
BBX 13 25 2 0
BITMAP
E780
F380
71C0
38E0
0000
0000
FFF8
FFF8
FFF8
F800
F800
F800
F800
F800
FFF0
FFF0
FFF0
F800
F800
F800
F800
FFF8
FFF8
FFF8
FFF8
ENDCHAR
STARTCHAR 0205
ENCODING 517
SWIDTH 612 0
DWIDTH 17 0
BBX 14 20 1 0
BITMAP
FBC0
39E0
1CE0
0E70
0000
0000
1FF0
3FF8
7EFC
783C
F83C
FFFC
FFFC
FFFC
F800
F83C
783C
7FFC
3FF8
1FE0
ENDCHAR
STARTCHAR 0206
ENCODING 518
SWIDTH 612 0
DWIDTH 17 0
BBX 13 25 2 0
BITMAP
0F80
3FE0
38F0
7070
0000
0000
FFF8
FFF8
FFF8
F800
F800
F800
F800
F800
FFF0
FFF0
FFF0
F800
F800
F800
F800
FFF8
FFF8
FFF8
FFF8
ENDCHAR
STARTCHAR 0207
ENCODING 519
SWIDTH 612 0
DWIDTH 17 0
BBX 14 21 1 0
BITMAP
0180
0FE0
1FF0
3838
3818
0000
0000
1FF0
3FF8
7EFC
783C
F83C
FFFC
FFFC
FFFC
F800
F83C
783C
7FFC
3FF8
1FE0
ENDCHAR
STARTCHAR 0208
ENCODING 520
SWIDTH 612 0
DWIDTH 17 0
BBX 14 25 1 0
BITMAP
F780
79C0
39E0
1CE0
0010
0000
7FFC
7FFC
7FFC
07C0
07C0
07C0
07C0
07C0
07C0
07C0
07C0
07C0
07C0
07C0
07C0
07C0
7FFC
7FFC
7FFC
ENDCHAR
STARTCHAR 0209
ENCODING 521
SWIDTH 612 0
DWIDTH 17 0
BBX 14 20 2 0
BITMAP
F780
79C0
38E0
1C60
0000
0000
FF80
FF80
FF80
0780
0780
0780
0780
0780
0780
0780
0780
FFFC
FFFC
FFFC
ENDCHAR
STARTCHAR 020A
ENCODING 522
SWIDTH 612 0
DWIDTH 17 0
BBX 13 25 2 0
BITMAP
0F80
3FE0
78E0
7070
0000
0000
FFF8
FFF8
FFF8
0F80
0F80
0F80
0F80
0F80
0F80
0F80
0F80
0F80
0F80
0F80
0F80
0F80
FFF8
FFF8
FFF8
ENDCHAR
STARTCHAR 020B
ENCODING 523
SWIDTH 612 0
DWIDTH 17 0
BBX 14 21 2 0
BITMAP
0100
1FE0
3FF0
3870
3030
0000
0000
FF80
FF80
FF80
0780
0780
0780
0780
0780
0780
0780
0780
FFFC
FFFC
FFFC
ENDCHAR
STARTCHAR 020C
ENCODING 524
SWIDTH 612 0
DWIDTH 17 0
BBX 16 25 0 0
BITMAP
7BC0
3CE0
1CF0
0E70
0008
0000
0FF0
1FFC
3FFE
7E3E
7C1F
781F
781F
F81F
F81F
F81F
F81F
F81F
781F
781F
7C1F
7E3E
3FFE
1FFC
0FF0
ENDCHAR
STARTCHAR 020D
ENCODING 525
SWIDTH 612 0
DWIDTH 17 0
BBX 15 20 1 0
BITMAP
F3C0
39C0
1CE0
1C70
0000
0000
1FE0
3FF8
7CF8
787C
F83C
F83C
F83E
F83E
F83C
F83C
787C
7FF8
3FF0
0FE0
ENDCHAR
STARTCHAR 020E
ENCODING 526
SWIDTH 612 0
DWIDTH 17 0
BBX 16 25 0 0
BITMAP
03E0
0FF8
1E38
1C1C
0000
0000
0FF0
1FFC
3FFE
7E3E
7C1F
781F
781F
F81F
F81F
F81F
F81F
F81F
781F
781F
7C1F
7E3E
3FFE
1FFC
0FF0
ENDCHAR
STARTCHAR 020F
ENCODING 527
SWIDTH 612 0
DWIDTH 17 0
BBX 15 21 1 0
BITMAP
0380
0FE0
1FF0
3838
3038
0000
0000
1FE0
3FF8
7CF8
787C
F83C
F83C
F83E
F83E
F83C
F83C
787C
7FF8
3FF0
0FE0
ENDCHAR
STARTCHAR 0210
ENCODING 528
SWIDTH 612 0
DWIDTH 17 0
BBX 16 25 1 0
BITMAP
F780
79C0
39E0
1CE0
0010
0000
FFF0
FFFC
FFFE
F87E
F83E
F81E
F81E
F83E
FFFC
FFF0
FFF8
FFFC
F87C
F83E
F83E
F83E
F83E
F83F
F81F
ENDCHAR
STARTCHAR 0211
ENCODING 529
SWIDTH 612 0
DWIDTH 17 0
BBX 15 20 1 0
BITMAP
FBC0
39E0
1CE0
0E70
0000
0000
FEFC
FFFC
FFFE
1F1E
1F1E
1F00
1F00
1F00
1F00
1F00
1F00
FFF8
FFF8
FFF8
ENDCHAR
STARTCHAR 0212
ENCODING 530
SWIDTH 612 0
DWIDTH 17 0
BBX 16 25 1 0
BITMAP
07C0
1FF0
3C70
3838
0000
0000
FFF0
FFFC
FFFE
F87E
F83E
F81E
F81E
F83E
FFFC
FFF0
FFF8
FFFC
F87C
F83E
F83E
F83E
F83E
F83F
F81F
ENDCHAR
STARTCHAR 0213
ENCODING 531
SWIDTH 612 0
DWIDTH 17 0
BBX 15 21 1 0
BITMAP
0100
0FF0
1FF0
1838
3818
0000
0000
FEFC
FFFC
FFFE
1F1E
1F1E
1F00
1F00
1F00
1F00
1F00
1F00
FFF8
FFF8
FFF8
ENDCHAR
STARTCHAR 0214
ENCODING 532
SWIDTH 612 0
DWIDTH 17 0
BBX 14 25 1 0
BITMAP
F780
79C0
39E0
1CE0
0010
0000
F83C
F83C
F83C
F83C
F83C
F83C
F83C
F83C
F83C
F83C
F83C
F83C
F83C
F83C
F83C
7C7C
7FFC
3FF8
1FF0
ENDCHAR
STARTCHAR 0215
ENCODING 533
SWIDTH 612 0
DWIDTH 17 0
BBX 15 20 1 0
BITMAP
F7C0
39C0
38E0
1C70
0000
0000
787C
787C
787C
787C
787C
787C
787C
787C
787C
787C
7C7C
7FFE
7FFE
3FBE
ENDCHAR
STARTCHAR 0216
ENCODING 534
SWIDTH 612 0
DWIDTH 17 0
BBX 14 25 1 0
BITMAP
07C0
1FF0
3C70
3838
0000
0000
F83C
F83C
F83C
F83C
F83C
F83C
F83C
F83C
F83C
F83C
F83C
F83C
F83C
F83C
F83C
7C7C
7FFC
3FF8
1FF0
ENDCHAR
STARTCHAR 0217
ENCODING 535
SWIDTH 612 0
DWIDTH 17 0
BBX 14 21 2 0
BITMAP
0200
3FC0
7FE0
7060
6060
0000
0000
F0F8
F0F8
F0F8
F0F8
F0F8
F0F8
F0F8
F0F8
F0F8
F0F8
F8F8
FFFC
FFFC
7F7C
ENDCHAR
STARTCHAR 0218
ENCODING 536
SWIDTH 612 0
DWIDTH 17 0
BBX 15 29 1 -10
BITMAP
1FF0
3FF8
7FFC
F87C
F83E
F83E
FC00
FFC0
7FF0
3FFC
0FFE
01FE
003E
F03E
F03E
FC7E
FFFC
7FF8
1FF0
0000
0000
0780
0780
0780
0780
0180
0180
0380
0700
ENDCHAR
STARTCHAR 0219
ENCODING 537
SWIDTH 612 0
DWIDTH 17 0
BBX 13 24 2 -10
BITMAP
3FE0
7FF0
F8F0
F078
F800
FFC0
7FF0
3FF8
03F8
E078
F078
FFF8
7FF0
3FE0
0000
0000
0F00
0F00
0F00
0F00
0300
0300
0700
0E00
ENDCHAR
STARTCHAR 021A
ENCODING 538
SWIDTH 612 0
DWIDTH 17 0
BBX 15 29 1 -10
BITMAP
FFFE
FFFE
FFFE
FFFE
07C0
07C0
07C0
07C0
07C0
07C0
07C0
07C0
07C0
07C0
07C0
07C0
07C0
07C0
07C0
0000
0000
0780
0780
0780
0780
0180
0180
0380
0700
ENDCHAR
STARTCHAR 021B
ENCODING 539
SWIDTH 612 0
DWIDTH 17 0
BBX 14 29 1 -10
BITMAP
0700
0700
0700
0F00
0F00
FFFC
FFFC
FFFC
0F00
0F00
0F00
0F00
0F00
0F00
0F00
0F84
0FFC
07FC
03FC
0000
0000
01E0
01E0
01E0
01E0
0060
00C0
00C0
01C0
ENDCHAR
STARTCHAR 022A
ENCODING 554
SWIDTH 612 0
DWIDTH 17 0
BBX 16 29 0 0
BITMAP
1FFC
1FFC
1FFC
0000
1E7C
1E7C
1E7C
1E7C
0000
0000
0FF0
1FFC
3FFE
7E3E
7C1F
781F
781F
F81F
F81F
F81F
F81F
F81F
781F
781F
7C1F
7E3E
3FFE
1FFC
0FF0
ENDCHAR
STARTCHAR 022B
ENCODING 555
SWIDTH 612 0
DWIDTH 17 0
BBX 15 24 1 0
BITMAP
3FF8
3FF8
0000
0000
3CF8
3CF8
3CF8
0000
0000
0000
1FE0
3FF8
7CF8
787C
F83C
F83C
F83E
F83E
F83C
F83C
787C
7FF8
3FF0
0FE0
ENDCHAR
STARTCHAR 022C
ENCODING 556
SWIDTH 612 0
DWIDTH 17 0
BBX 16 28 0 0
BITMAP
1FF8
1FF8
0000
060C
1FFC
1FF8
38F0
0000
0000
0FF0
1FFC
3FFE
7E3E
7C1F
781F
781F
F81F
F81F
F81F
F81F
F81F
781F
781F
7C1F
7E3E
3FFE
1FFC
0FF0
ENDCHAR
STARTCHAR 022D
ENCODING 557
SWIDTH 612 0
DWIDTH 17 0
BBX 15 24 1 0
BITMAP
3FF0
3FF0
0000
0000
1F18
3FF8
33F0
4000
0000
0000
1FE0
3FF8
7CF8
787C
F83C
F83C
F83E
F83E
F83C
F83C
787C
7FF8
3FF0
0FE0
ENDCHAR
STARTCHAR 0230
ENCODING 560
SWIDTH 612 0
DWIDTH 17 0
BBX 16 28 0 0
BITMAP
0FF8
0FF8
0000
03E0
03E0
03E0
03E0
0000
0000
0FF0
1FFC
3FFE
7E3E
7C1F
781F
781F
F81F
F81F
F81F
F81F
F81F
781F
781F
7C1F
7E3E
3FFE
1FFC
0FF0
ENDCHAR
STARTCHAR 0231
ENCODING 561
SWIDTH 612 0
DWIDTH 17 0
BBX 15 24 1 0
BITMAP
1FF0
1FF0
1FF0
0000
07C0
07C0
07C0
0000
0000
0000
1FE0
3FF8
7CF8
787C
F83C
F83C
F83E
F83E
F83C
F83C
787C
7FF8
3FF0
0FE0
ENDCHAR
STARTCHAR 0232
ENCODING 562
SWIDTH 612 0
DWIDTH 17 0
BBX 16 24 0 0
BITMAP
0FF8
0FF8
0000
0000
0000
F80F
7C1F
7C1E
3E3E
3E3C
1F7C
1F78
0FF8
0FF0
07F0
07F0
03E0
03E0
03E0
03E0
03E0
03E0
03E0
03E0
ENDCHAR
STARTCHAR 0233
ENCODING 563
SWIDTH 612 0
DWIDTH 17 0
BBX 15 24 1 -5
BITMAP
1FF0
1FF0
0000
0000
0000
F83E
783C
7C3C
7C78
3C78
3E78
1EF0
1EF0
1FE0
0FE0
0FE0
0FC0
07C0
07C0
0780
0F80
7F00
7E00
7C00
ENDCHAR
STARTCHAR 0237
ENCODING 567
SWIDTH 612 0
DWIDTH 17 0
BBX 9 19 2 -5
BITMAP
FF80
FF80
FF80
0780
0780
0780
0780
0780
0780
0780
0780
0780
0780
0780
0780
0780
FF80
FF00
7E00
ENDCHAR
STARTCHAR 0244
ENCODING 580
SWIDTH 612 0
DWIDTH 17 0
BBX 17 19 0 0
BITMAP
7C1E00
7C1E00
7C1E00
7C1E00
7C1E00
7C1E00
7C1E00
FFFF80
FFFF80
FFFF80
7C1E00
7C1E00
7C1E00
7C1E00
7C1E00
3E3E00
3FFE00
1FFC00
0FF800
ENDCHAR
STARTCHAR 0259
ENCODING 601
SWIDTH 612 0
DWIDTH 17 0
BBX 14 14 1 0
BITMAP
1FF0
3FF8
7CFC
787C
F03C
003C
FFFC
FFFC
F83C
F83C
787C
7FF8
3FF0
1FE0
ENDCHAR
STARTCHAR 0268
ENCODING 616
SWIDTH 612 0
DWIDTH 17 0
BBX 14 20 2 0
BITMAP
0780
0780
0780
0000
0000
0000
FF80
FF80
FF80
0780
0780
3FF0
3FF0
3FF0
0780
0780
0780
FFFC
FFFC
FFFC
ENDCHAR
STARTCHAR 026A
ENCODING 618
SWIDTH 612 0
DWIDTH 17 0
BBX 10 14 3 0
BITMAP
FFC0
FFC0
FFC0
1F00
1F00
1F00
1F00
1F00
1F00
1F00
1F00
FFC0
FFC0
FFC0
ENDCHAR
STARTCHAR 0272
ENCODING 626
SWIDTH 612 0
DWIDTH 17 0
BBX 16 19 -1 -5
BITMAP
1EFC
1FFE
1FFF
1F1F
1E1F
1E0F
1E0F
1E0F
1E0F
1E0F
1E0F
1E0F
1E0F
1E0F
1E00
1E00
FE00
FE00
F800
ENDCHAR
STARTCHAR 0289
ENCODING 649
SWIDTH 612 0
DWIDTH 17 0
BBX 16 14 0 0
BITMAP
3C3E
3C3E
3C3E
3C3E
FFFF
FFFF
FFFF
3C3E
3C3E
3C3E
3E3E
3FFF
3FFF
1FDF
ENDCHAR
STARTCHAR 02B9
ENCODING 697
SWIDTH 612 0
DWIDTH 17 0
BBX 5 4 6 16
BITMAP
78
70
E0
E0
ENDCHAR
STARTCHAR 02BA
ENCODING 698
SWIDTH 612 0
DWIDTH 17 0
BBX 10 4 3 16
BITMAP
7BC0
7380
7380
F780
ENDCHAR
STARTCHAR 02BC
ENCODING 700
SWIDTH 612 0
DWIDTH 17 0
BBX 3 8 7 15
BITMAP
E0
E0
E0
E0
60
60
C0
C0
ENDCHAR
STARTCHAR 02C6
ENCODING 710
SWIDTH 612 0
DWIDTH 17 0
BBX 11 5 3 16
BITMAP
1F00
3F00
3B80
73C0
E1E0
ENDCHAR
STARTCHAR 02C7
ENCODING 711
SWIDTH 612 0
DWIDTH 17 0
BBX 11 5 3 16
BITMAP
F1E0
7380
3B80
1F00
1E00
ENDCHAR
STARTCHAR 02C9
ENCODING 713
SWIDTH 612 0
DWIDTH 17 0
BBX 9 1 4 19
BITMAP
FF80
ENDCHAR
STARTCHAR 02CD
ENCODING 717
SWIDTH 612 0
DWIDTH 17 0
BBX 9 3 4 -5
BITMAP
FF80
FF80
FF80
ENDCHAR
STARTCHAR 02D8
ENCODING 728
SWIDTH 612 0
DWIDTH 17 0
BBX 10 5 3 16
BITMAP
E0C0
E1C0
7FC0
3F80
1E00
ENDCHAR
STARTCHAR 02D9
ENCODING 729
SWIDTH 612 0
DWIDTH 17 0
BBX 3 3 7 17
BITMAP
E0
E0
E0
ENDCHAR
STARTCHAR 02DA
ENCODING 730
SWIDTH 612 0
DWIDTH 17 0
BBX 6 6 5 16
BITMAP
38
7C
CC
CC
7C
38
ENDCHAR
STARTCHAR 02DB
ENCODING 731
SWIDTH 612 0
DWIDTH 17 0
BBX 7 4 5 -4
BITMAP
70
E0
FC
7E
ENDCHAR
STARTCHAR 02DC
ENCODING 732
SWIDTH 612 0
DWIDTH 17 0
BBX 11 5 3 16
BITMAP
3060
7CE0
FFC0
C7C0
C100
ENDCHAR
STARTCHAR 02DD
ENCODING 733
SWIDTH 612 0
DWIDTH 17 0
BBX 12 4 2 16
BITMAP
3EF0
39E0
71C0
E380
ENDCHAR
STARTCHAR 0300
ENCODING 768
SWIDTH 0 0
DWIDTH 0 0
BBX 6 5 5 16
BITMAP
F0
78
38
1C
1C
ENDCHAR
STARTCHAR 0301
ENCODING 769
SWIDTH 0 0
DWIDTH 0 0
BBX 6 5 5 16
BITMAP
3C
38
78
70
E0
ENDCHAR
STARTCHAR 0302
ENCODING 770
SWIDTH 0 0
DWIDTH 0 0
BBX 11 5 3 16
BITMAP
1F00
3F00
3B80
73C0
E1E0
ENDCHAR
STARTCHAR 0303
ENCODING 771
SWIDTH 0 0
DWIDTH 0 0
BBX 11 5 3 16
BITMAP
3060
7CE0
FFC0
C7C0
C100
ENDCHAR
STARTCHAR 0304
ENCODING 772
SWIDTH 0 0
DWIDTH 0 0
BBX 9 2 4 17
BITMAP
FF80
FF80
ENDCHAR
STARTCHAR 0306
ENCODING 774
SWIDTH 0 0
DWIDTH 0 0
BBX 10 5 3 16
BITMAP
E0C0
E1C0
7FC0
3F80
1E00
ENDCHAR
STARTCHAR 0307
ENCODING 775
SWIDTH 0 0
DWIDTH 0 0
BBX 3 3 7 17
BITMAP
E0
E0
E0
ENDCHAR
STARTCHAR 0308
ENCODING 776
SWIDTH 0 0
DWIDTH 0 0
BBX 10 3 3 17
BITMAP
F1C0
F1C0
F1C0
ENDCHAR
STARTCHAR 0309
ENCODING 777
SWIDTH 0 0
DWIDTH 0 0
BBX 6 6 5 16
BITMAP
F8
FC
0C
0C
3C
38
ENDCHAR
STARTCHAR 030A
ENCODING 778
SWIDTH 0 0
DWIDTH 0 0
BBX 6 6 5 16
BITMAP
38
7C
CC
CC
7C
38
ENDCHAR
STARTCHAR 030B
ENCODING 779
SWIDTH 0 0
DWIDTH 0 0
BBX 12 4 2 16
BITMAP
3EF0
39E0
71C0
E380
ENDCHAR
STARTCHAR 030C
ENCODING 780
SWIDTH 0 0
DWIDTH 0 0
BBX 11 5 3 16
BITMAP
F1E0
7380
3B80
1F00
1E00
ENDCHAR
STARTCHAR 030F
ENCODING 783
SWIDTH 0 0
DWIDTH 0 0
BBX 12 4 2 16
BITMAP
FBC0
38E0
1CF0
0E70
ENDCHAR
STARTCHAR 0311
ENCODING 785
SWIDTH 0 0
DWIDTH 0 0
BBX 11 5 3 16
BITMAP
0E00
3F80
7FC0
E0C0
C0E0
ENDCHAR
STARTCHAR 0312
ENCODING 786
SWIDTH 0 0
DWIDTH 0 0
BBX 4 8 6 17
BITMAP
30
60
60
60
F0
F0
F0
F0
ENDCHAR
STARTCHAR 0313
ENCODING 787
SWIDTH 0 0
DWIDTH 0 0
BBX 4 8 6 17
BITMAP
F0
F0
F0
F0
30
30
70
E0
ENDCHAR
STARTCHAR 031B
ENCODING 795
SWIDTH 0 0
DWIDTH 0 0
BBX 6 6 5 12
BITMAP
1C
1C
3C
78
F0
E0
ENDCHAR
STARTCHAR 0323
ENCODING 803
SWIDTH 0 0
DWIDTH 0 0
BBX 5 4 6 -6
BITMAP
F8
F8
F8
F8
ENDCHAR
STARTCHAR 0324
ENCODING 804
SWIDTH 0 0
DWIDTH 0 0
BBX 10 3 3 -6
BITMAP
F1C0
F1C0
F1C0
ENDCHAR
STARTCHAR 0326
ENCODING 806
SWIDTH 0 0
DWIDTH 0 0
BBX 4 8 6 -10
BITMAP
F0
F0
F0
F0
30
30
70
E0
ENDCHAR
STARTCHAR 0327
ENCODING 807
SWIDTH 0 0
DWIDTH 0 0
BBX 7 5 5 -6
BITMAP
1C
0C
0E
FC
78
ENDCHAR
STARTCHAR 0328
ENCODING 808
SWIDTH 0 0
DWIDTH 0 0
BBX 7 4 5 -4
BITMAP
70
E0
FC
7E
ENDCHAR
STARTCHAR 032E
ENCODING 814
SWIDTH 0 0
DWIDTH 0 0
BBX 11 4 3 -6
BITMAP
C0E0
E1C0
7FC0
3F00
ENDCHAR
STARTCHAR 0330
ENCODING 816
SWIDTH 0 0
DWIDTH 0 0
BBX 11 5 3 -6
BITMAP
3060
7CE0
FFC0
C7C0
C100
ENDCHAR
STARTCHAR 0331
ENCODING 817
SWIDTH 0 0
DWIDTH 0 0
BBX 9 3 4 -5
BITMAP
FF80
FF80
FF80
ENDCHAR
STARTCHAR 0335
ENCODING 821
SWIDTH 0 0
DWIDTH 0 0
BBX 11 3 3 7
BITMAP
FFE0
FFE0
FFE0
ENDCHAR
STARTCHAR 0336
ENCODING 822
SWIDTH 0 0
DWIDTH 0 0
BBX 17 3 0 9
BITMAP
FFFF80
FFFF80
FFFF80
ENDCHAR
STARTCHAR 0337
ENCODING 823
SWIDTH 0 0
DWIDTH 0 0
BBX 11 8 3 6
BITMAP
0060
01E0
07C0
1F00
7C00
F000
C000
8000
ENDCHAR
STARTCHAR 0338
ENCODING 824
SWIDTH 0 0
DWIDTH 0 0
BBX 13 17 2 -1
BITMAP
0038
0030
0060
0060
00C0
0180
0180
0300
0700
0600
0C00
1C00
1800
3000
3000
6000
E000
ENDCHAR
STARTCHAR 0394
ENCODING 916
SWIDTH 612 0
DWIDTH 17 0
BBX 15 19 1 0
BITMAP
0FC0
0FE0
0FE0
1FE0
1FF0
1EF0
1CF0
3CF0
3CF8
3C78
7C78
7878
787C
783C
F83C
F03E
FFFE
FFFE
FFFE
ENDCHAR
STARTCHAR 03A9
ENCODING 937
SWIDTH 612 0
DWIDTH 17 0
BBX 17 19 0 0
BITMAP
0FF000
1FFC00
3FFE00
7E3E00
7C1F00
781F00
F80F00
F80F00
F80F00
F80F00
F80F00
780F00
780F00
780E00
381E00
DC1D80
FC3F80
FE7F80
FE7F80
ENDCHAR
STARTCHAR 03BC
ENCODING 956
SWIDTH 612 0
DWIDTH 17 0
BBX 14 18 2 -4
BITMAP
F0F8
F0F8
F0F8
F0F8
F0F8
F0F8
F0F8
F0F8
F0F8
F0F8
F8F8
FFFC
FFFC
FF7C
F000
F000
F000
F000
ENDCHAR
STARTCHAR 03C0
ENCODING 960
SWIDTH 612 0
DWIDTH 17 0
BBX 16 14 0 0
BITMAP
7FFF
FFFF
7FFF
1E3C
1E3C
1E3C
1E3C
1E3C
3E3C
3C3C
3C3C
3C3C
3C3C
7C3E
ENDCHAR
STARTCHAR 1E24
ENCODING 7716
SWIDTH 612 0
DWIDTH 17 0
BBX 14 25 1 -6
BITMAP
F83C
F83C
F83C
F83C
F83C
F83C
F83C
FFFC
FFFC
FFFC
FFFC
F83C
F83C
F83C
F83C
F83C
F83C
F83C
F83C
0000
0000
07C0
07C0
07C0
07C0
ENDCHAR
STARTCHAR 1E25
ENCODING 7717
SWIDTH 612 0
DWIDTH 17 0
BBX 13 26 2 -6
BITMAP
F000
F000
F000
F000
F000
F000
F7E0
FFF0
FFF8
F8F8
F0F8
F078
F078
F078
F078
F078
F078
F078
F078
F078
0000
0000
0F80
0F80
0F80
0F80
ENDCHAR
STARTCHAR 1E62
ENCODING 7778
SWIDTH 612 0
DWIDTH 17 0
BBX 15 25 1 -6
BITMAP
1FF0
3FF8
7FFC
F87C
F83E
F83E
FC00
FFC0
7FF0
3FFC
0FFE
01FE
003E
F03E
F03E
FC7E
FFFC
7FF8
1FF0
0000
0000
07C0
07C0
07C0
07C0
ENDCHAR
STARTCHAR 1E63
ENCODING 7779
SWIDTH 612 0
DWIDTH 17 0
BBX 13 20 2 -6
BITMAP
3FE0
7FF0
F8F0
F078
F800
FFC0
7FF0
3FF8
03F8
E078
F078
FFF8
7FF0
3FE0
0000
0000
0F80
0F80
0F80
0F80
ENDCHAR
STARTCHAR 1E6C
ENCODING 7788
SWIDTH 612 0
DWIDTH 17 0
BBX 15 25 1 -6
BITMAP
FFFE
FFFE
FFFE
FFFE
07C0
07C0
07C0
07C0
07C0
07C0
07C0
07C0
07C0
07C0
07C0
07C0
07C0
07C0
07C0
0000
0000
07C0
07C0
07C0
07C0
ENDCHAR
STARTCHAR 1E6D
ENCODING 7789
SWIDTH 612 0
DWIDTH 17 0
BBX 14 25 1 -6
BITMAP
0700
0700
0700
0F00
0F00
FFFC
FFFC
FFFC
0F00
0F00
0F00
0F00
0F00
0F00
0F00
0F84
0FFC
07FC
03FC
0000
0000
01E0
01E0
01E0
01E0
ENDCHAR
STARTCHAR 1E80
ENCODING 7808
SWIDTH 612 0
DWIDTH 17 0
BBX 17 25 0 0
BITMAP
0F0000
070000
038000
03C000
000000
000000
F1C780
F1C780
F1C700
F1E700
73E700
7BE700
7BEF00
7BEF00
7BEF00
7B6F00
7B6E00
7B7E00
7F7E00
3F7E00
3E7E00
3E7E00
3E3E00
3E3E00
3E3E00
ENDCHAR
STARTCHAR 1E81
ENCODING 7809
SWIDTH 612 0
DWIDTH 17 0
BBX 17 21 0 0
BITMAP
0F0000
078000
038000
01C000
01C000
000000
000000
F3C780
F3C700
F3E700
73E700
73EF00
73EF00
7F6F00
7F6E00
3F7E00
3F7E00
3E7E00
3E7E00
3E3C00
3E3C00
ENDCHAR
STARTCHAR 1E82
ENCODING 7810
SWIDTH 612 0
DWIDTH 17 0
BBX 17 25 0 0
BITMAP
007800
00F000
00E000
01C000
000000
000000
F1C780
F1C780
F1C700
F1E700
73E700
7BE700
7BEF00
7BEF00
7BEF00
7B6F00
7B6E00
7B7E00
7F7E00
3F7E00
3E7E00
3E7E00
3E3E00
3E3E00
3E3E00
ENDCHAR
STARTCHAR 1E83
ENCODING 7811
SWIDTH 612 0
DWIDTH 17 0
BBX 17 21 0 0
BITMAP
00F000
00E000
01E000
01C000
038000
000000
000000
F3C780
F3C700
F3E700
73E700
73EF00
73EF00
7F6F00
7F6E00
3F7E00
3F7E00
3E7E00
3E7E00
3E3C00
3E3C00
ENDCHAR
STARTCHAR 1E84
ENCODING 7812
SWIDTH 612 0
DWIDTH 17 0
BBX 17 24 0 0
BITMAP
1E3800
1E3800
1E3800
000000
000000
F1C780
F1C780
F1C700
F1E700
73E700
7BE700
7BEF00
7BEF00
7BEF00
7B6F00
7B6E00
7B7E00
7F7E00
3F7E00
3E7E00
3E7E00
3E3E00
3E3E00
3E3E00
ENDCHAR
STARTCHAR 1E85
ENCODING 7813
SWIDTH 612 0
DWIDTH 17 0
BBX 17 20 0 0
BITMAP
1E3800
1E3800
1E3800
000000
000000
000000
F3C780
F3C700
F3E700
73E700
73EF00
73EF00
7F6F00
7F6E00
3F7E00
3F7E00
3E7E00
3E7E00
3E3C00
3E3C00
ENDCHAR
STARTCHAR 1E9E
ENCODING 7838
SWIDTH 612 0
DWIDTH 17 0
BBX 15 19 1 0
BITMAP
0FF0
3FF8
3FFC
7C3C
783E
F81E
F83C
F83C
F9F8
F9F8
F9FC
F83E
F81E
F81E
F81E
F83E
F9FC
F9FC
F9F0
ENDCHAR
STARTCHAR 1EA0
ENCODING 7840
SWIDTH 612 0
DWIDTH 17 0
BBX 17 25 0 -6
BITMAP
07E000
07F000
07F000
0FF000
0FF000
0F7800
0E7800
1E7800
1E7C00
1E3C00
1E3C00
3C3C00
3FFE00
3FFE00
7FFE00
781F00
781F00
780F00
F80F80
000000
000000
03E000
03E000
03E000
03E000
ENDCHAR
STARTCHAR 1EA1
ENCODING 7841
SWIDTH 612 0
DWIDTH 17 0
BBX 15 20 1 -6
BITMAP
1FF0
3FF8
7CF8
7878
0078
03F8
3FF8
7FF8
7878
F878
F878
7FFE
7FBE
3F3E
0000
0000
0780
0780
0780
0780
ENDCHAR
STARTCHAR 1EA2
ENCODING 7842
SWIDTH 612 0
DWIDTH 17 0
BBX 17 27 0 0
BITMAP
03E000
03F000
027000
007000
00E000
00C000
000000
000000
07E000
07F000
07F000
0FF000
0FF000
0F7800
0E7800
1E7800
1E7C00
1E3C00
1E3C00
3C3C00
3FFE00
3FFE00
7FFE00
781F00
781F00
780F00
F80F80
ENDCHAR
STARTCHAR 1EA3
ENCODING 7843
SWIDTH 612 0
DWIDTH 17 0
BBX 15 22 1 0
BITMAP
07C0
07C0
00C0
00C0
03C0
0380
0000
0000
1FF0
3FF8
7CF8
7878
0078
03F8
3FF8
7FF8
7878
F878
F878
7FFE
7FBE
3F3E
ENDCHAR
STARTCHAR 1EA4
ENCODING 7844
SWIDTH 612 0
DWIDTH 17 0
BBX 17 30 0 0
BITMAP
007800
007000
00E000
01C000
000000
01C000
07E000
0F7000
1E3C00
000000
000000
07E000
07F000
07F000
0FF000
0FF000
0F7800
0E7800
1E7800
1E7C00
1E3C00
1E3C00
3C3C00
3FFE00
3FFE00
7FFE00
781F00
781F00
780F00
F80F80
ENDCHAR
STARTCHAR 1EA5
ENCODING 7845
SWIDTH 612 0
DWIDTH 17 0
BBX 15 26 1 0
BITMAP
00F0
00E0
01C0
0380
0000
0000
07C0
0FC0
1CE0
3870
0000
0000
1FF0
3FF8
7CF8
7878
0078
03F8
3FF8
7FF8
7878
F878
F878
7FFE
7FBE
3F3E
ENDCHAR
STARTCHAR 1EA6
ENCODING 7846
SWIDTH 612 0
DWIDTH 17 0
BBX 17 30 0 0
BITMAP
0F0000
070000
038000
03C000
000000
01C000
07E000
0F7000
1E3C00
000000
000000
07E000
07F000
07F000
0FF000
0FF000
0F7800
0E7800
1E7800
1E7C00
1E3C00
1E3C00
3C3C00
3FFE00
3FFE00
7FFE00
781F00
781F00
780F00
F80F80
ENDCHAR
STARTCHAR 1EA7
ENCODING 7847
SWIDTH 612 0
DWIDTH 17 0
BBX 15 26 1 0
BITMAP
3C00
1E00
0E00
0700
0080
0000
07C0
0FC0
1CE0
3870
0000
0000
1FF0
3FF8
7CF8
7878
0078
03F8
3FF8
7FF8
7878
F878
F878
7FFE
7FBE
3F3E
ENDCHAR
STARTCHAR 1EA8
ENCODING 7848
SWIDTH 612 0
DWIDTH 17 0
BBX 17 31 0 0
BITMAP
01E000
01E000
006000
00E000
00C000
000000
01C000
07E000
0F7000
1E3C00
000000
000000
07E000
07F000
07F000
0FF000
0FF000
0F7800
0E7800
1E7800
1E7C00
1E3C00
1E3C00
3C3C00
3FFE00
3FFE00
7FFE00
781F00
781F00
780F00
F80F80
ENDCHAR
STARTCHAR 1EA9
ENCODING 7849
SWIDTH 612 0
DWIDTH 17 0
BBX 15 27 1 0
BITMAP
0780
07C0
00C0
01C0
0180
0000
0380
07C0
0FC0
1CE0
3870
0000
0000
1FF0
3FF8
7CF8
7878
0078
03F8
3FF8
7FF8
7878
F878
F878
7FFE
7FBE
3F3E
ENDCHAR
STARTCHAR 1EAA
ENCODING 7850
SWIDTH 612 0
DWIDTH 17 0
BBX 17 29 0 0
BITMAP
0FDC00
1FF800
18F000
000000
01C000
07E000
0F7000
1E3C00
000000
000000
07E000
07F000
07F000
0FF000
0FF000
0F7800
0E7800
1E7800
1E7C00
1E3C00
1E3C00
3C3C00
3FFE00
3FFE00
7FFE00
781F00
781F00
780F00
F80F80
ENDCHAR
STARTCHAR 1EAB
ENCODING 7851
SWIDTH 612 0
DWIDTH 17 0
BBX 15 25 1 0
BITMAP
1F30
3FF0
3FE0
0000
0000
07C0
0FC0
1CE0
3870
0000
0000
1FF0
3FF8
7CF8
7878
0078
03F8
3FF8
7FF8
7878
F878
F878
7FFE
7FBE
3F3E
ENDCHAR
STARTCHAR 1EAC
ENCODING 7852
SWIDTH 612 0
DWIDTH 17 0
BBX 17 31 0 -6
BITMAP
03C000
07E000
0F7000
1E3800
000400
000000
07E000
07F000
07F000
0FF000
0FF000
0F7800
0E7800
1E7800
1E7C00
1E3C00
1E3C00
3C3C00
3FFE00
3FFE00
7FFE00
781F00
781F00
780F00
F80F80
000000
000000
03E000
03E000
03E000
03E000
ENDCHAR
STARTCHAR 1EAD
ENCODING 7853
SWIDTH 612 0
DWIDTH 17 0
BBX 15 27 1 -6
BITMAP
0780
0FC0
1FE0
1CE0
3870
0000
0000
1FF0
3FF8
7CF8
7878
0078
03F8
3FF8
7FF8
7878
F878
F878
7FFE
7FBE
3F3E
0000
0000
0780
0780
0780
0780
ENDCHAR
STARTCHAR 1EAE
ENCODING 7854
SWIDTH 612 0
DWIDTH 17 0
BBX 17 29 0 0
BITMAP
007800
00F000
00E000
01C000
1C1C00
1E3800
0FF800
07E000
000000
000000
07E000
07F000
07F000
0FF000
0FF000
0F7800
0E7800
1E7800
1E7C00
1E3C00
1E3C00
3C3C00
3FFE00
3FFE00
7FFE00
781F00
781F00
780F00
F80F80
ENDCHAR
STARTCHAR 1EAF
ENCODING 7855
SWIDTH 612 0
DWIDTH 17 0
BBX 15 25 1 0
BITMAP
00F0
01E0
01C0
0380
0000
3870
3FF0
1FE0
0000
0000
0000
1FF0
3FF8
7CF8
7878
0078
03F8
3FF8
7FF8
7878
F878
F878
7FFE
7FBE
3F3E
ENDCHAR
STARTCHAR 1EB0
ENCODING 7856
SWIDTH 612 0
DWIDTH 17 0
BBX 17 29 0 0
BITMAP
0F0000
070000
038000
01C000
1C1C00
1E3800
0FF800
03E000
000000
000000
07E000
07F000
07F000
0FF000
0FF000
0F7800
0E7800
1E7800
1E7C00
1E3C00
1E3C00
3C3C00
3FFE00
3FFE00
7FFE00
781F00
781F00
780F00
F80F80
ENDCHAR
STARTCHAR 1EB1
ENCODING 7857
SWIDTH 612 0
DWIDTH 17 0
BBX 15 25 1 0
BITMAP
3C00
0E00
0F00
0700
0080
3870
3FF0
1FC0
0000
0000
0000
1FF0
3FF8
7CF8
7878
0078
03F8
3FF8
7FF8
7878
F878
F878
7FFE
7FBE
3F3E
ENDCHAR
STARTCHAR 1EB2
ENCODING 7858
SWIDTH 612 0
DWIDTH 17 0
BBX 17 31 0 0
BITMAP
01C000
01E000
006000
006000
00E000
008000
1C1C00
1E3800
0FF800
03E000
000000
000000
07E000
07F000
07F000
0FF000
0FF000
0F7800
0E7800
1E7800
1E7C00
1E3C00
1E3C00
3C3C00
3FFE00
3FFE00
7FFE00
781F00
781F00
780F00
F80F80
ENDCHAR
STARTCHAR 1EB3
ENCODING 7859
SWIDTH 612 0
DWIDTH 17 0
BBX 15 27 1 0
BITMAP
0300
0780
07C0
00C0
0180
0300
0000
3870
3FF0
1FC0
0000
0000
0000
1FF0
3FF8
7CF8
7878
0078
03F8
3FF8
7FF8
7878
F878
F878
7FFE
7FBE
3F3E
ENDCHAR
STARTCHAR 1EB4
ENCODING 7860
SWIDTH 612 0
DWIDTH 17 0
BBX 17 30 0 0
BITMAP
020C00
0FF800
1FF800
18F000
000000
1C1C00
1E3800
0FF800
03E000
000000
000000
07E000
07F000
07F000
0FF000
0FF000
0F7800
0E7800
1E7800
1E7C00
1E3C00
1E3C00
3C3C00
3FFE00
3FFE00
7FFE00
781F00
781F00
780F00
F80F80
ENDCHAR
STARTCHAR 1EB5
ENCODING 7861
SWIDTH 612 0
DWIDTH 17 0
BBX 15 25 1 0
BITMAP
1F30
3FF0
3BE0
0000
0000
3870
3FF0
1FC0
0000
0000
0000
1FF0
3FF8
7CF8
7878
0078
03F8
3FF8
7FF8
7878
F878
F878
7FFE
7FBE
3F3E
ENDCHAR
STARTCHAR 1EB6
ENCODING 7862
SWIDTH 612 0
DWIDTH 17 0
BBX 17 31 0 -6
BITMAP
0C1800
0E3800
0FF000
07E000
000000
000000
07E000
07F000
07F000
0FF000
0FF000
0F7800
0E7800
1E7800
1E7C00
1E3C00
1E3C00
3C3C00
3FFE00
3FFE00
7FFE00
781F00
781F00
780F00
F80F80
000000
000000
03E000
03E000
03E000
03E000
ENDCHAR
STARTCHAR 1EB7
ENCODING 7863
SWIDTH 612 0
DWIDTH 17 0
BBX 15 27 1 -6
BITMAP
3030
3870
1FF0
1FE0
0780
0000
0000
1FF0
3FF8
7CF8
7878
0078
03F8
3FF8
7FF8
7878
F878
F878
7FFE
7FBE
3F3E
0000
0000
0780
0780
0780
0780
ENDCHAR
STARTCHAR 1EB8
ENCODING 7864
SWIDTH 612 0
DWIDTH 17 0
BBX 13 25 2 -6
BITMAP
FFF8
FFF8
FFF8
F800
F800
F800
F800
F800
FFF0
FFF0
FFF0
F800
F800
F800
F800
FFF8
FFF8
FFF8
FFF8
0000
0000
0780
0780
0780
0780
ENDCHAR
STARTCHAR 1EB9
ENCODING 7865
SWIDTH 612 0
DWIDTH 17 0
BBX 14 20 1 -6
BITMAP
1FF0
3FF8
7EFC
783C
F83C
FFFC
FFFC
FFFC
F800
F83C
783C
7FFC
3FF8
1FE0
0000
0000
07C0
07C0
07C0
07C0
ENDCHAR
STARTCHAR 1EBA
ENCODING 7866
SWIDTH 612 0
DWIDTH 17 0
BBX 13 27 2 0
BITMAP
0F80
0FC0
09C0
00C0
0380
0300
0000
0000
FFF8
FFF8
FFF8
F800
F800
F800
F800
F800
FFF0
FFF0
FFF0
F800
F800
F800
F800
FFF8
FFF8
FFF8
FFF8
ENDCHAR
STARTCHAR 1EBB
ENCODING 7867
SWIDTH 612 0
DWIDTH 17 0
BBX 14 22 1 0
BITMAP
07C0
07E0
00E0
00E0
01C0
0180
0000
0000
1FF0
3FF8
7EFC
783C
F83C
FFFC
FFFC
FFFC
F800
F83C
783C
7FFC
3FF8
1FE0
ENDCHAR
STARTCHAR 1EBC
ENCODING 7868
SWIDTH 612 0
DWIDTH 17 0
BBX 13 25 2 0
BITMAP
1C30
3FF0
7FE0
63E0
0000
0000
FFF8
FFF8
FFF8
F800
F800
F800
F800
F800
FFF0
FFF0
FFF0
F800
F800
F800
F800
FFF8
FFF8
FFF8
FFF8
ENDCHAR
STARTCHAR 1EBD
ENCODING 7869
SWIDTH 612 0
DWIDTH 17 0
BBX 14 21 1 0
BITMAP
0C18
1F98
3FF8
31F0
3060
0000
0000
1FF0
3FF8
7EFC
783C
F83C
FFFC
FFFC
FFFC
F800
F83C
783C
7FFC
3FF8
1FE0
ENDCHAR
STARTCHAR 1EBE
ENCODING 7870
SWIDTH 612 0
DWIDTH 17 0
BBX 13 30 2 0
BITMAP
01E0
01C0
0380
0700
0000
0700
0F80
1DC0
78F0
0000
0000
FFF8
FFF8
FFF8
F800
F800
F800
F800
F800
FFF0
FFF0
FFF0
F800
F800
F800
F800
FFF8
FFF8
FFF8
FFF8
ENDCHAR
STARTCHAR 1EBF
ENCODING 7871
SWIDTH 612 0
DWIDTH 17 0
BBX 14 26 1 0
BITMAP
0070
00E0
01E0
01C0
0200
0000
07C0
0FE0
1C70
3838
0000
0000
1FF0
3FF8
7EFC
783C
F83C
FFFC
FFFC
FFFC
F800
F83C
783C
7FFC
3FF8
1FE0
ENDCHAR
STARTCHAR 1EC0
ENCODING 7872
SWIDTH 612 0
DWIDTH 17 0
BBX 13 30 2 0
BITMAP
3C00
1C00
0E00
0700
0000
0700
0F80
1DC0
78F0
0000
0000
FFF8
FFF8
FFF8
F800
F800
F800
F800
F800
FFF0
FFF0
FFF0
F800
F800
F800
F800
FFF8
FFF8
FFF8
FFF8
ENDCHAR
STARTCHAR 1EC1
ENCODING 7873
SWIDTH 612 0
DWIDTH 17 0
BBX 14 26 1 0
BITMAP
1E00
0E00
0700
0380
0000
0000
07C0
0FE0
1C70
3838
0000
0000
1FF0
3FF8
7EFC
783C
F83C
FFFC
FFFC
FFFC
F800
F83C
783C
7FFC
3FF8
1FE0
ENDCHAR
STARTCHAR 1EC2
ENCODING 7874
SWIDTH 612 0
DWIDTH 17 0
BBX 13 31 2 0
BITMAP
0780
0780
0180
0380
0300
0000
0700
0F80
1DC0
78F0
0000
0000
FFF8
FFF8
FFF8
F800
F800
F800
F800
F800
FFF0
FFF0
FFF0
F800
F800
F800
F800
FFF8
FFF8
FFF8
FFF8
ENDCHAR
STARTCHAR 1EC3
ENCODING 7875
SWIDTH 612 0
DWIDTH 17 0
BBX 14 27 1 0
BITMAP
03C0
03C0
00C0
00C0
0180
0000
0380
07C0
0FE0
1C70
3838
0000
0000
1FF0
3FF8
7EFC
783C
F83C
FFFC
FFFC
FFFC
F800
F83C
783C
7FFC
3FF8
1FE0
ENDCHAR
STARTCHAR 1EC4
ENCODING 7876
SWIDTH 612 0
DWIDTH 17 0
BBX 13 29 2 0
BITMAP
3F70
3FE0
73E0
0000
0700
0F80
1DC0
78F0
0000
0000
FFF8
FFF8
FFF8
F800
F800
F800
F800
F800
FFF0
FFF0
FFF0
F800
F800
F800
F800
FFF8
FFF8
FFF8
FFF8
ENDCHAR
STARTCHAR 1EC5
ENCODING 7877
SWIDTH 612 0
DWIDTH 17 0
BBX 14 25 1 0
BITMAP
0F18
1FF0
3BF0
0000
0000
07C0
0FE0
1C70
3838
0000
0000
1FF0
3FF8
7EFC
783C
F83C
FFFC
FFFC
FFFC
F800
F83C
783C
7FFC
3FF8
1FE0
ENDCHAR
STARTCHAR 1EC6
ENCODING 7878
SWIDTH 612 0
DWIDTH 17 0
BBX 13 31 2 -6
BITMAP
0F80
0FC0
1DC0
78F0
0000
0000
FFF8
FFF8
FFF8
F800
F800
F800
F800
F800
FFF0
FFF0
FFF0
F800
F800
F800
F800
FFF8
FFF8
FFF8
FFF8
0000
0000
0780
0780
0780
0780
ENDCHAR
STARTCHAR 1EC7
ENCODING 7879
SWIDTH 612 0
DWIDTH 17 0
BBX 14 27 1 -6
BITMAP
07C0
07C0
0EE0
1C70
3C78
0000
0000
1FF0
3FF8
7EFC
783C
F83C
FFFC
FFFC
FFFC
F800
F83C
783C
7FFC
3FF8
1FE0
0000
0000
07C0
07C0
07C0
07C0
ENDCHAR
STARTCHAR 1EC8
ENCODING 7880
SWIDTH 612 0
DWIDTH 17 0
BBX 13 27 2 0
BITMAP
0F80
0FC0
09C0
01C0
0380
0300
0000
0000
FFF8
FFF8
FFF8
0F80
0F80
0F80
0F80
0F80
0F80
0F80
0F80
0F80
0F80
0F80
0F80
0F80
FFF8
FFF8
FFF8
ENDCHAR
STARTCHAR 1EC9
ENCODING 7881
SWIDTH 612 0
DWIDTH 17 0
BBX 14 22 2 0
BITMAP
0780
07C0
00C0
00C0
03C0
0380
0000
0000
FF80
FF80
FF80
0780
0780
0780
0780
0780
0780
0780
0780
FFFC
FFFC
FFFC
ENDCHAR
STARTCHAR 1ECA
ENCODING 7882
SWIDTH 612 0
DWIDTH 17 0
BBX 13 25 2 -6
BITMAP
FFF8
FFF8
FFF8
0F80
0F80
0F80
0F80
0F80
0F80
0F80
0F80
0F80
0F80
0F80
0F80
0F80
FFF8
FFF8
FFF8
0000
0000
0F80
0F80
0F80
0F80
ENDCHAR
STARTCHAR 1ECB
ENCODING 7883
SWIDTH 612 0
DWIDTH 17 0
BBX 14 26 2 -6
BITMAP
0780
0780
0780
0000
0000
0000
FF80
FF80
FF80
0780
0780
0780
0780
0780
0780
0780
0780
FFFC
FFFC
FFFC
0000
0000
0780
0780
0780
0780
ENDCHAR
STARTCHAR 1ECC
ENCODING 7884
SWIDTH 612 0
DWIDTH 17 0
BBX 16 25 0 -6
BITMAP
0FF0
1FFC
3FFE
7E3E
7C1F
781F
781F
F81F
F81F
F81F
F81F
F81F
781F
781F
7C1F
7E3E
3FFE
1FFC
0FF0
0000
0000
03E0
03E0
03E0
03E0
ENDCHAR
STARTCHAR 1ECD
ENCODING 7885
SWIDTH 612 0
DWIDTH 17 0
BBX 15 20 1 -6
BITMAP
1FE0
3FF8
7CF8
787C
F83C
F83C
F83E
F83E
F83C
F83C
787C
7FF8
3FF0
0FE0
0000
0000
07C0
07C0
07C0
07C0
ENDCHAR
STARTCHAR 1ECE
ENCODING 7886
SWIDTH 612 0
DWIDTH 17 0
BBX 16 27 0 0
BITMAP
03E0
03F0
0270
0070
00E0
00C0
0000
0000
0FF0
1FFC
3FFE
7E3E
7C1F
781F
781F
F81F
F81F
F81F
F81F
F81F
781F
781F
7C1F
7E3E
3FFE
1FFC
0FF0
ENDCHAR
STARTCHAR 1ECF
ENCODING 7887
SWIDTH 612 0
DWIDTH 17 0
BBX 15 22 1 0
BITMAP
07C0
07C0
00E0
00E0
01C0
0180
0000
0000
1FE0
3FF8
7CF8
787C
F83C
F83C
F83E
F83E
F83C
F83C
787C
7FF8
3FF0
0FE0
ENDCHAR
STARTCHAR 1ED0
ENCODING 7888
SWIDTH 612 0
DWIDTH 17 0
BBX 16 30 0 0
BITMAP
0078
0070
00E0
01C0
0000
01C0
07E0
0F70
1E3C
0000
0000
0FF0
1FFC
3FFE
7E3E
7C1F
781F
781F
F81F
F81F
F81F
F81F
F81F
781F
781F
7C1F
7E3E
3FFE
1FFC
0FF0
ENDCHAR
STARTCHAR 1ED1
ENCODING 7889
SWIDTH 612 0
DWIDTH 17 0
BBX 15 26 1 0
BITMAP
00F0
00E0
01C0
0380
0000
0000
07C0
0FE0
1CF0
3838
0000
0000
1FE0
3FF8
7CF8
787C
F83C
F83C
F83E
F83E
F83C
F83C
787C
7FF8
3FF0
0FE0
ENDCHAR
STARTCHAR 1ED2
ENCODING 7890
SWIDTH 612 0
DWIDTH 17 0
BBX 16 30 0 0
BITMAP
0F00
0700
0380
03C0
0000
01C0
07E0
0F70
1E3C
0000
0000
0FF0
1FFC
3FFE
7E3E
7C1F
781F
781F
F81F
F81F
F81F
F81F
F81F
781F
781F
7C1F
7E3E
3FFE
1FFC
0FF0
ENDCHAR
STARTCHAR 1ED3
ENCODING 7891
SWIDTH 612 0
DWIDTH 17 0
BBX 15 26 1 0
BITMAP
1C00
0E00
0F00
0700
0080
0000
07C0
0FE0
1CF0
3838
0000
0000
1FE0
3FF8
7CF8
787C
F83C
F83C
F83E
F83E
F83C
F83C
787C
7FF8
3FF0
0FE0
ENDCHAR
STARTCHAR 1ED4
ENCODING 7892
SWIDTH 612 0
DWIDTH 17 0
BBX 16 31 0 0
BITMAP
01E0
01E0
0060
00E0
00C0
0000
01C0
07E0
0F70
1E3C
0000
0000
0FF0
1FFC
3FFE
7E3E
7C1F
781F
781F
F81F
F81F
F81F
F81F
F81F
781F
781F
7C1F
7E3E
3FFE
1FFC
0FF0
ENDCHAR
STARTCHAR 1ED5
ENCODING 7893
SWIDTH 612 0
DWIDTH 17 0
BBX 15 27 1 0
BITMAP
0780
07C0
00C0
00C0
0180
0000
0380
07C0
0FE0
1CF0
3838
0000
0000
1FE0
3FF8
7CF8
787C
F83C
F83C
F83E
F83E
F83C
F83C
787C
7FF8
3FF0
0FE0
ENDCHAR
STARTCHAR 1ED6
ENCODING 7894
SWIDTH 612 0
DWIDTH 17 0
BBX 16 29 0 0
BITMAP
0FDC
1FF8
18F0
0000
01C0
07E0
0F70
1E3C
0000
0000
0FF0
1FFC
3FFE
7E3E
7C1F
781F
781F
F81F
F81F
F81F
F81F
F81F
781F
781F
7C1F
7E3E
3FFE
1FFC
0FF0
ENDCHAR
STARTCHAR 1ED7
ENCODING 7895
SWIDTH 612 0
DWIDTH 17 0
BBX 15 25 1 0
BITMAP
1F38
1FF0
3BF0
0000
0000
07C0
0FE0
1CF0
3838
0000
0000
1FE0
3FF8
7CF8
787C
F83C
F83C
F83E
F83E
F83C
F83C
787C
7FF8
3FF0
0FE0
ENDCHAR
STARTCHAR 1ED8
ENCODING 7896
SWIDTH 612 0
DWIDTH 17 0
BBX 16 31 0 -6
BITMAP
03C0
07E0
0F70
1E38
0004
0000
0FF0
1FFC
3FFE
7E3E
7C1F
781F
781F
F81F
F81F
F81F
F81F
F81F
781F
781F
7C1F
7E3E
3FFE
1FFC
0FF0
0000
0000
03E0
03E0
03E0
03E0
ENDCHAR
STARTCHAR 1ED9
ENCODING 7897
SWIDTH 612 0
DWIDTH 17 0
BBX 15 27 1 -6
BITMAP
07C0
0FC0
0EE0
1CF0
3878
0000
0000
1FE0
3FF8
7CF8
787C
F83C
F83C
F83E
F83E
F83C
F83C
787C
7FF8
3FF0
0FE0
0000
0000
07C0
07C0
07C0
07C0
ENDCHAR
STARTCHAR 1EDA
ENCODING 7898
SWIDTH 612 0
DWIDTH 17 0
BBX 18 25 0 0
BITMAP
007800
00F000
00E000
01C3C0
0003C0
000380
0FF780
1FFF00
3FFE00
7E3E00
7C1F00
781F00
781F00
F81F00
F81F00
F81F00
F81F00
F81F00
781F00
781F00
7C1F00
7E3E00
3FFE00
1FFC00
0FF000
ENDCHAR
STARTCHAR 1EDB
ENCODING 7899
SWIDTH 612 0
DWIDTH 17 0
BBX 17 21 1 0
BITMAP
01E000
01C000
03C000
038000
070780
000780
000700
1FEF00
3FFE00
7CF800
787C00
F83C00
F83C00
F83E00
F83E00
F83C00
F83C00
787C00
7FF800
3FF000
0FE000
ENDCHAR
STARTCHAR 1EDC
ENCODING 7900
SWIDTH 612 0
DWIDTH 17 0
BBX 18 25 0 0
BITMAP
0F0000
070000
038000
03C3C0
0003C0
000380
0FF780
1FFF00
3FFE00
7E3E00
7C1F00
781F00
781F00
F81F00
F81F00
F81F00
F81F00
F81F00
781F00
781F00
7C1F00
7E3E00
3FFE00
1FFC00
0FF000
ENDCHAR
STARTCHAR 1EDD
ENCODING 7901
SWIDTH 612 0
DWIDTH 17 0
BBX 17 21 1 0
BITMAP
1E0000
0F0000
070000
038000
038780
000780
000700
1FEF00
3FFE00
7CF800
787C00
F83C00
F83C00
F83E00
F83E00
F83C00
F83C00
787C00
7FF800
3FF000
0FE000
ENDCHAR
STARTCHAR 1EDE
ENCODING 7902
SWIDTH 612 0
DWIDTH 17 0
BBX 18 27 0 0
BITMAP
03E000
03F000
027000
007000
00E000
00C3C0
0003C0
000380
0FF780
1FFF00
3FFE00
7E3E00
7C1F00
781F00
781F00
F81F00
F81F00
F81F00
F81F00
F81F00
781F00
781F00
7C1F00
7E3E00
3FFE00
1FFC00
0FF000
ENDCHAR
STARTCHAR 1EDF
ENCODING 7903
SWIDTH 612 0
DWIDTH 17 0
BBX 17 22 1 0
BITMAP
07C000
07C000
00E000
00E000
01C000
018780
000780
000700
1FEF00
3FFE00
7CF800
787C00
F83C00
F83C00
F83E00
F83E00
F83C00
F83C00
787C00
7FF800
3FF000
0FE000
ENDCHAR
STARTCHAR 1EE0
ENCODING 7904
SWIDTH 612 0
DWIDTH 17 0
BBX 18 25 0 0
BITMAP
061800
0FF800
0FF800
08F3C0
1003C0
000380
0FF780
1FFF00
3FFE00
7E3E00
7C1F00
781F00
781F00
F81F00
F81F00
F81F00
F81F00
F81F00
781F00
781F00
7C1F00
7E3E00
3FFE00
1FFC00
0FF000
ENDCHAR
STARTCHAR 1EE1
ENCODING 7905
SWIDTH 612 0
DWIDTH 17 0
BBX 17 21 1 0
BITMAP
0E1000
1F3000
1FF000
31E000
30C780
000780
000700
1FEF00
3FFE00
7CF800
787C00
F83C00
F83C00
F83E00
F83E00
F83C00
F83C00
787C00
7FF800
3FF000
0FE000
ENDCHAR
STARTCHAR 1EE2
ENCODING 7906
SWIDTH 612 0
DWIDTH 17 0
BBX 18 28 0 -6
BITMAP
0003C0
0003C0
000380
0FF780
1FFF00
3FFE00
7E3E00
7C1F00
781F00
781F00
F81F00
F81F00
F81F00
F81F00
F81F00
781F00
781F00
7C1F00
7E3E00
3FFE00
1FFC00
0FF000
000000
000000
03E000
03E000
03E000
03E000
ENDCHAR
STARTCHAR 1EE3
ENCODING 7907
SWIDTH 612 0
DWIDTH 17 0
BBX 17 23 1 -6
BITMAP
000780
000780
000700
1FEF00
3FFE00
7CF800
787C00
F83C00
F83C00
F83E00
F83E00
F83C00
F83C00
787C00
7FF800
3FF000
0FE000
000000
000000
07C000
07C000
07C000
07C000
ENDCHAR
STARTCHAR 1EE4
ENCODING 7908
SWIDTH 612 0
DWIDTH 17 0
BBX 14 25 1 -6
BITMAP
F83C
F83C
F83C
F83C
F83C
F83C
F83C
F83C
F83C
F83C
F83C
F83C
F83C
F83C
F83C
7C7C
7FFC
3FF8
1FF0
0000
0000
07C0
07C0
07C0
07C0
ENDCHAR
STARTCHAR 1EE5
ENCODING 7909
SWIDTH 612 0
DWIDTH 17 0
BBX 14 20 2 -6
BITMAP
F0F8
F0F8
F0F8
F0F8
F0F8
F0F8
F0F8
F0F8
F0F8
F0F8
F8F8
FFFC
FFFC
7F7C
0000
0000
0F00
0F00
0F00
0F00
ENDCHAR
STARTCHAR 1EE6
ENCODING 7910
SWIDTH 612 0
DWIDTH 17 0
BBX 14 27 1 0
BITMAP
07C0
07E0
04E0
00E0
01C0
0180
0000
0000
F83C
F83C
F83C
F83C
F83C
F83C
F83C
F83C
F83C
F83C
F83C
F83C
F83C
F83C
F83C
7C7C
7FFC
3FF8
1FF0
ENDCHAR
STARTCHAR 1EE7
ENCODING 7911
SWIDTH 612 0
DWIDTH 17 0
BBX 14 22 2 0
BITMAP
0F80
0F80
01C0
0180
0780
0700
0000
0000
F0F8
F0F8
F0F8
F0F8
F0F8
F0F8
F0F8
F0F8
F0F8
F0F8
F8F8
FFFC
FFFC
7F7C
ENDCHAR
STARTCHAR 1EE8
ENCODING 7912
SWIDTH 612 0
DWIDTH 17 0
BBX 18 25 1 0
BITMAP
00F000
01E000
01C3C0
038380
000380
000780
F83F00
F83C00
F83C00
F83C00
F83C00
F83C00
F83C00
F83C00
F83C00
F83C00
F83C00
F83C00
F83C00
F83C00
F83C00
7C7C00
7FFC00
3FF800
1FF000
ENDCHAR
STARTCHAR 1EE9
ENCODING 7913
SWIDTH 612 0
DWIDTH 17 0
BBX 16 21 2 0
BITMAP
03C0
0380
0700
070F
0E0F
000E
001E
F0FC
F0F8
F0F8
F0F8
F0F8
F0F8
F0F8
F0F8
F0F8
F0F8
F8F8
FFFC
FFFC
7F7C
ENDCHAR
STARTCHAR 1EEA
ENCODING 7914
SWIDTH 612 0
DWIDTH 17 0
BBX 18 25 1 0
BITMAP
1E0000
0E0000
0703C0
078380
000380
000780
F83F00
F83C00
F83C00
F83C00
F83C00
F83C00
F83C00
F83C00
F83C00
F83C00
F83C00
F83C00
F83C00
F83C00
F83C00
7C7C00
7FFC00
3FF800
1FF000
ENDCHAR
STARTCHAR 1EEB
ENCODING 7915
SWIDTH 612 0
DWIDTH 17 0
BBX 16 21 2 0
BITMAP
3C00
1E00
0E00
0F0F
070F
000E
001E
F0FC
F0F8
F0F8
F0F8
F0F8
F0F8
F0F8
F0F8
F0F8
F0F8
F8F8
FFFC
FFFC
7F7C
ENDCHAR
STARTCHAR 1EEC
ENCODING 7916
SWIDTH 612 0
DWIDTH 17 0
BBX 18 27 1 0
BITMAP
07C000
07E000
04E000
00E000
01C3C0
018380
000380
000780
F83F00
F83C00
F83C00
F83C00
F83C00
F83C00
F83C00
F83C00
F83C00
F83C00
F83C00
F83C00
F83C00
F83C00
F83C00
7C7C00
7FFC00
3FF800
1FF000
ENDCHAR
STARTCHAR 1EED
ENCODING 7917
SWIDTH 612 0
DWIDTH 17 0
BBX 16 22 2 0
BITMAP
0F80
0F80
01C0
0180
078F
070F
000E
001E
F0FC
F0F8
F0F8
F0F8
F0F8
F0F8
F0F8
F0F8
F0F8
F0F8
F8F8
FFFC
FFFC
7F7C
ENDCHAR
STARTCHAR 1EEE
ENCODING 7918
SWIDTH 612 0
DWIDTH 17 0
BBX 18 25 1 0
BITMAP
0C1800
1FF800
3FF3C0
31E380
000380
000780
F83F00
F83C00
F83C00
F83C00
F83C00
F83C00
F83C00
F83C00
F83C00
F83C00
F83C00
F83C00
F83C00
F83C00
F83C00
7C7C00
7FFC00
3FF800
1FF000
ENDCHAR
STARTCHAR 1EEF
ENCODING 7919
SWIDTH 612 0
DWIDTH 17 0
BBX 16 21 2 0
BITMAP
1860
3E60
7FE0
67CF
608F
000E
001E
F0FC
F0F8
F0F8
F0F8
F0F8
F0F8
F0F8
F0F8
F0F8
F0F8
F8F8
FFFC
FFFC
7F7C
ENDCHAR
STARTCHAR 1EF0
ENCODING 7920
SWIDTH 612 0
DWIDTH 17 0
BBX 18 29 1 -6
BITMAP
0003C0
000380
000380
000780
F83F00
F83C00
F83C00
F83C00
F83C00
F83C00
F83C00
F83C00
F83C00
F83C00
F83C00
F83C00
F83C00
F83C00
F83C00
7C7C00
7FFC00
3FF800
1FF000
000000
000000
07C000
07C000
07C000
07C000
ENDCHAR
STARTCHAR 1EF1
ENCODING 7921
SWIDTH 612 0
DWIDTH 17 0
BBX 16 24 2 -6
BITMAP
000F
000F
000E
001E
F0FC
F0F8
F0F8
F0F8
F0F8
F0F8
F0F8
F0F8
F0F8
F0F8
F8F8
FFFC
FFFC
7F7C
0000
0000
0F00
0F00
0F00
0F00
ENDCHAR
STARTCHAR 1EF2
ENCODING 7922
SWIDTH 612 0
DWIDTH 17 0
BBX 16 25 0 0
BITMAP
0F00
0700
0380
03C0
0000
0000
F80F
7C1F
7C1E
3E3E
3E3C
1F7C
1F78
0FF8
0FF0
07F0
07F0
03E0
03E0
03E0
03E0
03E0
03E0
03E0
03E0
ENDCHAR
STARTCHAR 1EF3
ENCODING 7923
SWIDTH 612 0
DWIDTH 17 0
BBX 15 26 1 -5
BITMAP
0F00
0700
0780
0380
01C0
0000
0000
F83E
783C
7C3C
7C78
3C78
3E78
1EF0
1EF0
1FE0
0FE0
0FE0
0FC0
07C0
07C0
0780
0F80
7F00
7E00
7C00
ENDCHAR
STARTCHAR 1EF4
ENCODING 7924
SWIDTH 612 0
DWIDTH 17 0
BBX 16 25 0 -6
BITMAP
F80F
7C1F
7C1E
3E3E
3E3C
1F7C
1F78
0FF8
0FF0
07F0
07F0
03E0
03E0
03E0
03E0
03E0
03E0
03E0
03E0
0000
0000
03E0
03E0
03E0
03E0
ENDCHAR
STARTCHAR 1EF5
ENCODING 7925
SWIDTH 612 0
DWIDTH 17 0
BBX 15 20 1 -6
BITMAP
F83E
783C
7C3C
7C78
3C78
3E78
1EF0
1EF0
1FE0
0FE0
0FE0
0FC0
07C0
07C0
0780
0F80
7F1E
7E1E
7C1E
001E
ENDCHAR
STARTCHAR 1EF6
ENCODING 7926
SWIDTH 612 0
DWIDTH 17 0
BBX 16 27 0 0
BITMAP
03E0
03F0
0270
0070
00E0
00C0
0000
0000
F80F
7C1F
7C1E
3E3E
3E3C
1F7C
1F78
0FF8
0FF0
07F0
07F0
03E0
03E0
03E0
03E0
03E0
03E0
03E0
03E0
ENDCHAR
STARTCHAR 1EF7
ENCODING 7927
SWIDTH 612 0
DWIDTH 17 0
BBX 15 27 1 -5
BITMAP
07C0
07E0
00E0
00E0
01C0
0180
0000
0000
F83E
783C
7C3C
7C78
3C78
3E78
1EF0
1EF0
1FE0
0FE0
0FE0
0FC0
07C0
07C0
0780
0F80
7F00
7E00
7C00
ENDCHAR
STARTCHAR 1EF8
ENCODING 7928
SWIDTH 612 0
DWIDTH 17 0
BBX 16 25 0 0
BITMAP
060C
0FFC
1FF8
18F0
0000
0000
F80F
7C1F
7C1E
3E3E
3E3C
1F7C
1F78
0FF8
0FF0
07F0
07F0
03E0
03E0
03E0
03E0
03E0
03E0
03E0
03E0
ENDCHAR
STARTCHAR 1EF9
ENCODING 7929
SWIDTH 612 0
DWIDTH 17 0
BBX 15 26 1 -5
BITMAP
0C18
1F98
3FF8
31F0
3040
0000
0000
F83E
783C
7C3C
7C78
3C78
3E78
1EF0
1EF0
1FE0
0FE0
0FE0
0FC0
07C0
07C0
0780
0F80
7F00
7E00
7C00
ENDCHAR
STARTCHAR 2009
ENCODING 8201
SWIDTH 612 0
DWIDTH 17 0
BBX 0 0 0 0
BITMAP
ENDCHAR
STARTCHAR 2010
ENCODING 8208
SWIDTH 612 0
DWIDTH 17 0
BBX 7 3 5 6
BITMAP
FE
FE
FE
ENDCHAR
STARTCHAR 2011
ENCODING 8209
SWIDTH 612 0
DWIDTH 17 0
BBX 7 3 5 6
BITMAP
FE
FE
FE
ENDCHAR
STARTCHAR 2013
ENCODING 8211
SWIDTH 612 0
DWIDTH 17 0
BBX 11 3 3 6
BITMAP
FFE0
FFE0
FFE0
ENDCHAR
STARTCHAR 2014
ENCODING 8212
SWIDTH 612 0
DWIDTH 17 0
BBX 17 3 0 6
BITMAP
FFFF80
FFFF80
FFFF80
ENDCHAR
STARTCHAR 2018
ENCODING 8216
SWIDTH 612 0
DWIDTH 17 0
BBX 5 10 6 10
BITMAP
38
70
60
E0
E0
E0
F8
F8
F8
F8
ENDCHAR
STARTCHAR 2019
ENCODING 8217
SWIDTH 612 0
DWIDTH 17 0
BBX 5 10 6 10
BITMAP
F8
F8
F8
F8
F8
38
30
30
70
E0
ENDCHAR
STARTCHAR 201A
ENCODING 8218
SWIDTH 612 0
DWIDTH 17 0
BBX 5 10 6 -5
BITMAP
F8
F8
F8
F8
F8
38
30
30
70
E0
ENDCHAR
STARTCHAR 201C
ENCODING 8220
SWIDTH 612 0
DWIDTH 17 0
BBX 11 10 3 10
BITMAP
30E0
70C0
61C0
E180
C380
C380
F3E0
F3E0
F3E0
F3E0
ENDCHAR
STARTCHAR 201D
ENCODING 8221
SWIDTH 612 0
DWIDTH 17 0
BBX 11 10 3 10
BITMAP
F3E0
F3E0
F3E0
F3E0
F3E0
30E0
30E0
70C0
61C0
E380
ENDCHAR
STARTCHAR 201E
ENCODING 8222
SWIDTH 612 0
DWIDTH 17 0
BBX 11 10 3 -5
BITMAP
F3E0
F3E0
F3E0
F3E0
F3E0
30E0
30E0
70C0
61C0
E380
ENDCHAR
STARTCHAR 2020
ENCODING 8224
SWIDTH 612 0
DWIDTH 17 0
BBX 14 24 1 -5
BITMAP
0380
0380
0380
0380
0380
FFFC
FFFC
FFFC
0380
0380
0380
0380
0380
0380
0380
0380
0380
0380
0380
0380
0380
0380
0380
0380
ENDCHAR
STARTCHAR 2021
ENCODING 8225
SWIDTH 612 0
DWIDTH 17 0
BBX 14 24 1 -5
BITMAP
0380
0380
0380
0380
0380
FFFC
FFFC
FFFC
0380
0380
0380
0380
0380
0380
0380
0380
FFFC
FFFC
FBFC
0380
0380
0380
0380
0380
ENDCHAR
STARTCHAR 2022
ENCODING 8226
SWIDTH 612 0
DWIDTH 17 0
BBX 9 9 4 5
BITMAP
3E00
7F00
FF00
FF80
FF80
FF80
FF00
7F00
3C00
ENDCHAR
STARTCHAR 2026
ENCODING 8230
SWIDTH 612 0
DWIDTH 17 0
BBX 15 4 1 0
BITMAP
F39E
F39E
F39E
F39E
ENDCHAR
STARTCHAR 2030
ENCODING 8240
SWIDTH 612 0
DWIDTH 17 0
BBX 15 19 1 0
BITMAP
7C00
FE00
C600
C600
C600
C600
FE00
7C00
0000
FFFE
0000
7C7C
EEFC
C6CE
C6CE
C6CE
C6CE
FEFC
7C78
ENDCHAR
STARTCHAR 2032
ENCODING 8242
SWIDTH 612 0
DWIDTH 17 0
BBX 5 5 6 14
BITMAP
78
70
F0
E0
E0
ENDCHAR
STARTCHAR 2033
ENCODING 8243
SWIDTH 612 0
DWIDTH 17 0
BBX 10 5 3 14
BITMAP
7BC0
7BC0
7380
7380
E700
ENDCHAR
STARTCHAR 2039
ENCODING 8249
SWIDTH 612 0
DWIDTH 17 0
BBX 6 9 5 5
BITMAP
1C
3C
38
78
F0
70
78
38
1C
ENDCHAR
STARTCHAR 203A
ENCODING 8250
SWIDTH 612 0
DWIDTH 17 0
BBX 7 9 5 5
BITMAP
F0
70
38
3C
1E
3C
38
78
F0
ENDCHAR
STARTCHAR 2044
ENCODING 8260
SWIDTH 612 0
DWIDTH 17 0
BBX 17 19 0 0
BITMAP
000380
000700
000E00
000C00
001800
003000
007000
006000
000000
000000
000000
030000
060000
0E0000
1C0000
180000
300000
700000
E00000
ENDCHAR
STARTCHAR 2052
ENCODING 8274
SWIDTH 612 0
DWIDTH 17 0
BBX 16 24 0 -4
BITMAP
0007
0007
3C0E
3C0E
3C1C
3C1C
3C38
0078
0070
00E0
00E0
01C0
01C0
0380
0380
0700
0F00
0E00
1C1E
1C1E
381E
381E
701E
F000
ENDCHAR
STARTCHAR 2070
ENCODING 8304
SWIDTH 612 0
DWIDTH 17 0
BBX 7 11 5 11
BITMAP
7C
EE
C6
C6
C6
C6
C6
C6
CE
7C
10
ENDCHAR
STARTCHAR 2074
ENCODING 8308
SWIDTH 612 0
DWIDTH 17 0
BBX 8 10 4 12
BITMAP
38
36
76
6E
6E
CE
FF
FF
0E
0E
ENDCHAR
STARTCHAR 2075
ENCODING 8309
SWIDTH 612 0
DWIDTH 17 0
BBX 8 11 4 11
BITMAP
7E
7E
60
6C
7E
67
03
C3
FF
7E
08
ENDCHAR
STARTCHAR 2076
ENCODING 8310
SWIDTH 612 0
DWIDTH 17 0
BBX 8 11 4 11
BITMAP
3E
7F
E3
E0
FE
E7
E3
E3
E7
7E
08
ENDCHAR
STARTCHAR 2077
ENCODING 8311
SWIDTH 612 0
DWIDTH 17 0
BBX 7 10 5 12
BITMAP
FE
FE
0C
1C
18
38
30
70
70
70
ENDCHAR
STARTCHAR 2078
ENCODING 8312
SWIDTH 612 0
DWIDTH 17 0
BBX 8 11 4 11
BITMAP
3E
7F
63
63
7E
7E
63
E3
77
7F
08
ENDCHAR
STARTCHAR 2079
ENCODING 8313
SWIDTH 612 0
DWIDTH 17 0
BBX 8 11 4 11
BITMAP
7C
FE
C7
C7
E7
7F
17
C7
EF
7E
10
ENDCHAR
STARTCHAR 207F
ENCODING 8319
SWIDTH 612 0
DWIDTH 17 0
BBX 8 8 4 11
BITMAP
FF
FF
E3
E3
E3
E3
E3
E3
ENDCHAR
STARTCHAR 2080
ENCODING 8320
SWIDTH 612 0
DWIDTH 17 0
BBX 7 11 5 -6
BITMAP
7C
EE
C6
C6
C6
C6
C6
C6
CE
7C
10
ENDCHAR
STARTCHAR 2081
ENCODING 8321
SWIDTH 612 0
DWIDTH 17 0
BBX 7 10 5 -5
BITMAP
30
F0
F0
30
30
30
30
30
FE
FE
ENDCHAR
STARTCHAR 2082
ENCODING 8322
SWIDTH 612 0
DWIDTH 17 0
BBX 8 10 4 -5
BITMAP
3E
7F
63
83
07
0E
3C
70
7F
FF
ENDCHAR
STARTCHAR 2083
ENCODING 8323
SWIDTH 612 0
DWIDTH 17 0
BBX 8 11 4 -6
BITMAP
3E
7F
63
03
1E
1F
03
E3
F7
7E
18
ENDCHAR
STARTCHAR 2084
ENCODING 8324
SWIDTH 612 0
DWIDTH 17 0
BBX 8 10 4 -5
BITMAP
38
36
76
6E
6E
CE
FF
FF
0E
0E
ENDCHAR
STARTCHAR 2085
ENCODING 8325
SWIDTH 612 0
DWIDTH 17 0
BBX 8 11 4 -6
BITMAP
7E
7E
60
6C
7E
67
03
C3
FF
7E
08
ENDCHAR
STARTCHAR 2086
ENCODING 8326
SWIDTH 612 0
DWIDTH 17 0
BBX 8 11 4 -6
BITMAP
3E
7F
E3
E0
FE
E7
E3
E3
E7
7E
08
ENDCHAR
STARTCHAR 2087
ENCODING 8327
SWIDTH 612 0
DWIDTH 17 0
BBX 7 10 5 -5
BITMAP
FE
FE
0C
1C
18
38
30
70
70
70
ENDCHAR
STARTCHAR 2088
ENCODING 8328
SWIDTH 612 0
DWIDTH 17 0
BBX 8 11 4 -6
BITMAP
3E
7F
63
63
7E
7E
63
E3
77
7F
08
ENDCHAR
STARTCHAR 2089
ENCODING 8329
SWIDTH 612 0
DWIDTH 17 0
BBX 8 11 4 -6
BITMAP
7C
FE
C7
C7
E7
7F
17
C7
EF
7E
10
ENDCHAR
STARTCHAR 2099
ENCODING 8345
SWIDTH 612 0
DWIDTH 17 0
BBX 8 8 4 -3
BITMAP
FF
FF
E3
E3
E3
E3
E3
E3
ENDCHAR
STARTCHAR 20A1
ENCODING 8353
SWIDTH 612 0
DWIDTH 17 0
BBX 16 23 1 -2
BITMAP
0033
0036
03FE
0FFE
1FFC
3FCC
7EDC
7DD8
7998
F9B0
FB30
FB30
FB60
FE60
7EE0
7EC0
7EC0
3FD8
1FF8
1FF8
1BF8
3300
1100
ENDCHAR
STARTCHAR 20A3
ENCODING 8355
SWIDTH 612 0
DWIDTH 17 0
BBX 15 19 0 0
BITMAP
3FFE
3FFE
3FFE
3FFE
3E00
3E00
3E00
3E00
3FFC
3FFC
3FFC
3E00
3E00
FFE0
FFE0
FFE0
3E00
3E00
3E00
ENDCHAR
STARTCHAR 20A4
ENCODING 8356
SWIDTH 612 0
DWIDTH 17 0
BBX 15 19 1 0
BITMAP
07F0
1FFC
1FFC
3E3E
3C1E
3C1E
3C00
FFC0
FFC0
FFC0
3C00
FFC0
FFC0
FFC0
3C00
3C00
FFFC
FFFC
FFFC
ENDCHAR
STARTCHAR 20A6
ENCODING 8358
SWIDTH 612 0
DWIDTH 17 0
BBX 17 19 0 0
BITMAP
7C1E00
7E1E00
7E1E00
7F1E00
7F1E00
FFFF80
FFFF80
FFFF80
7FDE00
7FDE00
7DFE00
FFFF80
FFFF80
FFFF80
7C7E00
7C7E00
7C3E00
7C3E00
7C1E00
ENDCHAR
STARTCHAR 20A7
ENCODING 8359
SWIDTH 612 0
DWIDTH 17 0
BBX 18 19 0 0
BITMAP
7FF800
7FFC00
7FFE00
7C3F00
7C1F00
FFFFC0
FFFFC0
7C1F00
7C1F00
7FFE00
7FFE00
7FF800
7C0000
7C0000
7C0000
7C0000
7C0000
7C0000
7C0000
ENDCHAR
STARTCHAR 20A9
ENCODING 8361
SWIDTH 612 0
DWIDTH 17 0
BBX 17 19 0 0
BITMAP
F1C780
F1C780
F1C700
F1E700
73E700
7BE700
FFFF80
FFFF80
FFFF80
7B6F00
7B6E00
FFFF80
FFFF80
FFFF80
3E7E00
3E7E00
3E3E00
3E3E00
3E3E00
ENDCHAR
STARTCHAR 20AB
ENCODING 8363
SWIDTH 612 0
DWIDTH 17 0
BBX 15 25 1 -5
BITMAP
007C
07FE
07FE
07FE
007C
007C
1FFC
3FFC
7FFC
787C
F87C
F87C
F87C
F87C
F87C
F87C
787C
7FFC
3FFC
1FBC
0000
0000
7FFC
7FFC
7FFC
ENDCHAR
STARTCHAR 20AC
ENCODING 8364
SWIDTH 612 0
DWIDTH 17 0
BBX 14 19 1 0
BITMAP
01FC
07FC
0FFC
0FE4
1F00
1E00
FFE0
FFE0
FFE0
3C00
FFE0
FFE0
FFE0
1F00
1F80
0FEC
0FFC
07FC
01FC
ENDCHAR
STARTCHAR 20AD
ENCODING 8365
SWIDTH 612 0
DWIDTH 17 0
BBX 17 19 0 0
BITMAP
7C1F00
7C1E00
7C3E00
7C3C00
7C7C00
7CF800
7CF800
7DF000
FFFF00
FFFF00
7DF000
7DF000
7CF800
7CF800
7C7C00
7C7C00
7C3E00
7C3F00
7C1F80
ENDCHAR
STARTCHAR 20B1
ENCODING 8369
SWIDTH 612 0
DWIDTH 17 0
BBX 18 19 0 0
BITMAP
7FF800
7FFC00
7FFE00
FC3FC0
FC1FC0
FC0FC0
7C0F00
FC1FC0
FC1FC0
7FFE00
7FFC00
7FF800
7C0000
7C0000
7C0000
7C0000
7C0000
7C0000
7C0000
ENDCHAR
STARTCHAR 20B2
ENCODING 8370
SWIDTH 612 0
DWIDTH 17 0
BBX 16 23 0 -2
BITMAP
01C0
01C0
0FF0
1FFC
3FFE
7FFE
79DF
79CF
F9CF
F9C0
F9C0
F9FF
F9FF
F9FF
79CF
79CF
79DF
7FFF
3FFF
1FF7
0FE7
01C0
01C0
ENDCHAR
STARTCHAR 20B5
ENCODING 8373
SWIDTH 612 0
DWIDTH 17 0
BBX 16 23 0 -2
BITMAP
0030
0060
0FF0
1FFC
3FFC
7EFE
7CDE
78DF
78DF
F9DF
F980
F980
F980
F99F
7B1F
7B1F
7F1E
7F3E
3FFC
1FF8
0FF0
0600
0600
ENDCHAR
STARTCHAR 20B9
ENCODING 8377
SWIDTH 612 0
DWIDTH 17 0
BBX 16 19 1 0
BITMAP
FFFF
FFFE
FFFE
03F0
FFFE
FFFC
FFFC
01F0
07F0
FFE0
FFC0
FE00
7E00
3E00
1F00
1F80
0FC0
07E0
03F0
ENDCHAR
STARTCHAR 20BA
ENCODING 8378
SWIDTH 612 0
DWIDTH 17 0
BBX 15 19 1 0
BITMAP
7C00
7C00
7C80
7F80
7F80
7F00
7E00
FC80
FF80
FF80
FF00
7C00
FC3E
FC3E
FC3C
7FFC
7FFC
7FF8
7FE0
ENDCHAR
STARTCHAR 20BC
ENCODING 8380
SWIDTH 612 0
DWIDTH 17 0
BBX 16 21 0 0
BITMAP
01C0
01C0
0FF8
1FFC
3FFE
7FFF
79CF
F9CF
F1CF
F1CF
F1CF
F1CF
F1CF
F1CF
F1CF
F1CF
F1CF
F1CF
F00F
F00F
F00F
ENDCHAR
STARTCHAR 20BD
ENCODING 8381
SWIDTH 612 0
DWIDTH 17 0
BBX 16 19 0 0
BITMAP
7FF8
7FFC
7FFE
7C7F
7C1F
7C1F
7C1F
7C1F
FFFF
FFFE
FFFC
FFF0
7C00
FFC0
FFC0
FFC0
7C00
7C00
7C00
ENDCHAR
STARTCHAR 2113
ENCODING 8467
SWIDTH 612 0
DWIDTH 17 0
BBX 13 19 1 0
BITMAP
07E0
0FF0
1FF8
1E38
3E18
3E18
3E18
3E38
3E38
3E70
FFE0
FFC0
FE00
3E00
3E00
3E00
1FE0
1FE0
0FE0
ENDCHAR
STARTCHAR 2116
ENCODING 8470
SWIDTH 612 0
DWIDTH 17 0
BBX 15 19 1 0
BITMAP
E780
F780
F780
F780
F780
F780
FF9C
FFBE
FFE6
FFE6
FFE6
EFE6
EFE6
EFE6
EFBE
EFBC
E780
E7FE
E7FE
ENDCHAR
STARTCHAR 2117
ENCODING 8471
SWIDTH 612 0
DWIDTH 17 0
BBX 17 19 0 0
BITMAP
07F000
1C3C00
300C00
700600
67F300
47FB00
C63B00
C61900
C63900
C7F980
C7F100
C60100
C60300
460300
660300
300600
300C00
1C3C00
07F000
ENDCHAR
STARTCHAR 2122
ENCODING 8482
SWIDTH 612 0
DWIDTH 17 0
BBX 17 11 0 8
BITMAP
FDC780
FDC780
31EF80
31EF80
31EF80
31EF80
31EF80
31EB80
31AB80
31BB80
31BB80
ENDCHAR
STARTCHAR 2126
ENCODING 8486
SWIDTH 612 0
DWIDTH 17 0
BBX 17 19 0 0
BITMAP
0FF000
1FFC00
3FFE00
7E3E00
7C1F00
781F00
F80F00
F80F00
F80F00
F80F00
F80F00
780F00
780F00
780E00
381E00
DC1D80
FC3F80
FE7F80
FE7F80
ENDCHAR
STARTCHAR 212E
ENCODING 8494
SWIDTH 612 0
DWIDTH 17 0
BBX 17 19 0 0
BITMAP
07F000
1FFC00
3C1C00
780E00
780F00
780F00
F80F00
F80F00
FFFF80
FFFF80
FFFF80
F80000
F80000
780000
780000
780600
3C0F00
1FFC00
07F800
ENDCHAR
STARTCHAR 2202
ENCODING 8706
SWIDTH 612 0
DWIDTH 17 0
BBX 14 19 1 0
BITMAP
0FE0
0FF0
0FF8
007C
003C
003C
003C
1F3C
3FFC
7FFC
F87C
F03C
F03C
F03C
F03C
F87C
7FF8
3FF0
1FE0
ENDCHAR
STARTCHAR 2205
ENCODING 8709
SWIDTH 612 0
DWIDTH 17 0
BBX 15 15 1 2
BITMAP
0008
0FEC
1FFE
3C78
7078
70FC
61DC
E39C
E71C
7E1C
7C3C
3C78
7FF0
EFE0
4100
ENDCHAR
STARTCHAR 2206
ENCODING 8710
SWIDTH 612 0
DWIDTH 17 0
BBX 15 19 1 0
BITMAP
0FC0
0FE0
0FE0
1FE0
1FF0
1EF0
1CF0
3CF0
3CF8
3C78
7C78
7878
787C
783C
F83C
F03E
FFFE
FFFE
FFFE
ENDCHAR
STARTCHAR 220F
ENCODING 8719
SWIDTH 612 0
DWIDTH 17 0
BBX 17 23 0 -3
BITMAP
FFFF80
FFFF80
FFFF80
FFFF80
3E3E00
3E3E00
3E3E00
3E3E00
3E3E00
3E3E00
3E3E00
3E3E00
3E3E00
3E3E00
3E3E00
3E3E00
3E3E00
3E3E00
3E3E00
3E3E00
3E3E00
3E3E00
3E3E00
ENDCHAR
STARTCHAR 2211
ENCODING 8721
SWIDTH 612 0
DWIDTH 17 0
BBX 15 23 1 -3
BITMAP
FFFC
FFFC
FFFC
FFFC
7E00
3F00
1F80
0F80
07C0
07E0
03F0
01F0
03E0
07C0
0F80
1F00
1E00
3E00
7C00
FFFE
FFFE
FFFE
FFFE
ENDCHAR
STARTCHAR 2212
ENCODING 8722
SWIDTH 612 0
DWIDTH 17 0
BBX 14 3 1 6
BITMAP
FFFC
FFFC
FFFC
ENDCHAR
STARTCHAR 2215
ENCODING 8725
SWIDTH 612 0
DWIDTH 17 0
BBX 14 19 1 0
BITMAP
000C
0018
0038
0030
0060
0060
00C0
01C0
0180
0300
0300
0600
0E00
0C00
1800
1800
3000
7000
E000
ENDCHAR
STARTCHAR 2219
ENCODING 8729
SWIDTH 612 0
DWIDTH 17 0
BBX 5 4 6 6
BITMAP
F8
F8
F8
F8
ENDCHAR
STARTCHAR 221A
ENCODING 8730
SWIDTH 612 0
DWIDTH 17 0
BBX 16 27 0 -4
BITMAP
0007
0007
0007
000F
000F
000E
000E
000E
001E
001E
001C
001C
0C1C
7E1C
FE38
5E38
1F38
0F38
0F38
0F70
0770
07F0
07F0
07F0
03E0
03E0
03E0
ENDCHAR
STARTCHAR 221E
ENCODING 8734
SWIDTH 612 0
DWIDTH 17 0
BBX 16 10 0 3
BITMAP
1C1C
3E3E
7777
63E3
E1C3
E1C3
E3C3
6367
7E7E
3C3C
ENDCHAR
STARTCHAR 222B
ENCODING 8747
SWIDTH 612 0
DWIDTH 17 0
BBX 7 28 5 -7
BITMAP
1E
3E
78
78
78
78
78
38
38
38
38
38
38
38
38
38
38
38
38
38
38
38
38
38
38
38
F8
F0
ENDCHAR
STARTCHAR 2248
ENCODING 8776
SWIDTH 612 0
DWIDTH 17 0
BBX 16 12 0 1
BITMAP
0C01
3F83
7FFF
F3FF
C07C
8000
0C01
3F83
7FFF
F3FF
C07C
8000
ENDCHAR
STARTCHAR 2260
ENCODING 8800
SWIDTH 612 0
DWIDTH 17 0
BBX 14 14 1 0
BITMAP
003C
0030
FFFC
FFFC
FFFC
01C0
0380
0300
FFFC
FFFC
FFFC
1C00
3800
7000
ENDCHAR
STARTCHAR 2264
ENCODING 8804
SWIDTH 612 0
DWIDTH 17 0
BBX 14 14 1 0
BITMAP
003C
01FC
1FFC
FFE0
FC00
FC00
FFE0
1FFC
01FC
001C
0000
FFFC
FFFC
FFFC
ENDCHAR
STARTCHAR 2265
ENCODING 8805
SWIDTH 612 0
DWIDTH 17 0
BBX 14 14 2 0
BITMAP
E000
FE00
FFE0
1FFC
00FC
00FC
1FFC
FFE0
FE00
E000
0000
FFFC
FFFC
FFFC
ENDCHAR
STARTCHAR 25CA
ENCODING 9674
SWIDTH 612 0
DWIDTH 17 0
BBX 13 19 2 0
BITMAP
0F00
0F80
1F80
1DC0
3DC0
38E0
78E0
7070
F070
E038
F070
7070
78E0
38E0
3DC0
1DC0
1F80
0F80
0F00
ENDCHAR
STARTCHAR 27E8
ENCODING 10216
SWIDTH 612 0
DWIDTH 17 0
BBX 8 18 4 -1
BITMAP
03
07
06
0C
1C
18
38
70
60
E0
70
30
18
1C
0C
06
07
03
ENDCHAR
STARTCHAR 27E9
ENCODING 10217
SWIDTH 612 0
DWIDTH 17 0
BBX 8 18 4 -1
BITMAP
E0
60
30
38
18
0C
0E
06
07
07
06
0E
0C
18
38
30
60
E0
ENDCHAR
STARTCHAR FB01
ENCODING 64257
SWIDTH 612 0
DWIDTH 17 0
BBX 14 21 0 0
BITMAP
003C
0FBC
1FBC
3FBC
3E00
3C00
3C00
FFFC
FFFC
FFFC
3C3C
3C3C
3C3C
3C3C
3C3C
3C3C
3C3C
3C3C
3C3C
3C3C
3C3C
ENDCHAR
STARTCHAR FB02
ENCODING 64258
SWIDTH 612 0
DWIDTH 17 0
BBX 14 20 0 0
BITMAP
0FBC
1FBC
3FBC
3E3C
3C3C
3C3C
FFBC
FFBC
FFBC
3C3C
3C3C
3C3C
3C3C
3C3C
3C3C
3C3C
3C3C
3C3C
3C3C
3C3C
ENDCHAR
STARTCHAR FEFF
ENCODING 65279
SWIDTH 0 0
DWIDTH 0 0
BBX 0 0 0 0
BITMAP
ENDCHAR
ENDFONT
